%TF.GenerationSoftware,KiCad,Pcbnew,9.0.0*%
%TF.CreationDate,2025-03-11T14:00:59-06:00*%
%TF.ProjectId,Solenoid Breakout Board,536f6c65-6e6f-4696-9420-427265616b6f,rev?*%
%TF.SameCoordinates,Original*%
%TF.FileFunction,Copper,L1,Top*%
%TF.FilePolarity,Positive*%
%FSLAX46Y46*%
G04 Gerber Fmt 4.6, Leading zero omitted, Abs format (unit mm)*
G04 Created by KiCad (PCBNEW 9.0.0) date 2025-03-11 14:00:59*
%MOMM*%
%LPD*%
G01*
G04 APERTURE LIST*
G04 Aperture macros list*
%AMRoundRect*
0 Rectangle with rounded corners*
0 $1 Rounding radius*
0 $2 $3 $4 $5 $6 $7 $8 $9 X,Y pos of 4 corners*
0 Add a 4 corners polygon primitive as box body*
4,1,4,$2,$3,$4,$5,$6,$7,$8,$9,$2,$3,0*
0 Add four circle primitives for the rounded corners*
1,1,$1+$1,$2,$3*
1,1,$1+$1,$4,$5*
1,1,$1+$1,$6,$7*
1,1,$1+$1,$8,$9*
0 Add four rect primitives between the rounded corners*
20,1,$1+$1,$2,$3,$4,$5,0*
20,1,$1+$1,$4,$5,$6,$7,0*
20,1,$1+$1,$6,$7,$8,$9,0*
20,1,$1+$1,$8,$9,$2,$3,0*%
G04 Aperture macros list end*
%TA.AperFunction,ComponentPad*%
%ADD10C,2.311400*%
%TD*%
%TA.AperFunction,ComponentPad*%
%ADD11R,1.700000X1.700000*%
%TD*%
%TA.AperFunction,ComponentPad*%
%ADD12O,1.700000X1.700000*%
%TD*%
%TA.AperFunction,ComponentPad*%
%ADD13RoundRect,0.250000X0.450000X-0.350000X0.450000X0.350000X-0.450000X0.350000X-0.450000X-0.350000X0*%
%TD*%
%TA.AperFunction,SMDPad,CuDef*%
%ADD14RoundRect,0.250000X0.450000X-0.350000X0.450000X0.350000X-0.450000X0.350000X-0.450000X-0.350000X0*%
%TD*%
%TA.AperFunction,SMDPad,CuDef*%
%ADD15RoundRect,0.250000X0.450000X-0.325000X0.450000X0.325000X-0.450000X0.325000X-0.450000X-0.325000X0*%
%TD*%
%TA.AperFunction,SMDPad,CuDef*%
%ADD16RoundRect,0.375000X0.375000X-0.625000X0.375000X0.625000X-0.375000X0.625000X-0.375000X-0.625000X0*%
%TD*%
%TA.AperFunction,SMDPad,CuDef*%
%ADD17RoundRect,0.500000X1.400000X-0.500000X1.400000X0.500000X-1.400000X0.500000X-1.400000X-0.500000X0*%
%TD*%
%TA.AperFunction,ComponentPad*%
%ADD18RoundRect,0.375000X0.375000X-0.625000X0.375000X0.625000X-0.375000X0.625000X-0.375000X-0.625000X0*%
%TD*%
%TA.AperFunction,ComponentPad*%
%ADD19RoundRect,1.746250X-1.746250X-1.746250X1.746250X-1.746250X1.746250X1.746250X-1.746250X1.746250X0*%
%TD*%
%TA.AperFunction,SMDPad,CuDef*%
%ADD20RoundRect,0.162500X0.162500X-0.750000X0.162500X0.750000X-0.162500X0.750000X-0.162500X-0.750000X0*%
%TD*%
%TA.AperFunction,Conductor*%
%ADD21C,0.381000*%
%TD*%
%TA.AperFunction,Conductor*%
%ADD22C,1.143000*%
%TD*%
G04 APERTURE END LIST*
D10*
%TO.P,POWER,1*%
%TO.N,Chassis_GND*%
X175895000Y-129540000D03*
%TO.P,POWER,2*%
%TO.N,+12v*%
X175895000Y-124460000D03*
%TD*%
D11*
%TO.P,L16,1,1*%
%TO.N,+12v*%
X147955000Y-98425000D03*
D12*
%TO.P,L16,2,2*%
%TO.N,Net-(Q16-C)*%
X147955000Y-100965000D03*
%TD*%
D11*
%TO.P,L10,1,1*%
%TO.N,+12v*%
X90565000Y-107950000D03*
D12*
%TO.P,L10,2,2*%
%TO.N,Net-(Q10-C)*%
X90565000Y-110490000D03*
%TD*%
D13*
%TO.P,R35,1,1*%
%TO.N,GND*%
X132080000Y-149495000D03*
D14*
%TO.P,R35,2,2*%
%TO.N,Net-(R35-Pad2)*%
X132080000Y-147495000D03*
%TD*%
D11*
%TO.P,L8,1,1*%
%TO.N,+12v*%
X115965000Y-108000000D03*
D12*
%TO.P,L8,2,2*%
%TO.N,Net-(Q8-C)*%
X115965000Y-110540000D03*
%TD*%
D15*
%TO.P,D11,1,K*%
%TO.N,Net-(D11-K)*%
X99060000Y-127990500D03*
%TO.P,D11,2,A*%
%TO.N,+12v*%
X99060000Y-125940500D03*
%TD*%
D11*
%TO.P,L9,1,1*%
%TO.N,+12v*%
X122315000Y-98470000D03*
D12*
%TO.P,L9,2,2*%
%TO.N,Net-(Q9-C)*%
X122315000Y-101010000D03*
%TD*%
D14*
%TO.P,R32,1,1*%
%TO.N,Net-(R32-Pad1)*%
X137160000Y-126670500D03*
%TO.P,R32,2,2*%
%TO.N,Net-(Q16-B)*%
X137160000Y-124670500D03*
%TD*%
D16*
%TO.P,Q16,1,B*%
%TO.N,Net-(Q16-B)*%
X145655000Y-111100000D03*
%TO.P,Q16,2,C*%
%TO.N,Net-(Q16-C)*%
X147955000Y-111100000D03*
D17*
X147955000Y-104800000D03*
D18*
%TO.P,Q16,3,E*%
%TO.N,Chassis_GND*%
X150255000Y-111100000D03*
%TD*%
D11*
%TO.P,L11,1,1*%
%TO.N,+12v*%
X96915000Y-98450000D03*
D12*
%TO.P,L11,2,2*%
%TO.N,Net-(Q11-C)*%
X96915000Y-100990000D03*
%TD*%
D15*
%TO.P,D13,1,K*%
%TO.N,Net-(D13-K)*%
X119380000Y-127845500D03*
%TO.P,D13,2,A*%
%TO.N,+12v*%
X119380000Y-125795500D03*
%TD*%
D19*
%TO.P,REF\u002A\u002A,1*%
%TO.N,Chassis_GND*%
X176530000Y-91440000D03*
%TD*%
D11*
%TO.P,Power Out,1,1*%
%TO.N,+12v*%
X46990000Y-98425000D03*
D12*
%TO.P,Power Out,2,2*%
%TO.N,Chassis_GND*%
X46990000Y-100965000D03*
%TD*%
D14*
%TO.P,R8,1,1*%
%TO.N,Net-(R8-Pad1)*%
X60960000Y-126960500D03*
%TO.P,R8,2,2*%
%TO.N,Net-(Q2-B)*%
X60960000Y-124960500D03*
%TD*%
D16*
%TO.P,Q10,1,B*%
%TO.N,Net-(Q10-B)*%
X88265000Y-120650000D03*
%TO.P,Q10,2,C*%
%TO.N,Net-(Q10-C)*%
X90565000Y-120650000D03*
D17*
X90565000Y-114350000D03*
D18*
%TO.P,Q10,3,E*%
%TO.N,Chassis_GND*%
X92865000Y-120650000D03*
%TD*%
D13*
%TO.P,R33,1,1*%
%TO.N,GND*%
X127000000Y-149495000D03*
D14*
%TO.P,R33,2,2*%
%TO.N,Net-(R33-Pad2)*%
X127000000Y-147495000D03*
%TD*%
D20*
%TO.P,U5,1*%
%TO.N,A2*%
X125730000Y-144780000D03*
%TO.P,U5,2*%
%TO.N,Net-(R33-Pad2)*%
X127000000Y-144780000D03*
%TO.P,U5,3*%
%TO.N,A#2*%
X128270000Y-144780000D03*
%TO.P,U5,4*%
%TO.N,Net-(R34-Pad2)*%
X129540000Y-144780000D03*
%TO.P,U5,5*%
%TO.N,B2*%
X130810000Y-144780000D03*
%TO.P,U5,6*%
%TO.N,Net-(R35-Pad2)*%
X132080000Y-144780000D03*
%TO.P,U5,7*%
%TO.N,C3*%
X133350000Y-144780000D03*
%TO.P,U5,8*%
%TO.N,Net-(R36-Pad2)*%
X134620000Y-144780000D03*
%TO.P,U5,9*%
%TO.N,Net-(R40-Pad1)*%
X134620000Y-138605000D03*
%TO.P,U5,10*%
%TO.N,Net-(D20-K)*%
X133350000Y-138605000D03*
%TO.P,U5,11*%
%TO.N,Net-(R39-Pad1)*%
X132080000Y-138605000D03*
%TO.P,U5,12*%
%TO.N,Net-(D19-K)*%
X130810000Y-138605000D03*
%TO.P,U5,13*%
%TO.N,Net-(R38-Pad1)*%
X129540000Y-138605000D03*
%TO.P,U5,14*%
%TO.N,Net-(D18-K)*%
X128270000Y-138605000D03*
%TO.P,U5,15*%
%TO.N,Net-(R37-Pad1)*%
X127000000Y-138605000D03*
%TO.P,U5,16*%
%TO.N,Net-(D17-K)*%
X125730000Y-138605000D03*
%TD*%
D14*
%TO.P,R24,1,1*%
%TO.N,Net-(R24-Pad1)*%
X101600000Y-126720500D03*
%TO.P,R24,2,2*%
%TO.N,Net-(Q12-B)*%
X101600000Y-124720500D03*
%TD*%
%TO.P,R39,1,1*%
%TO.N,Net-(R39-Pad1)*%
X152400000Y-126670500D03*
%TO.P,R39,2,2*%
%TO.N,Net-(Q19-B)*%
X152400000Y-124670500D03*
%TD*%
D11*
%TO.P,L13,1,1*%
%TO.N,+12v*%
X128665000Y-107945000D03*
D12*
%TO.P,L13,2,2*%
%TO.N,Net-(Q13-C)*%
X128665000Y-110485000D03*
%TD*%
D16*
%TO.P,Q1,1,B*%
%TO.N,Net-(Q1-B)*%
X56515000Y-111125000D03*
%TO.P,Q1,2,C*%
%TO.N,Net-(Q1-C)*%
X58815000Y-111125000D03*
D17*
X58815000Y-104825000D03*
D18*
%TO.P,Q1,3,E*%
%TO.N,Chassis_GND*%
X61115000Y-111125000D03*
%TD*%
D16*
%TO.P,Q4,1,B*%
%TO.N,Net-(Q4-B)*%
X62865000Y-120600000D03*
%TO.P,Q4,2,C*%
%TO.N,Net-(Q4-C)*%
X65165000Y-120600000D03*
D17*
X65165000Y-114300000D03*
D18*
%TO.P,Q4,3,E*%
%TO.N,Chassis_GND*%
X67465000Y-120600000D03*
%TD*%
D15*
%TO.P,D5,1,K*%
%TO.N,Net-(D5-K)*%
X78740000Y-127990500D03*
%TO.P,D5,2,A*%
%TO.N,+12v*%
X78740000Y-125940500D03*
%TD*%
D16*
%TO.P,Q20,1,B*%
%TO.N,Net-(Q20-B)*%
X171055000Y-111100000D03*
%TO.P,Q20,2,C*%
%TO.N,Net-(Q20-C)*%
X173355000Y-111100000D03*
D17*
X173355000Y-104800000D03*
D18*
%TO.P,Q20,3,E*%
%TO.N,Chassis_GND*%
X175655000Y-111100000D03*
%TD*%
D15*
%TO.P,D14,1,K*%
%TO.N,Net-(D14-K)*%
X124460000Y-127845500D03*
%TO.P,D14,2,A*%
%TO.N,+12v*%
X124460000Y-125795500D03*
%TD*%
D16*
%TO.P,Q3,1,B*%
%TO.N,Net-(Q3-B)*%
X81915000Y-111125000D03*
%TO.P,Q3,2,C*%
%TO.N,Net-(Q3-C)*%
X84215000Y-111125000D03*
D17*
X84215000Y-104825000D03*
D18*
%TO.P,Q3,3,E*%
%TO.N,Chassis_GND*%
X86515000Y-111125000D03*
%TD*%
D15*
%TO.P,D2,1,K*%
%TO.N,Net-(D2-K)*%
X63500000Y-128135500D03*
%TO.P,D2,2,A*%
%TO.N,+12v*%
X63500000Y-126085500D03*
%TD*%
D14*
%TO.P,R23,1,1*%
%TO.N,Net-(R23-Pad1)*%
X96520000Y-126720500D03*
%TO.P,R23,2,2*%
%TO.N,Net-(Q11-B)*%
X96520000Y-124720500D03*
%TD*%
D11*
%TO.P,L15,1,1*%
%TO.N,+12v*%
X141605000Y-107950000D03*
D12*
%TO.P,L15,2,2*%
%TO.N,Net-(Q15-C)*%
X141605000Y-110490000D03*
%TD*%
D16*
%TO.P,Q15,1,B*%
%TO.N,Net-(Q15-B)*%
X139305000Y-120600000D03*
%TO.P,Q15,2,C*%
%TO.N,Net-(Q15-C)*%
X141605000Y-120600000D03*
D17*
X141605000Y-114300000D03*
D18*
%TO.P,Q15,3,E*%
%TO.N,Chassis_GND*%
X143905000Y-120600000D03*
%TD*%
D14*
%TO.P,R31,1,1*%
%TO.N,Net-(R31-Pad1)*%
X132080000Y-126670500D03*
%TO.P,R31,2,2*%
%TO.N,Net-(Q15-B)*%
X132080000Y-124670500D03*
%TD*%
D13*
%TO.P,R1,1,1*%
%TO.N,GND*%
X83820000Y-149400000D03*
D14*
%TO.P,R1,2,2*%
%TO.N,Net-(R1-Pad2)*%
X83820000Y-147400000D03*
%TD*%
D13*
%TO.P,R25,1,1*%
%TO.N,GND*%
X115570000Y-149495000D03*
D14*
%TO.P,R25,2,2*%
%TO.N,Net-(R25-Pad2)*%
X115570000Y-147495000D03*
%TD*%
D13*
%TO.P,R27,1,1*%
%TO.N,GND*%
X120650000Y-149495000D03*
D14*
%TO.P,R27,2,2*%
%TO.N,Net-(R27-Pad2)*%
X120650000Y-147495000D03*
%TD*%
D15*
%TO.P,D9,1,K*%
%TO.N,Net-(D9-K)*%
X114300000Y-127990500D03*
%TO.P,D9,2,A*%
%TO.N,+12v*%
X114300000Y-125940500D03*
%TD*%
D13*
%TO.P,R34,1,1*%
%TO.N,GND*%
X129540000Y-149495000D03*
D14*
%TO.P,R34,2,2*%
%TO.N,Net-(R34-Pad2)*%
X129540000Y-147495000D03*
%TD*%
D11*
%TO.P,L1,1,1*%
%TO.N,+12v*%
X58815000Y-98445000D03*
D12*
%TO.P,L1,2,2*%
%TO.N,Net-(Q1-C)*%
X58815000Y-100985000D03*
%TD*%
D16*
%TO.P,Q18,1,B*%
%TO.N,Net-(Q18-B)*%
X158355000Y-111075000D03*
%TO.P,Q18,2,C*%
%TO.N,Net-(Q18-C)*%
X160655000Y-111075000D03*
D17*
X160655000Y-104775000D03*
D18*
%TO.P,Q18,3,E*%
%TO.N,Chassis_GND*%
X162955000Y-111075000D03*
%TD*%
D13*
%TO.P,R36,1,1*%
%TO.N,GND*%
X134620000Y-149495000D03*
D14*
%TO.P,R36,2,2*%
%TO.N,Net-(R36-Pad2)*%
X134620000Y-147495000D03*
%TD*%
%TO.P,R21,1,1*%
%TO.N,Net-(R21-Pad1)*%
X116840000Y-126670500D03*
%TO.P,R21,2,2*%
%TO.N,Net-(Q9-B)*%
X116840000Y-124670500D03*
%TD*%
D10*
%TO.P,POWER,1*%
%TO.N,+12v*%
X48895000Y-124460000D03*
%TO.P,POWER,2*%
%TO.N,Chassis_GND*%
X48895000Y-129540000D03*
%TD*%
D11*
%TO.P,L20,1,1*%
%TO.N,+12v*%
X173355000Y-98425000D03*
D12*
%TO.P,L20,2,2*%
%TO.N,Net-(Q20-C)*%
X173355000Y-100965000D03*
%TD*%
D14*
%TO.P,R22,1,1*%
%TO.N,Net-(R22-Pad1)*%
X91440000Y-126720500D03*
%TO.P,R22,2,2*%
%TO.N,Net-(Q10-B)*%
X91440000Y-124720500D03*
%TD*%
D16*
%TO.P,Q7,1,B*%
%TO.N,Net-(Q7-B)*%
X107315000Y-111125000D03*
%TO.P,Q7,2,C*%
%TO.N,Net-(Q7-C)*%
X109615000Y-111125000D03*
D17*
X109615000Y-104825000D03*
D18*
%TO.P,Q7,3,E*%
%TO.N,Chassis_GND*%
X111915000Y-111125000D03*
%TD*%
D14*
%TO.P,R19,1,1*%
%TO.N,Net-(R19-Pad1)*%
X106680000Y-126720500D03*
%TO.P,R19,2,2*%
%TO.N,Net-(Q7-B)*%
X106680000Y-124720500D03*
%TD*%
D15*
%TO.P,D1,1,K*%
%TO.N,Net-(D1-K)*%
X83820000Y-127990500D03*
%TO.P,D1,2,A*%
%TO.N,+12v*%
X83820000Y-125940500D03*
%TD*%
D11*
%TO.P,L17,1,1*%
%TO.N,+12v*%
X154305000Y-107950000D03*
D12*
%TO.P,L17,2,2*%
%TO.N,Net-(Q17-C)*%
X154305000Y-110490000D03*
%TD*%
D15*
%TO.P,D10,1,K*%
%TO.N,Net-(D10-K)*%
X93980000Y-127990500D03*
%TO.P,D10,2,A*%
%TO.N,+12v*%
X93980000Y-125940500D03*
%TD*%
D16*
%TO.P,Q5,1,B*%
%TO.N,Net-(Q5-B)*%
X69215000Y-111125000D03*
%TO.P,Q5,2,C*%
%TO.N,Net-(Q5-C)*%
X71515000Y-111125000D03*
D17*
X71515000Y-104825000D03*
D18*
%TO.P,Q5,3,E*%
%TO.N,Chassis_GND*%
X73815000Y-111125000D03*
%TD*%
D11*
%TO.P,L19,1,1*%
%TO.N,+12v*%
X167005000Y-107950000D03*
D12*
%TO.P,L19,2,2*%
%TO.N,Net-(Q19-C)*%
X167005000Y-110490000D03*
%TD*%
D14*
%TO.P,R20,1,1*%
%TO.N,Net-(R20-Pad1)*%
X111760000Y-126670500D03*
%TO.P,R20,2,2*%
%TO.N,Net-(Q8-B)*%
X111760000Y-124670500D03*
%TD*%
D15*
%TO.P,D16,1,K*%
%TO.N,Net-(D16-K)*%
X134620000Y-127845500D03*
%TO.P,D16,2,A*%
%TO.N,+12v*%
X134620000Y-125795500D03*
%TD*%
D13*
%TO.P,R17,1,1*%
%TO.N,GND*%
X100330000Y-149400000D03*
D14*
%TO.P,R17,2,2*%
%TO.N,Net-(R17-Pad2)*%
X100330000Y-147400000D03*
%TD*%
D16*
%TO.P,Q6,1,B*%
%TO.N,Net-(Q6-B)*%
X75565000Y-120600000D03*
%TO.P,Q6,2,C*%
%TO.N,Net-(Q6-C)*%
X77865000Y-120600000D03*
D17*
X77865000Y-114300000D03*
D18*
%TO.P,Q6,3,E*%
%TO.N,Chassis_GND*%
X80165000Y-120600000D03*
%TD*%
D11*
%TO.P,L7,1,1*%
%TO.N,+12v*%
X109615000Y-98470000D03*
D12*
%TO.P,L7,2,2*%
%TO.N,Net-(Q7-C)*%
X109615000Y-101010000D03*
%TD*%
D13*
%TO.P,R2,1,1*%
%TO.N,GND*%
X81280000Y-149400000D03*
D14*
%TO.P,R2,2,2*%
%TO.N,Net-(R2-Pad2)*%
X81280000Y-147400000D03*
%TD*%
D13*
%TO.P,R4,1,1*%
%TO.N,GND*%
X95250000Y-149400000D03*
D14*
%TO.P,R4,2,2*%
%TO.N,Net-(R4-Pad2)*%
X95250000Y-147400000D03*
%TD*%
D19*
%TO.P,REF\u002A\u002A,1*%
%TO.N,Chassis_GND*%
X48260000Y-91440000D03*
%TD*%
D16*
%TO.P,Q2,1,B*%
%TO.N,Net-(Q2-B)*%
X50405000Y-120600000D03*
%TO.P,Q2,2,C*%
%TO.N,Net-(Q2-C)*%
X52705000Y-120600000D03*
D17*
X52705000Y-114300000D03*
D18*
%TO.P,Q2,3,E*%
%TO.N,Chassis_GND*%
X55005000Y-120600000D03*
%TD*%
D11*
%TO.P,L2,1,1*%
%TO.N,+12v*%
X52705000Y-107950000D03*
D12*
%TO.P,L2,2,2*%
%TO.N,Net-(Q2-C)*%
X52705000Y-110490000D03*
%TD*%
D15*
%TO.P,D18,1,K*%
%TO.N,Net-(D18-K)*%
X144780000Y-127780000D03*
%TO.P,D18,2,A*%
%TO.N,+12v*%
X144780000Y-125730000D03*
%TD*%
%TO.P,D3,1,K*%
%TO.N,Net-(D3-K)*%
X68580000Y-128135500D03*
%TO.P,D3,2,A*%
%TO.N,+12v*%
X68580000Y-126085500D03*
%TD*%
D16*
%TO.P,Q11,1,B*%
%TO.N,Net-(Q11-B)*%
X94615000Y-111125000D03*
%TO.P,Q11,2,C*%
%TO.N,Net-(Q11-C)*%
X96915000Y-111125000D03*
D17*
X96915000Y-104825000D03*
D18*
%TO.P,Q11,3,E*%
%TO.N,Chassis_GND*%
X99215000Y-111125000D03*
%TD*%
D14*
%TO.P,R38,1,1*%
%TO.N,Net-(R38-Pad1)*%
X147320000Y-126670500D03*
%TO.P,R38,2,2*%
%TO.N,Net-(Q18-B)*%
X147320000Y-124670500D03*
%TD*%
D11*
%TO.P,L12,1,1*%
%TO.N,+12v*%
X103265000Y-107995000D03*
D12*
%TO.P,L12,2,2*%
%TO.N,Net-(Q12-C)*%
X103265000Y-110535000D03*
%TD*%
D11*
%TO.P,J1,1,1*%
%TO.N,F1*%
X80645000Y-153670000D03*
D12*
%TO.P,J1,2,2*%
%TO.N,F#1*%
X83185000Y-153670000D03*
%TO.P,J1,3,3*%
%TO.N,G1*%
X85725000Y-153670000D03*
%TO.P,J1,4,4*%
%TO.N,G#1*%
X88265000Y-153670000D03*
%TO.P,J1,5,5*%
%TO.N,A1*%
X90805000Y-153670000D03*
%TO.P,J1,6,6*%
%TO.N,A#1*%
X93345000Y-153670000D03*
%TO.P,J1,7,7*%
%TO.N,B1*%
X95885000Y-153670000D03*
%TO.P,J1,8,8*%
%TO.N,C2*%
X98425000Y-153670000D03*
%TO.P,J1,9,9*%
%TO.N,C#2*%
X100965000Y-153670000D03*
%TO.P,J1,10,10*%
%TO.N,D2*%
X103505000Y-153670000D03*
%TO.P,J1,11,11*%
%TO.N,D#2*%
X106045000Y-153670000D03*
%TO.P,J1,12,12*%
%TO.N,E2*%
X108585000Y-153670000D03*
%TO.P,J1,13,13*%
%TO.N,F2*%
X111125000Y-153670000D03*
%TO.P,J1,14,14*%
%TO.N,F#2*%
X113665000Y-153670000D03*
%TO.P,J1,15,15*%
%TO.N,G2*%
X116205000Y-153670000D03*
%TO.P,J1,16,16*%
%TO.N,G#2*%
X118745000Y-153670000D03*
%TO.P,J1,17,17*%
%TO.N,A2*%
X121285000Y-153670000D03*
%TO.P,J1,18,18*%
%TO.N,A#2*%
X123825000Y-153670000D03*
%TO.P,J1,19,19*%
%TO.N,B2*%
X126365000Y-153670000D03*
%TO.P,J1,20,20*%
%TO.N,C3*%
X128905000Y-153670000D03*
%TO.P,J1,21,21*%
%TO.N,GND*%
X131445000Y-153670000D03*
%TD*%
D13*
%TO.P,R3,1,1*%
%TO.N,GND*%
X88900000Y-149400000D03*
D14*
%TO.P,R3,2,2*%
%TO.N,Net-(R3-Pad2)*%
X88900000Y-147400000D03*
%TD*%
D16*
%TO.P,Q8,1,B*%
%TO.N,Net-(Q8-B)*%
X113665000Y-120650000D03*
%TO.P,Q8,2,C*%
%TO.N,Net-(Q8-C)*%
X115965000Y-120650000D03*
D17*
X115965000Y-114350000D03*
D18*
%TO.P,Q8,3,E*%
%TO.N,Chassis_GND*%
X118265000Y-120650000D03*
%TD*%
D13*
%TO.P,R13,1,1*%
%TO.N,GND*%
X106680000Y-149495000D03*
D14*
%TO.P,R13,2,2*%
%TO.N,Net-(R13-Pad2)*%
X106680000Y-147495000D03*
%TD*%
D13*
%TO.P,R26,1,1*%
%TO.N,GND*%
X118110000Y-149495000D03*
D14*
%TO.P,R26,2,2*%
%TO.N,Net-(R26-Pad2)*%
X118110000Y-147495000D03*
%TD*%
%TO.P,R9,1,1*%
%TO.N,Net-(R9-Pad1)*%
X86360000Y-126815500D03*
%TO.P,R9,2,2*%
%TO.N,Net-(Q3-B)*%
X86360000Y-124815500D03*
%TD*%
D16*
%TO.P,Q17,1,B*%
%TO.N,Net-(Q17-B)*%
X152005000Y-120650000D03*
%TO.P,Q17,2,C*%
%TO.N,Net-(Q17-C)*%
X154305000Y-120650000D03*
D17*
X154305000Y-114350000D03*
D18*
%TO.P,Q17,3,E*%
%TO.N,Chassis_GND*%
X156605000Y-120650000D03*
%TD*%
D13*
%TO.P,R16,1,1*%
%TO.N,GND*%
X97790000Y-149400000D03*
D14*
%TO.P,R16,2,2*%
%TO.N,Net-(R16-Pad2)*%
X97790000Y-147400000D03*
%TD*%
D11*
%TO.P,L5,1,1*%
%TO.N,+12v*%
X71515000Y-98470000D03*
D12*
%TO.P,L5,2,2*%
%TO.N,Net-(Q5-C)*%
X71515000Y-101010000D03*
%TD*%
D16*
%TO.P,Q12,1,B*%
%TO.N,Net-(Q12-B)*%
X100965000Y-120650000D03*
%TO.P,Q12,2,C*%
%TO.N,Net-(Q12-C)*%
X103265000Y-120650000D03*
D17*
X103265000Y-114350000D03*
D18*
%TO.P,Q12,3,E*%
%TO.N,Chassis_GND*%
X105565000Y-120650000D03*
%TD*%
D13*
%TO.P,R5,1,1*%
%TO.N,GND*%
X86360000Y-149400000D03*
D14*
%TO.P,R5,2,2*%
%TO.N,Net-(R5-Pad2)*%
X86360000Y-147400000D03*
%TD*%
D15*
%TO.P,D12,1,K*%
%TO.N,Net-(D12-K)*%
X88900000Y-127990500D03*
%TO.P,D12,2,A*%
%TO.N,+12v*%
X88900000Y-125940500D03*
%TD*%
D11*
%TO.P,L6,1,1*%
%TO.N,+12v*%
X77865000Y-107945000D03*
D12*
%TO.P,L6,2,2*%
%TO.N,Net-(Q6-C)*%
X77865000Y-110485000D03*
%TD*%
D15*
%TO.P,D4,1,K*%
%TO.N,Net-(D4-K)*%
X73660000Y-127990500D03*
%TO.P,D4,2,A*%
%TO.N,+12v*%
X73660000Y-125940500D03*
%TD*%
D16*
%TO.P,Q14,1,B*%
%TO.N,Net-(Q14-B)*%
X132715000Y-111125000D03*
%TO.P,Q14,2,C*%
%TO.N,Net-(Q14-C)*%
X135015000Y-111125000D03*
D17*
X135015000Y-104825000D03*
D18*
%TO.P,Q14,3,E*%
%TO.N,Chassis_GND*%
X137315000Y-111125000D03*
%TD*%
D20*
%TO.P,U3,1*%
%TO.N,C#2*%
X102870000Y-144780000D03*
%TO.P,U3,2*%
%TO.N,Net-(R18-Pad2)*%
X104140000Y-144780000D03*
%TO.P,U3,3*%
%TO.N,D2*%
X105410000Y-144780000D03*
%TO.P,U3,4*%
%TO.N,Net-(R13-Pad2)*%
X106680000Y-144780000D03*
%TO.P,U3,5*%
%TO.N,D#2*%
X107950000Y-144780000D03*
%TO.P,U3,6*%
%TO.N,Net-(R14-Pad2)*%
X109220000Y-144780000D03*
%TO.P,U3,7*%
%TO.N,E2*%
X110490000Y-144780000D03*
%TO.P,U3,8*%
%TO.N,Net-(R15-Pad2)*%
X111760000Y-144780000D03*
%TO.P,U3,9*%
%TO.N,Net-(R21-Pad1)*%
X111760000Y-138605000D03*
%TO.P,U3,10*%
%TO.N,Net-(D9-K)*%
X110490000Y-138605000D03*
%TO.P,U3,11*%
%TO.N,Net-(R20-Pad1)*%
X109220000Y-138605000D03*
%TO.P,U3,12*%
%TO.N,Net-(D8-K)*%
X107950000Y-138605000D03*
%TO.P,U3,13*%
%TO.N,Net-(R19-Pad1)*%
X106680000Y-138605000D03*
%TO.P,U3,14*%
%TO.N,Net-(D7-K)*%
X105410000Y-138605000D03*
%TO.P,U3,15*%
%TO.N,Net-(R24-Pad1)*%
X104140000Y-138605000D03*
%TO.P,U3,16*%
%TO.N,Net-(D11-K)*%
X102870000Y-138605000D03*
%TD*%
D11*
%TO.P,L3,1,1*%
%TO.N,+12v*%
X84215000Y-98470000D03*
D12*
%TO.P,L3,2,2*%
%TO.N,Net-(Q3-C)*%
X84215000Y-101010000D03*
%TD*%
D15*
%TO.P,D15,1,K*%
%TO.N,Net-(D15-K)*%
X129540000Y-127845500D03*
%TO.P,D15,2,A*%
%TO.N,+12v*%
X129540000Y-125795500D03*
%TD*%
D16*
%TO.P,Q9,1,B*%
%TO.N,Net-(Q9-B)*%
X120015000Y-111125000D03*
%TO.P,Q9,2,C*%
%TO.N,Net-(Q9-C)*%
X122315000Y-111125000D03*
D17*
X122315000Y-104825000D03*
D18*
%TO.P,Q9,3,E*%
%TO.N,Chassis_GND*%
X124615000Y-111125000D03*
%TD*%
D19*
%TO.P,REF\u002A\u002A,1*%
%TO.N,Chassis_GND*%
X176530000Y-151765000D03*
%TD*%
D13*
%TO.P,R18,1,1*%
%TO.N,GND*%
X104140000Y-149400000D03*
D14*
%TO.P,R18,2,2*%
%TO.N,Net-(R18-Pad2)*%
X104140000Y-147400000D03*
%TD*%
D16*
%TO.P,Q13,1,B*%
%TO.N,Net-(Q13-B)*%
X126365000Y-120600000D03*
%TO.P,Q13,2,C*%
%TO.N,Net-(Q13-C)*%
X128665000Y-120600000D03*
D17*
X128665000Y-114300000D03*
D18*
%TO.P,Q13,3,E*%
%TO.N,Chassis_GND*%
X130965000Y-120600000D03*
%TD*%
D14*
%TO.P,R37,1,1*%
%TO.N,Net-(R37-Pad1)*%
X142240000Y-126670500D03*
%TO.P,R37,2,2*%
%TO.N,Net-(Q17-B)*%
X142240000Y-124670500D03*
%TD*%
D16*
%TO.P,Q19,1,B*%
%TO.N,Net-(Q19-B)*%
X164705000Y-120600000D03*
%TO.P,Q19,2,C*%
%TO.N,Net-(Q19-C)*%
X167005000Y-120600000D03*
D17*
X167005000Y-114300000D03*
D18*
%TO.P,Q19,3,E*%
%TO.N,Chassis_GND*%
X169305000Y-120600000D03*
%TD*%
D15*
%TO.P,D8,1,K*%
%TO.N,Net-(D8-K)*%
X109220000Y-127990500D03*
%TO.P,D8,2,A*%
%TO.N,+12v*%
X109220000Y-125940500D03*
%TD*%
D14*
%TO.P,R40,1,1*%
%TO.N,Net-(R40-Pad1)*%
X157480000Y-126575500D03*
%TO.P,R40,2,2*%
%TO.N,Net-(Q20-B)*%
X157480000Y-124575500D03*
%TD*%
D13*
%TO.P,R28,1,1*%
%TO.N,GND*%
X123190000Y-149495000D03*
D14*
%TO.P,R28,2,2*%
%TO.N,Net-(R28-Pad2)*%
X123190000Y-147495000D03*
%TD*%
D15*
%TO.P,D6,1,K*%
%TO.N,Net-(D6-K)*%
X58420000Y-128135500D03*
%TO.P,D6,2,A*%
%TO.N,+12v*%
X58420000Y-126085500D03*
%TD*%
D14*
%TO.P,R10,1,1*%
%TO.N,Net-(R10-Pad1)*%
X71120000Y-126720500D03*
%TO.P,R10,2,2*%
%TO.N,Net-(Q4-B)*%
X71120000Y-124720500D03*
%TD*%
D20*
%TO.P,U2,1*%
%TO.N,A1*%
X91440000Y-144780000D03*
%TO.P,U2,2*%
%TO.N,Net-(R6-Pad2)*%
X92710000Y-144780000D03*
%TO.P,U2,3*%
%TO.N,A#1*%
X93980000Y-144780000D03*
%TO.P,U2,4*%
%TO.N,Net-(R4-Pad2)*%
X95250000Y-144780000D03*
%TO.P,U2,5*%
%TO.N,B1*%
X96520000Y-144780000D03*
%TO.P,U2,6*%
%TO.N,Net-(R16-Pad2)*%
X97790000Y-144780000D03*
%TO.P,U2,7*%
%TO.N,C2*%
X99060000Y-144780000D03*
%TO.P,U2,8*%
%TO.N,Net-(R17-Pad2)*%
X100330000Y-144780000D03*
%TO.P,U2,9*%
%TO.N,Net-(R23-Pad1)*%
X100330000Y-138605000D03*
%TO.P,U2,10*%
%TO.N,Net-(D10-K)*%
X99060000Y-138605000D03*
%TO.P,U2,11*%
%TO.N,Net-(R22-Pad1)*%
X97790000Y-138605000D03*
%TO.P,U2,12*%
%TO.N,Net-(D12-K)*%
X96520000Y-138605000D03*
%TO.P,U2,13*%
%TO.N,Net-(R9-Pad1)*%
X95250000Y-138605000D03*
%TO.P,U2,14*%
%TO.N,Net-(D1-K)*%
X93980000Y-138605000D03*
%TO.P,U2,15*%
%TO.N,Net-(R12-Pad1)*%
X92710000Y-138605000D03*
%TO.P,U2,16*%
%TO.N,Net-(D5-K)*%
X91440000Y-138605000D03*
%TD*%
D14*
%TO.P,R12,1,1*%
%TO.N,Net-(R12-Pad1)*%
X81280000Y-126720500D03*
%TO.P,R12,2,2*%
%TO.N,Net-(Q6-B)*%
X81280000Y-124720500D03*
%TD*%
D13*
%TO.P,R6,1,1*%
%TO.N,GND*%
X92710000Y-149400000D03*
D14*
%TO.P,R6,2,2*%
%TO.N,Net-(R6-Pad2)*%
X92710000Y-147400000D03*
%TD*%
D13*
%TO.P,R14,1,1*%
%TO.N,GND*%
X109220000Y-149495000D03*
D14*
%TO.P,R14,2,2*%
%TO.N,Net-(R14-Pad2)*%
X109220000Y-147495000D03*
%TD*%
D15*
%TO.P,D17,1,K*%
%TO.N,Net-(D17-K)*%
X139700000Y-127845500D03*
%TO.P,D17,2,A*%
%TO.N,+12v*%
X139700000Y-125795500D03*
%TD*%
D14*
%TO.P,R11,1,1*%
%TO.N,Net-(R11-Pad1)*%
X76200000Y-126720500D03*
%TO.P,R11,2,2*%
%TO.N,Net-(Q5-B)*%
X76200000Y-124720500D03*
%TD*%
D20*
%TO.P,U1,1*%
%TO.N,F1*%
X80010000Y-144780000D03*
%TO.P,U1,2*%
%TO.N,Net-(R2-Pad2)*%
X81280000Y-144780000D03*
%TO.P,U1,3*%
%TO.N,F#1*%
X82550000Y-144780000D03*
%TO.P,U1,4*%
%TO.N,Net-(R1-Pad2)*%
X83820000Y-144780000D03*
%TO.P,U1,5*%
%TO.N,G1*%
X85090000Y-144780000D03*
%TO.P,U1,6*%
%TO.N,Net-(R5-Pad2)*%
X86360000Y-144780000D03*
%TO.P,U1,7*%
%TO.N,G#1*%
X87630000Y-144780000D03*
%TO.P,U1,8*%
%TO.N,Net-(R3-Pad2)*%
X88900000Y-144780000D03*
%TO.P,U1,9*%
%TO.N,Net-(R11-Pad1)*%
X88900000Y-138605000D03*
%TO.P,U1,10*%
%TO.N,Net-(D4-K)*%
X87630000Y-138605000D03*
%TO.P,U1,11*%
%TO.N,Net-(R10-Pad1)*%
X86360000Y-138605000D03*
%TO.P,U1,12*%
%TO.N,Net-(D3-K)*%
X85090000Y-138605000D03*
%TO.P,U1,13*%
%TO.N,Net-(R7-Pad1)*%
X83820000Y-138605000D03*
%TO.P,U1,14*%
%TO.N,Net-(D2-K)*%
X82550000Y-138605000D03*
%TO.P,U1,15*%
%TO.N,Net-(R8-Pad1)*%
X81280000Y-138605000D03*
%TO.P,U1,16*%
%TO.N,Net-(D6-K)*%
X80010000Y-138605000D03*
%TD*%
D15*
%TO.P,D19,1,K*%
%TO.N,Net-(D19-K)*%
X149860000Y-127780000D03*
%TO.P,D19,2,A*%
%TO.N,+12v*%
X149860000Y-125730000D03*
%TD*%
%TO.P,D7,1,K*%
%TO.N,Net-(D7-K)*%
X104140000Y-127990500D03*
%TO.P,D7,2,A*%
%TO.N,+12v*%
X104140000Y-125940500D03*
%TD*%
%TO.P,D20,1,K*%
%TO.N,Net-(D20-K)*%
X154940000Y-127780000D03*
%TO.P,D20,2,A*%
%TO.N,+12v*%
X154940000Y-125730000D03*
%TD*%
D14*
%TO.P,R29,1,1*%
%TO.N,Net-(R29-Pad1)*%
X121920000Y-126670500D03*
%TO.P,R29,2,2*%
%TO.N,Net-(Q13-B)*%
X121920000Y-124670500D03*
%TD*%
%TO.P,R30,1,1*%
%TO.N,Net-(R30-Pad1)*%
X127000000Y-126670500D03*
%TO.P,R30,2,2*%
%TO.N,Net-(Q14-B)*%
X127000000Y-124670500D03*
%TD*%
D13*
%TO.P,R15,1,1*%
%TO.N,GND*%
X111760000Y-149495000D03*
D14*
%TO.P,R15,2,2*%
%TO.N,Net-(R15-Pad2)*%
X111760000Y-147495000D03*
%TD*%
D19*
%TO.P,REF\u002A\u002A,1*%
%TO.N,Chassis_GND*%
X48260000Y-151765000D03*
%TD*%
D20*
%TO.P,U4,1*%
%TO.N,F2*%
X114300000Y-144780000D03*
%TO.P,U4,2*%
%TO.N,Net-(R25-Pad2)*%
X115570000Y-144780000D03*
%TO.P,U4,3*%
%TO.N,F#2*%
X116840000Y-144780000D03*
%TO.P,U4,4*%
%TO.N,Net-(R26-Pad2)*%
X118110000Y-144780000D03*
%TO.P,U4,5*%
%TO.N,G2*%
X119380000Y-144780000D03*
%TO.P,U4,6*%
%TO.N,Net-(R27-Pad2)*%
X120650000Y-144780000D03*
%TO.P,U4,7*%
%TO.N,G#2*%
X121920000Y-144780000D03*
%TO.P,U4,8*%
%TO.N,Net-(R28-Pad2)*%
X123190000Y-144780000D03*
%TO.P,U4,9*%
%TO.N,Net-(R32-Pad1)*%
X123190000Y-138605000D03*
%TO.P,U4,10*%
%TO.N,Net-(D16-K)*%
X121920000Y-138605000D03*
%TO.P,U4,11*%
%TO.N,Net-(R31-Pad1)*%
X120650000Y-138605000D03*
%TO.P,U4,12*%
%TO.N,Net-(D15-K)*%
X119380000Y-138605000D03*
%TO.P,U4,13*%
%TO.N,Net-(R30-Pad1)*%
X118110000Y-138605000D03*
%TO.P,U4,14*%
%TO.N,Net-(D14-K)*%
X116840000Y-138605000D03*
%TO.P,U4,15*%
%TO.N,Net-(R29-Pad1)*%
X115570000Y-138605000D03*
%TO.P,U4,16*%
%TO.N,Net-(D13-K)*%
X114300000Y-138605000D03*
%TD*%
D11*
%TO.P,L4,1,1*%
%TO.N,+12v*%
X65165000Y-107945000D03*
D12*
%TO.P,L4,2,2*%
%TO.N,Net-(Q4-C)*%
X65165000Y-110485000D03*
%TD*%
D11*
%TO.P,L18,1,1*%
%TO.N,+12v*%
X160655000Y-98425000D03*
D12*
%TO.P,L18,2,2*%
%TO.N,Net-(Q18-C)*%
X160655000Y-100965000D03*
%TD*%
D14*
%TO.P,R7,1,1*%
%TO.N,Net-(R7-Pad1)*%
X66040000Y-126865500D03*
%TO.P,R7,2,2*%
%TO.N,Net-(Q1-B)*%
X66040000Y-124865500D03*
%TD*%
D11*
%TO.P,L14,1,1*%
%TO.N,+12v*%
X135015000Y-98470000D03*
D12*
%TO.P,L14,2,2*%
%TO.N,Net-(Q14-C)*%
X135015000Y-101010000D03*
%TD*%
D21*
%TO.N,Net-(D1-K)*%
X84455000Y-131445000D02*
X87732499Y-131445000D01*
X83820000Y-130810000D02*
X84455000Y-131445000D01*
X87732499Y-131445000D02*
X93980000Y-137692501D01*
X93980000Y-137692501D02*
X93980000Y-138605000D01*
X83820000Y-127990500D02*
X83820000Y-130810000D01*
D22*
%TO.N,+12v*%
X122315000Y-98470000D02*
X128665000Y-104820000D01*
D21*
X73870500Y-125730000D02*
X78529500Y-125730000D01*
X109845500Y-125680000D02*
X114039500Y-125680000D01*
D22*
X58795000Y-98425000D02*
X58815000Y-98445000D01*
D21*
X73660000Y-125940500D02*
X73870500Y-125730000D01*
X63384500Y-125970000D02*
X63500000Y-126085500D01*
D22*
X147955000Y-98425000D02*
X160655000Y-98425000D01*
D21*
X104140000Y-125940500D02*
X104369500Y-125711000D01*
D22*
X134763148Y-98425000D02*
X134743148Y-98445000D01*
D21*
X134735500Y-125680000D02*
X139584500Y-125680000D01*
X109220000Y-125940500D02*
X109585000Y-125940500D01*
D22*
X154305000Y-104775000D02*
X154305000Y-107950000D01*
D21*
X89110500Y-125730000D02*
X93769500Y-125730000D01*
X63500000Y-126085500D02*
X63710500Y-125875000D01*
X168565000Y-126365000D02*
X167785000Y-125585000D01*
X114300000Y-125940500D02*
X114570000Y-125670500D01*
D22*
X128665000Y-104820000D02*
X128665000Y-107945000D01*
D21*
X94190500Y-125730000D02*
X98849500Y-125730000D01*
X73449500Y-125730000D02*
X73660000Y-125940500D01*
X114570000Y-125670500D02*
X119255000Y-125670500D01*
X139815500Y-125680000D02*
X144664500Y-125680000D01*
X68580000Y-126085500D02*
X68935500Y-125730000D01*
X144914500Y-125661000D02*
X144780000Y-125795500D01*
D22*
X175895000Y-124460000D02*
X177176500Y-123178500D01*
D21*
X68369500Y-125875000D02*
X68580000Y-126085500D01*
D22*
X84215000Y-98470000D02*
X90565000Y-104820000D01*
D21*
X99270500Y-125730000D02*
X103929500Y-125730000D01*
D22*
X141605000Y-105060000D02*
X141605000Y-107950000D01*
D21*
X78950500Y-125730000D02*
X83609500Y-125730000D01*
X108990500Y-125711000D02*
X109220000Y-125940500D01*
D22*
X160655000Y-98425000D02*
X167005000Y-104775000D01*
D21*
X150120500Y-125680000D02*
X149860000Y-125940500D01*
D22*
X46990000Y-98425000D02*
X58795000Y-98425000D01*
D21*
X78529500Y-125730000D02*
X78740000Y-125940500D01*
X173990000Y-126365000D02*
X168565000Y-126365000D01*
X88900000Y-125940500D02*
X89110500Y-125730000D01*
D22*
X46990000Y-98425000D02*
X52705000Y-104140000D01*
D21*
X93980000Y-125940500D02*
X94190500Y-125730000D01*
X98849500Y-125730000D02*
X99060000Y-125940500D01*
D22*
X147955000Y-98425000D02*
X154305000Y-104775000D01*
D21*
X175895000Y-124460000D02*
X173990000Y-126365000D01*
X139700000Y-125795500D02*
X139815500Y-125680000D01*
D22*
X115965000Y-104820000D02*
X115965000Y-108000000D01*
X134743148Y-98445000D02*
X58815000Y-98445000D01*
D21*
X139584500Y-125680000D02*
X139700000Y-125795500D01*
X130050000Y-125795500D02*
X130165500Y-125680000D01*
X109585000Y-125940500D02*
X109845500Y-125680000D01*
D22*
X96915000Y-98450000D02*
X103265000Y-104800000D01*
X58815000Y-98445000D02*
X65165000Y-104795000D01*
D21*
X134620000Y-125795500D02*
X134735500Y-125680000D01*
D22*
X71515000Y-98470000D02*
X77865000Y-104820000D01*
D21*
X99060000Y-125940500D02*
X99270500Y-125730000D01*
X124344500Y-125680000D02*
X124460000Y-125795500D01*
D22*
X65165000Y-104795000D02*
X65165000Y-107945000D01*
D21*
X104369500Y-125711000D02*
X108990500Y-125711000D01*
X58535500Y-125970000D02*
X63384500Y-125970000D01*
D22*
X173355000Y-98425000D02*
X160655000Y-98425000D01*
D21*
X124575500Y-125680000D02*
X129424500Y-125680000D01*
X130165500Y-125680000D02*
X134504500Y-125680000D01*
X154679500Y-125680000D02*
X150120500Y-125680000D01*
D22*
X47739300Y-112915700D02*
X52705000Y-107950000D01*
D21*
X103929500Y-125730000D02*
X104140000Y-125940500D01*
D22*
X52705000Y-104140000D02*
X52705000Y-107950000D01*
X77865000Y-104820000D02*
X77865000Y-107945000D01*
X167005000Y-104775000D02*
X167005000Y-107950000D01*
X109615000Y-98470000D02*
X115965000Y-104820000D01*
D21*
X149860000Y-125940500D02*
X149580500Y-125661000D01*
X68935500Y-125730000D02*
X73449500Y-125730000D01*
D22*
X48895000Y-124460000D02*
X47739300Y-123304300D01*
D21*
X119255000Y-125670500D02*
X119380000Y-125795500D01*
X88784500Y-125825000D02*
X88900000Y-125940500D01*
X83609500Y-125730000D02*
X83820000Y-125940500D01*
X134504500Y-125680000D02*
X134620000Y-125795500D01*
D22*
X135015000Y-98470000D02*
X141605000Y-105060000D01*
D21*
X83935500Y-125825000D02*
X88784500Y-125825000D01*
X119495500Y-125680000D02*
X124344500Y-125680000D01*
X144664500Y-125680000D02*
X144780000Y-125795500D01*
D22*
X177176500Y-102246500D02*
X173355000Y-98425000D01*
D21*
X93769500Y-125730000D02*
X93980000Y-125940500D01*
X78740000Y-125940500D02*
X78950500Y-125730000D01*
X63710500Y-125875000D02*
X68369500Y-125875000D01*
D22*
X47739300Y-123304300D02*
X47739300Y-112915700D01*
D21*
X124460000Y-125795500D02*
X124575500Y-125680000D01*
D22*
X90565000Y-104820000D02*
X90565000Y-107950000D01*
D21*
X155085000Y-125585000D02*
X154940000Y-125730000D01*
X58420000Y-126085500D02*
X58535500Y-125970000D01*
X129540000Y-125795500D02*
X130050000Y-125795500D01*
X149580500Y-125661000D02*
X144914500Y-125661000D01*
X154940000Y-125940500D02*
X154679500Y-125680000D01*
X119380000Y-125795500D02*
X119495500Y-125680000D01*
X114039500Y-125680000D02*
X114300000Y-125940500D01*
D22*
X147955000Y-98425000D02*
X134763148Y-98425000D01*
D21*
X129424500Y-125680000D02*
X129540000Y-125795500D01*
D22*
X177176500Y-123178500D02*
X177176500Y-102246500D01*
X103265000Y-104800000D02*
X103265000Y-107995000D01*
D21*
X167785000Y-125585000D02*
X155085000Y-125585000D01*
X83820000Y-125940500D02*
X83935500Y-125825000D01*
%TO.N,Net-(D2-K)*%
X64135000Y-136525000D02*
X80899064Y-136525000D01*
X63500000Y-135890000D02*
X64135000Y-136525000D01*
X82550000Y-138175936D02*
X82550000Y-138605000D01*
X63500000Y-128135500D02*
X63500000Y-135890000D01*
X80899064Y-136525000D02*
X82550000Y-138175936D01*
%TO.N,Net-(D3-K)*%
X68580000Y-128135500D02*
X68580000Y-134620000D01*
X82652499Y-135255000D02*
X85090000Y-137692501D01*
X69215000Y-135255000D02*
X82652499Y-135255000D01*
X68580000Y-134620000D02*
X69215000Y-135255000D01*
X85090000Y-137692501D02*
X85090000Y-138605000D01*
%TO.N,Net-(D4-K)*%
X73660000Y-133350000D02*
X74295000Y-133985000D01*
X74295000Y-133985000D02*
X83922499Y-133985000D01*
X87630000Y-137692501D02*
X87630000Y-138605000D01*
X83922499Y-133985000D02*
X87630000Y-137692501D01*
X73660000Y-127990500D02*
X73660000Y-133350000D01*
%TO.N,Net-(D5-K)*%
X90170000Y-138175936D02*
X90170000Y-138430000D01*
X90170000Y-138430000D02*
X90345000Y-138605000D01*
X79375000Y-132715000D02*
X84709064Y-132715000D01*
X84709064Y-132715000D02*
X90170000Y-138175936D01*
X78740000Y-127990500D02*
X78740000Y-132080000D01*
X90345000Y-138605000D02*
X91440000Y-138605000D01*
X78740000Y-132080000D02*
X79375000Y-132715000D01*
%TO.N,Net-(D6-K)*%
X80010000Y-138605000D02*
X79200000Y-137795000D01*
X58420000Y-137160000D02*
X58420000Y-128135500D01*
X59055000Y-137795000D02*
X58420000Y-137160000D01*
X79200000Y-137795000D02*
X59055000Y-137795000D01*
%TO.N,Net-(D7-K)*%
X105410000Y-137160000D02*
X105410000Y-138605000D01*
X104140000Y-127990500D02*
X104140000Y-135890000D01*
X104140000Y-135890000D02*
X105410000Y-137160000D01*
%TO.N,Net-(D8-K)*%
X107950000Y-130175000D02*
X107950000Y-138605000D01*
X109220000Y-128905000D02*
X107950000Y-130175000D01*
X109220000Y-127990500D02*
X109220000Y-128905000D01*
%TO.N,Net-(D9-K)*%
X110490000Y-130175000D02*
X110490000Y-138605000D01*
X112674500Y-127990500D02*
X110490000Y-130175000D01*
X114300000Y-127990500D02*
X112674500Y-127990500D01*
%TO.N,Net-(D10-K)*%
X93980000Y-127990500D02*
X93980000Y-132715000D01*
X93980000Y-132715000D02*
X99060000Y-137795000D01*
X99060000Y-137795000D02*
X99060000Y-138605000D01*
%TO.N,Net-(D11-K)*%
X102410000Y-138605000D02*
X102870000Y-138605000D01*
X99060000Y-127990500D02*
X99060000Y-135255000D01*
X99060000Y-135255000D02*
X102410000Y-138605000D01*
%TO.N,Net-(D12-K)*%
X88900000Y-130175000D02*
X96520000Y-137795000D01*
X88900000Y-127990500D02*
X88900000Y-130175000D01*
X96520000Y-137795000D02*
X96520000Y-138605000D01*
%TO.N,Net-(D13-K)*%
X114300000Y-132715000D02*
X114300000Y-138605000D01*
X119169500Y-127845500D02*
X114300000Y-132715000D01*
X119380000Y-127845500D02*
X119169500Y-127845500D01*
%TO.N,Net-(D14-K)*%
X116840000Y-133350000D02*
X116840000Y-138605000D01*
X122344500Y-127845500D02*
X116840000Y-133350000D01*
X124460000Y-127845500D02*
X122344500Y-127845500D01*
%TO.N,Net-(D15-K)*%
X119380000Y-133350000D02*
X119380000Y-138605000D01*
X123190000Y-129540000D02*
X119380000Y-133350000D01*
X128694500Y-127845500D02*
X127000000Y-129540000D01*
X129540000Y-127845500D02*
X128694500Y-127845500D01*
X127000000Y-129540000D02*
X123190000Y-129540000D01*
%TO.N,Net-(D16-K)*%
X132504500Y-127845500D02*
X129540000Y-130810000D01*
X134620000Y-127845500D02*
X132504500Y-127845500D01*
X129540000Y-130810000D02*
X125095000Y-130810000D01*
X125095000Y-130810000D02*
X121920000Y-133985000D01*
X121920000Y-133985000D02*
X121920000Y-138605000D01*
%TO.N,Net-(D17-K)*%
X138406158Y-127845500D02*
X135983329Y-130268329D01*
X139700000Y-127845500D02*
X138406158Y-127845500D01*
X125730000Y-137795000D02*
X125730000Y-138605000D01*
X135983329Y-130268329D02*
X133256671Y-130268329D01*
X133256671Y-130268329D02*
X125730000Y-137795000D01*
%TO.N,Net-(D18-K)*%
X133882501Y-132080000D02*
X140480000Y-132080000D01*
X140480000Y-132080000D02*
X144780000Y-127780000D01*
X128270000Y-137692501D02*
X133882501Y-132080000D01*
X128270000Y-138605000D02*
X128270000Y-137692501D01*
%TO.N,Net-(D19-K)*%
X130810000Y-138605000D02*
X130810000Y-137692501D01*
X144344000Y-133296000D02*
X149860000Y-127780000D01*
X130810000Y-137692501D02*
X135206501Y-133296000D01*
X135206501Y-133296000D02*
X144344000Y-133296000D01*
%TO.N,Net-(D20-K)*%
X136584501Y-134458000D02*
X148262000Y-134458000D01*
X148262000Y-134458000D02*
X154940000Y-127780000D01*
X133350000Y-137692501D02*
X136584501Y-134458000D01*
X133350000Y-138605000D02*
X133350000Y-137692501D01*
%TO.N,A#1*%
X93980000Y-153035000D02*
X93345000Y-153670000D01*
X93980000Y-144780000D02*
X93980000Y-153035000D01*
X93345000Y-153670000D02*
X93345000Y-153845000D01*
%TO.N,A2*%
X123825000Y-151940000D02*
X125730000Y-150035000D01*
X121285000Y-153845000D02*
X123190000Y-151940000D01*
X123190000Y-151940000D02*
X123825000Y-151940000D01*
X125730000Y-150035000D02*
X125730000Y-144780000D01*
%TO.N,F1*%
X80010000Y-144780000D02*
X80010000Y-153210000D01*
X80010000Y-153210000D02*
X80645000Y-153845000D01*
%TO.N,C2*%
X99060000Y-153210000D02*
X98425000Y-153845000D01*
X99060000Y-144780000D02*
X99060000Y-153210000D01*
%TO.N,C3*%
X130810000Y-151940000D02*
X132080000Y-151940000D01*
X132080000Y-151940000D02*
X133350000Y-150670000D01*
X128905000Y-153845000D02*
X129540000Y-153845000D01*
X128905000Y-153845000D02*
X130810000Y-151940000D01*
X133350000Y-150670000D02*
X133350000Y-144780000D01*
%TO.N,E2*%
X108585000Y-153845000D02*
X110490000Y-151940000D01*
X110490000Y-151940000D02*
X110490000Y-144780000D01*
%TO.N,F#1*%
X82550000Y-153210000D02*
X82550000Y-144780000D01*
X83185000Y-153845000D02*
X82550000Y-153210000D01*
%TO.N,G1*%
X85090000Y-153210000D02*
X85090000Y-144780000D01*
X85725000Y-153845000D02*
X85090000Y-153210000D01*
%TO.N,D2*%
X105410000Y-144780000D02*
X105410000Y-151940000D01*
X105410000Y-151940000D02*
X103505000Y-153845000D01*
%TO.N,F2*%
X113030000Y-151940000D02*
X113030000Y-146050000D01*
X111125000Y-153845000D02*
X113030000Y-151940000D01*
X113030000Y-146050000D02*
X114300000Y-144780000D01*
%TO.N,B1*%
X96520000Y-153210000D02*
X95885000Y-153845000D01*
X96520000Y-144780000D02*
X96520000Y-153210000D01*
%TO.N,A#2*%
X123825000Y-153845000D02*
X125730000Y-151940000D01*
X125730000Y-151940000D02*
X127000000Y-151940000D01*
X128270000Y-150670000D02*
X128270000Y-144780000D01*
X127000000Y-151940000D02*
X128270000Y-150670000D01*
%TO.N,C#2*%
X100965000Y-153845000D02*
X101600000Y-153210000D01*
X101600000Y-146050000D02*
X102870000Y-144780000D01*
X101600000Y-153210000D02*
X101600000Y-146050000D01*
%TO.N,A1*%
X90805000Y-153845000D02*
X90805000Y-145415000D01*
X90805000Y-145415000D02*
X91440000Y-144780000D01*
%TO.N,G#1*%
X87630000Y-153210000D02*
X87630000Y-144780000D01*
X88265000Y-153845000D02*
X87630000Y-153210000D01*
%TO.N,F#2*%
X113665000Y-153845000D02*
X116840000Y-150670000D01*
X116840000Y-150670000D02*
X116840000Y-144780000D01*
%TO.N,G#2*%
X121920000Y-150670000D02*
X121920000Y-144780000D01*
X118745000Y-153845000D02*
X121920000Y-150670000D01*
%TO.N,B2*%
X126365000Y-153845000D02*
X128270000Y-151940000D01*
X130810000Y-150035000D02*
X130810000Y-144780000D01*
X128905000Y-151940000D02*
X130810000Y-150035000D01*
X128270000Y-151940000D02*
X128905000Y-151940000D01*
%TO.N,G2*%
X116205000Y-153845000D02*
X119380000Y-150670000D01*
X119380000Y-150670000D02*
X119380000Y-144780000D01*
%TO.N,D#2*%
X106045000Y-153845000D02*
X107950000Y-151940000D01*
X107950000Y-151940000D02*
X107950000Y-144780000D01*
D22*
%TO.N,Net-(Q1-C)*%
X58815000Y-100985000D02*
X58815000Y-111125000D01*
%TO.N,Net-(Q2-C)*%
X52705000Y-110490000D02*
X52705000Y-120600000D01*
%TO.N,Net-(Q3-C)*%
X84215000Y-101010000D02*
X84215000Y-111125000D01*
%TO.N,Net-(Q4-C)*%
X65165000Y-110485000D02*
X65165000Y-120600000D01*
%TO.N,Net-(Q5-C)*%
X71515000Y-101010000D02*
X71515000Y-111125000D01*
%TO.N,Net-(Q6-C)*%
X77865000Y-110485000D02*
X77865000Y-120600000D01*
%TO.N,Net-(Q7-C)*%
X109615000Y-101010000D02*
X109615000Y-111125000D01*
%TO.N,Net-(Q8-C)*%
X115965000Y-110540000D02*
X115965000Y-120650000D01*
%TO.N,Net-(Q9-C)*%
X122315000Y-101010000D02*
X122315000Y-111125000D01*
%TO.N,Net-(Q10-C)*%
X90565000Y-110490000D02*
X90565000Y-120650000D01*
%TO.N,Net-(Q11-C)*%
X96915000Y-100990000D02*
X96915000Y-111125000D01*
%TO.N,Net-(Q12-C)*%
X103265000Y-110535000D02*
X103265000Y-120650000D01*
%TO.N,Net-(Q13-C)*%
X128665000Y-110485000D02*
X128665000Y-120600000D01*
%TO.N,Net-(Q14-C)*%
X135015000Y-101010000D02*
X135015000Y-111125000D01*
%TO.N,Net-(Q15-C)*%
X141605000Y-110490000D02*
X141605000Y-120600000D01*
%TO.N,Net-(Q16-C)*%
X147955000Y-100965000D02*
X147955000Y-111100000D01*
D21*
%TO.N,Net-(Q17-C)*%
X154305000Y-120650000D02*
X154305000Y-110490000D01*
D22*
%TO.N,Net-(Q18-C)*%
X160655000Y-100965000D02*
X160655000Y-111075000D01*
%TO.N,Net-(Q19-C)*%
X167005000Y-110490000D02*
X167005000Y-120600000D01*
%TO.N,Net-(Q20-C)*%
X173355000Y-100965000D02*
X173355000Y-111100000D01*
D21*
%TO.N,Net-(Q1-B)*%
X66040000Y-124865500D02*
X63270500Y-124865500D01*
X56515000Y-118110000D02*
X56515000Y-111125000D01*
X63270500Y-124865500D02*
X56515000Y-118110000D01*
%TO.N,Net-(Q2-B)*%
X54765500Y-124960500D02*
X60960000Y-124960500D01*
X50405000Y-120600000D02*
X54765500Y-124960500D01*
%TO.N,Net-(Q3-B)*%
X86360000Y-124815500D02*
X81915000Y-120370500D01*
X81915000Y-120370500D02*
X81915000Y-111125000D01*
%TO.N,Net-(Q4-B)*%
X70274500Y-123875000D02*
X71120000Y-124720500D01*
X62865000Y-120600000D02*
X66140000Y-123875000D01*
X66140000Y-123875000D02*
X70274500Y-123875000D01*
%TO.N,Net-(Q5-B)*%
X75190500Y-124720500D02*
X69215000Y-118745000D01*
X76200000Y-124720500D02*
X75190500Y-124720500D01*
X69215000Y-118745000D02*
X69215000Y-111125000D01*
%TO.N,Net-(Q6-B)*%
X75565000Y-121920000D02*
X78365500Y-124720500D01*
X78365500Y-124720500D02*
X81280000Y-124720500D01*
X75565000Y-120600000D02*
X75565000Y-121920000D01*
%TO.N,Net-(Q7-B)*%
X106680000Y-124720500D02*
X107315000Y-124085500D01*
X107315000Y-124085500D02*
X107315000Y-111125000D01*
%TO.N,Net-(Q8-B)*%
X111760000Y-122555000D02*
X113665000Y-120650000D01*
X111760000Y-124670500D02*
X111760000Y-122555000D01*
%TO.N,Net-(Q9-B)*%
X117264500Y-124670500D02*
X120015000Y-121920000D01*
X120015000Y-121920000D02*
X120015000Y-111125000D01*
X116840000Y-124670500D02*
X117264500Y-124670500D01*
%TO.N,Net-(Q10-B)*%
X88265000Y-123825000D02*
X88265000Y-120650000D01*
X89160500Y-124720500D02*
X88265000Y-123825000D01*
X91440000Y-124720500D02*
X89160500Y-124720500D01*
%TO.N,Net-(Q11-B)*%
X96520000Y-124720500D02*
X94615000Y-122815500D01*
X94615000Y-122815500D02*
X94615000Y-111125000D01*
%TO.N,Net-(Q12-B)*%
X101600000Y-124720500D02*
X101600000Y-121285000D01*
X101600000Y-121285000D02*
X100965000Y-120650000D01*
%TO.N,Net-(Q13-B)*%
X122294500Y-124670500D02*
X126365000Y-120600000D01*
X121920000Y-124670500D02*
X122294500Y-124670500D01*
%TO.N,Net-(Q14-B)*%
X132715000Y-120932582D02*
X132715000Y-111125000D01*
X128977082Y-124670500D02*
X132715000Y-120932582D01*
X127000000Y-124670500D02*
X128977082Y-124670500D01*
%TO.N,Net-(Q15-B)*%
X135940000Y-120600000D02*
X139305000Y-120600000D01*
X132080000Y-124460000D02*
X135940000Y-120600000D01*
X132080000Y-124670500D02*
X132080000Y-124460000D01*
%TO.N,Net-(Q16-B)*%
X141605000Y-122555000D02*
X144780000Y-122555000D01*
X145655000Y-121680000D02*
X145655000Y-111100000D01*
X144780000Y-122555000D02*
X145655000Y-121680000D01*
X139489500Y-124670500D02*
X141605000Y-122555000D01*
X137160000Y-124670500D02*
X139489500Y-124670500D01*
%TO.N,Net-(Q17-B)*%
X143486158Y-124670500D02*
X144966658Y-123190000D01*
X142240000Y-124670500D02*
X143486158Y-124670500D01*
X144966658Y-123190000D02*
X148590000Y-123190000D01*
X148590000Y-123190000D02*
X151130000Y-120650000D01*
X151130000Y-120650000D02*
X152005000Y-120650000D01*
%TO.N,Net-(Q18-B)*%
X158355000Y-121680000D02*
X158355000Y-111075000D01*
X149014500Y-124670500D02*
X151130000Y-122555000D01*
X147320000Y-124670500D02*
X149014500Y-124670500D01*
X151130000Y-122555000D02*
X157480000Y-122555000D01*
X157480000Y-122555000D02*
X158355000Y-121680000D01*
%TO.N,Net-(Q19-B)*%
X153459500Y-124670500D02*
X154940000Y-123190000D01*
X152400000Y-124670500D02*
X153459500Y-124670500D01*
X160655000Y-123190000D02*
X163245000Y-120600000D01*
X163245000Y-120600000D02*
X164705000Y-120600000D01*
X154940000Y-123190000D02*
X160655000Y-123190000D01*
%TO.N,Net-(Q20-B)*%
X171055000Y-120932582D02*
X171055000Y-111100000D01*
X157480000Y-124575500D02*
X167412082Y-124575500D01*
X167412082Y-124575500D02*
X171055000Y-120932582D01*
%TO.N,Net-(R1-Pad2)*%
X83820000Y-144780000D02*
X83820000Y-147400000D01*
%TO.N,Net-(R2-Pad2)*%
X81280000Y-144780000D02*
X81280000Y-147400000D01*
%TO.N,Net-(R3-Pad2)*%
X88900000Y-144780000D02*
X88900000Y-147400000D01*
%TO.N,Net-(R4-Pad2)*%
X95250000Y-144780000D02*
X95250000Y-147400000D01*
%TO.N,Net-(R5-Pad2)*%
X86360000Y-144780000D02*
X86360000Y-147400000D01*
%TO.N,Net-(R6-Pad2)*%
X92710000Y-144780000D02*
X92710000Y-147400000D01*
%TO.N,Net-(R7-Pad1)*%
X82017499Y-135890000D02*
X83820000Y-137692501D01*
X83820000Y-137692501D02*
X83820000Y-138605000D01*
X66675000Y-135890000D02*
X82017499Y-135890000D01*
X66040000Y-126865500D02*
X66040000Y-135255000D01*
X66040000Y-135255000D02*
X66675000Y-135890000D01*
%TO.N,Net-(R8-Pad1)*%
X60960000Y-136525000D02*
X61595000Y-137160000D01*
X60960000Y-126960500D02*
X60960000Y-136525000D01*
X81280000Y-138175936D02*
X81280000Y-138605000D01*
X61595000Y-137160000D02*
X80264064Y-137160000D01*
X80264064Y-137160000D02*
X81280000Y-138175936D01*
%TO.N,Net-(R9-Pad1)*%
X86995000Y-130810000D02*
X88367499Y-130810000D01*
X88367499Y-130810000D02*
X95250000Y-137692501D01*
X86360000Y-130175000D02*
X86995000Y-130810000D01*
X95250000Y-137692501D02*
X95250000Y-138605000D01*
X86360000Y-126815500D02*
X86360000Y-130175000D01*
%TO.N,Net-(R10-Pad1)*%
X86360000Y-137692501D02*
X86360000Y-138605000D01*
X71755000Y-134674000D02*
X83341499Y-134674000D01*
X71755000Y-134620000D02*
X71755000Y-134674000D01*
X83341499Y-134674000D02*
X86360000Y-137692501D01*
X71120000Y-126720500D02*
X71120000Y-133985000D01*
X71120000Y-133985000D02*
X71755000Y-134620000D01*
%TO.N,Net-(R11-Pad1)*%
X76200000Y-126720500D02*
X76200000Y-132715000D01*
X88900000Y-138140843D02*
X88900000Y-138605000D01*
X84109157Y-133350000D02*
X88900000Y-138140843D01*
X76835000Y-133350000D02*
X84109157Y-133350000D01*
X76200000Y-132715000D02*
X76835000Y-133350000D01*
%TO.N,Net-(R12-Pad1)*%
X90170000Y-136525000D02*
X91542499Y-136525000D01*
X85725000Y-132080000D02*
X90170000Y-136525000D01*
X81280000Y-126720500D02*
X81280000Y-131445000D01*
X92710000Y-137692501D02*
X92710000Y-138605000D01*
X81280000Y-131445000D02*
X81915000Y-132080000D01*
X91542499Y-136525000D02*
X92710000Y-137692501D01*
X81915000Y-132080000D02*
X85725000Y-132080000D01*
%TO.N,Net-(R13-Pad2)*%
X106680000Y-144780000D02*
X106680000Y-147495000D01*
%TO.N,Net-(R14-Pad2)*%
X109220000Y-144780000D02*
X109220000Y-147495000D01*
%TO.N,Net-(R15-Pad2)*%
X111760000Y-144780000D02*
X111760000Y-147495000D01*
%TO.N,Net-(R16-Pad2)*%
X97790000Y-144780000D02*
X97790000Y-147400000D01*
%TO.N,Net-(R17-Pad2)*%
X100330000Y-144780000D02*
X100330000Y-147400000D01*
%TO.N,Net-(R18-Pad2)*%
X104140000Y-144780000D02*
X104140000Y-146765000D01*
%TO.N,Net-(R19-Pad1)*%
X106680000Y-126720500D02*
X106680000Y-138605000D01*
%TO.N,Net-(R20-Pad1)*%
X109220000Y-130175000D02*
X109220000Y-138605000D01*
X111760000Y-126670500D02*
X111760000Y-127635000D01*
X111760000Y-127635000D02*
X109220000Y-130175000D01*
%TO.N,Net-(R21-Pad1)*%
X111760000Y-130175000D02*
X111760000Y-138605000D01*
X116205000Y-129540000D02*
X112395000Y-129540000D01*
X112395000Y-129540000D02*
X111760000Y-130175000D01*
X116840000Y-126670500D02*
X116840000Y-128905000D01*
X116840000Y-128905000D02*
X116205000Y-129540000D01*
%TO.N,Net-(R22-Pad1)*%
X91440000Y-131445000D02*
X97790000Y-137795000D01*
X97790000Y-137795000D02*
X97790000Y-138605000D01*
X91440000Y-126720500D02*
X91440000Y-131445000D01*
%TO.N,Net-(R23-Pad1)*%
X100330000Y-137795000D02*
X100330000Y-138605000D01*
X96520000Y-126720500D02*
X96520000Y-133985000D01*
X96520000Y-133985000D02*
X100330000Y-137795000D01*
%TO.N,Net-(R24-Pad1)*%
X101600000Y-135890000D02*
X102235000Y-136525000D01*
X104140000Y-137795000D02*
X104140000Y-138605000D01*
X102235000Y-136525000D02*
X102870000Y-136525000D01*
X101600000Y-126720500D02*
X101600000Y-135890000D01*
X102870000Y-136525000D02*
X104140000Y-137795000D01*
%TO.N,Net-(R25-Pad2)*%
X115570000Y-144780000D02*
X115570000Y-147495000D01*
%TO.N,Net-(R26-Pad2)*%
X118110000Y-144780000D02*
X118110000Y-147495000D01*
%TO.N,Net-(R27-Pad2)*%
X120650000Y-144780000D02*
X120650000Y-147495000D01*
%TO.N,Net-(R28-Pad2)*%
X123190000Y-144780000D02*
X123190000Y-147495000D01*
%TO.N,Net-(R29-Pad1)*%
X115570000Y-133350000D02*
X115570000Y-138605000D01*
X121920000Y-127000000D02*
X115570000Y-133350000D01*
X121920000Y-126670500D02*
X121920000Y-127000000D01*
%TO.N,Net-(R30-Pad1)*%
X118110000Y-133350000D02*
X118110000Y-138605000D01*
X126365000Y-128905000D02*
X122555000Y-128905000D01*
X122555000Y-128905000D02*
X118110000Y-133350000D01*
X127000000Y-126670500D02*
X127000000Y-128270000D01*
X127000000Y-128270000D02*
X126365000Y-128905000D01*
%TO.N,Net-(R31-Pad1)*%
X132080000Y-127000000D02*
X128905000Y-130175000D01*
X132080000Y-126670500D02*
X132080000Y-127000000D01*
X128905000Y-130175000D02*
X124460000Y-130175000D01*
X124460000Y-130175000D02*
X120650000Y-133985000D01*
X120650000Y-133985000D02*
X120650000Y-138605000D01*
%TO.N,Net-(R32-Pad1)*%
X126365000Y-131445000D02*
X123190000Y-134620000D01*
X135890000Y-129540000D02*
X132080000Y-129540000D01*
X137160000Y-126670500D02*
X137160000Y-128270000D01*
X123190000Y-134620000D02*
X123190000Y-138605000D01*
X132080000Y-129540000D02*
X130175000Y-131445000D01*
X137160000Y-128270000D02*
X135890000Y-129540000D01*
X130175000Y-131445000D02*
X126365000Y-131445000D01*
%TO.N,Net-(R33-Pad2)*%
X127000000Y-144780000D02*
X127000000Y-147495000D01*
%TO.N,Net-(R34-Pad2)*%
X129540000Y-144780000D02*
X129540000Y-147495000D01*
%TO.N,Net-(R35-Pad2)*%
X132080000Y-144780000D02*
X132080000Y-147495000D01*
%TO.N,Net-(R36-Pad2)*%
X134620000Y-144780000D02*
X134620000Y-147495000D01*
%TO.N,Net-(R37-Pad1)*%
X133843172Y-130849329D02*
X139025671Y-130849329D01*
X139025671Y-130849329D02*
X142240000Y-127635000D01*
X127000000Y-137692501D02*
X133843172Y-130849329D01*
X142240000Y-127635000D02*
X142240000Y-126670500D01*
X127000000Y-138605000D02*
X127000000Y-137692501D01*
%TO.N,Net-(R38-Pad1)*%
X147320000Y-127000000D02*
X147320000Y-126670500D01*
X141605000Y-132715000D02*
X147320000Y-127000000D01*
X134517501Y-132715000D02*
X141605000Y-132715000D01*
X129540000Y-138605000D02*
X129540000Y-137692501D01*
X129540000Y-137692501D02*
X134517501Y-132715000D01*
%TO.N,Net-(R39-Pad1)*%
X135895501Y-133877000D02*
X146158000Y-133877000D01*
X132080000Y-137692501D02*
X135895501Y-133877000D01*
X152400000Y-127635000D02*
X152400000Y-126670500D01*
X146158000Y-133877000D02*
X152400000Y-127635000D01*
X132080000Y-138605000D02*
X132080000Y-137692501D01*
%TO.N,Net-(R40-Pad1)*%
X137795000Y-135255000D02*
X149400500Y-135255000D01*
X134620000Y-138430000D02*
X137795000Y-135255000D01*
X149400500Y-135255000D02*
X157480000Y-127175500D01*
X157480000Y-127175500D02*
X157480000Y-126575500D01*
X134620000Y-138605000D02*
X134620000Y-138430000D01*
%TD*%
M02*
