%TF.GenerationSoftware,KiCad,Pcbnew,9.0.0*%
%TF.CreationDate,2025-03-11T14:00:59-06:00*%
%TF.ProjectId,Solenoid Breakout Board,536f6c65-6e6f-4696-9420-427265616b6f,rev?*%
%TF.SameCoordinates,Original*%
%TF.FileFunction,Soldermask,Bot*%
%TF.FilePolarity,Negative*%
%FSLAX46Y46*%
G04 Gerber Fmt 4.6, Leading zero omitted, Abs format (unit mm)*
G04 Created by KiCad (PCBNEW 9.0.0) date 2025-03-11 14:00:59*
%MOMM*%
%LPD*%
G01*
G04 APERTURE LIST*
G04 Aperture macros list*
%AMRoundRect*
0 Rectangle with rounded corners*
0 $1 Rounding radius*
0 $2 $3 $4 $5 $6 $7 $8 $9 X,Y pos of 4 corners*
0 Add a 4 corners polygon primitive as box body*
4,1,4,$2,$3,$4,$5,$6,$7,$8,$9,$2,$3,0*
0 Add four circle primitives for the rounded corners*
1,1,$1+$1,$2,$3*
1,1,$1+$1,$4,$5*
1,1,$1+$1,$6,$7*
1,1,$1+$1,$8,$9*
0 Add four rect primitives between the rounded corners*
20,1,$1+$1,$2,$3,$4,$5,0*
20,1,$1+$1,$4,$5,$6,$7,0*
20,1,$1+$1,$6,$7,$8,$9,0*
20,1,$1+$1,$8,$9,$2,$3,0*%
G04 Aperture macros list end*
%ADD10C,2.311400*%
%ADD11R,1.700000X1.700000*%
%ADD12O,1.700000X1.700000*%
%ADD13RoundRect,0.250000X0.450000X-0.350000X0.450000X0.350000X-0.450000X0.350000X-0.450000X-0.350000X0*%
%ADD14RoundRect,0.375000X0.375000X-0.625000X0.375000X0.625000X-0.375000X0.625000X-0.375000X-0.625000X0*%
%ADD15RoundRect,1.746250X-1.746250X-1.746250X1.746250X-1.746250X1.746250X1.746250X-1.746250X1.746250X0*%
G04 APERTURE END LIST*
D10*
%TO.C,POWER*%
X175895000Y-129540000D03*
X175895000Y-124460000D03*
%TD*%
D11*
%TO.C,L16*%
X147955000Y-98425000D03*
D12*
X147955000Y-100965000D03*
%TD*%
D11*
%TO.C,L10*%
X90565000Y-107950000D03*
D12*
X90565000Y-110490000D03*
%TD*%
D13*
%TO.C,R35*%
X132080000Y-149495000D03*
%TD*%
D11*
%TO.C,L8*%
X115965000Y-108000000D03*
D12*
X115965000Y-110540000D03*
%TD*%
D11*
%TO.C,L9*%
X122315000Y-98470000D03*
D12*
X122315000Y-101010000D03*
%TD*%
D14*
%TO.C,Q16*%
X150255000Y-111100000D03*
%TD*%
D11*
%TO.C,L11*%
X96915000Y-98450000D03*
D12*
X96915000Y-100990000D03*
%TD*%
D15*
%TO.C,REF\u002A\u002A*%
X176530000Y-91440000D03*
%TD*%
D11*
%TO.C,Power Out*%
X46990000Y-98425000D03*
D12*
X46990000Y-100965000D03*
%TD*%
D14*
%TO.C,Q10*%
X92865000Y-120650000D03*
%TD*%
D13*
%TO.C,R33*%
X127000000Y-149495000D03*
%TD*%
D11*
%TO.C,L13*%
X128665000Y-107945000D03*
D12*
X128665000Y-110485000D03*
%TD*%
D14*
%TO.C,Q1*%
X61115000Y-111125000D03*
%TD*%
%TO.C,Q4*%
X67465000Y-120600000D03*
%TD*%
%TO.C,Q20*%
X175655000Y-111100000D03*
%TD*%
%TO.C,Q3*%
X86515000Y-111125000D03*
%TD*%
D11*
%TO.C,L15*%
X141605000Y-107950000D03*
D12*
X141605000Y-110490000D03*
%TD*%
D14*
%TO.C,Q15*%
X143905000Y-120600000D03*
%TD*%
D13*
%TO.C,R1*%
X83820000Y-149400000D03*
%TD*%
%TO.C,R25*%
X115570000Y-149495000D03*
%TD*%
%TO.C,R27*%
X120650000Y-149495000D03*
%TD*%
%TO.C,R34*%
X129540000Y-149495000D03*
%TD*%
D11*
%TO.C,L1*%
X58815000Y-98445000D03*
D12*
X58815000Y-100985000D03*
%TD*%
D14*
%TO.C,Q18*%
X162955000Y-111075000D03*
%TD*%
D13*
%TO.C,R36*%
X134620000Y-149495000D03*
%TD*%
D10*
%TO.C,POWER*%
X48895000Y-124460000D03*
X48895000Y-129540000D03*
%TD*%
D11*
%TO.C,L20*%
X173355000Y-98425000D03*
D12*
X173355000Y-100965000D03*
%TD*%
D14*
%TO.C,Q7*%
X111915000Y-111125000D03*
%TD*%
D11*
%TO.C,L17*%
X154305000Y-107950000D03*
D12*
X154305000Y-110490000D03*
%TD*%
D14*
%TO.C,Q5*%
X73815000Y-111125000D03*
%TD*%
D11*
%TO.C,L19*%
X167005000Y-107950000D03*
D12*
X167005000Y-110490000D03*
%TD*%
D13*
%TO.C,R17*%
X100330000Y-149400000D03*
%TD*%
D14*
%TO.C,Q6*%
X80165000Y-120600000D03*
%TD*%
D11*
%TO.C,L7*%
X109615000Y-98470000D03*
D12*
X109615000Y-101010000D03*
%TD*%
D13*
%TO.C,R2*%
X81280000Y-149400000D03*
%TD*%
%TO.C,R4*%
X95250000Y-149400000D03*
%TD*%
D15*
%TO.C,REF\u002A\u002A*%
X48260000Y-91440000D03*
%TD*%
D14*
%TO.C,Q2*%
X55005000Y-120600000D03*
%TD*%
D11*
%TO.C,L2*%
X52705000Y-107950000D03*
D12*
X52705000Y-110490000D03*
%TD*%
D14*
%TO.C,Q11*%
X99215000Y-111125000D03*
%TD*%
D11*
%TO.C,L12*%
X103265000Y-107995000D03*
D12*
X103265000Y-110535000D03*
%TD*%
D11*
%TO.C,J1*%
X80645000Y-153670000D03*
D12*
X83185000Y-153670000D03*
X85725000Y-153670000D03*
X88265000Y-153670000D03*
X90805000Y-153670000D03*
X93345000Y-153670000D03*
X95885000Y-153670000D03*
X98425000Y-153670000D03*
X100965000Y-153670000D03*
X103505000Y-153670000D03*
X106045000Y-153670000D03*
X108585000Y-153670000D03*
X111125000Y-153670000D03*
X113665000Y-153670000D03*
X116205000Y-153670000D03*
X118745000Y-153670000D03*
X121285000Y-153670000D03*
X123825000Y-153670000D03*
X126365000Y-153670000D03*
X128905000Y-153670000D03*
X131445000Y-153670000D03*
%TD*%
D13*
%TO.C,R3*%
X88900000Y-149400000D03*
%TD*%
D14*
%TO.C,Q8*%
X118265000Y-120650000D03*
%TD*%
D13*
%TO.C,R13*%
X106680000Y-149495000D03*
%TD*%
%TO.C,R26*%
X118110000Y-149495000D03*
%TD*%
D14*
%TO.C,Q17*%
X156605000Y-120650000D03*
%TD*%
D13*
%TO.C,R16*%
X97790000Y-149400000D03*
%TD*%
D11*
%TO.C,L5*%
X71515000Y-98470000D03*
D12*
X71515000Y-101010000D03*
%TD*%
D14*
%TO.C,Q12*%
X105565000Y-120650000D03*
%TD*%
D13*
%TO.C,R5*%
X86360000Y-149400000D03*
%TD*%
D11*
%TO.C,L6*%
X77865000Y-107945000D03*
D12*
X77865000Y-110485000D03*
%TD*%
D14*
%TO.C,Q14*%
X137315000Y-111125000D03*
%TD*%
D11*
%TO.C,L3*%
X84215000Y-98470000D03*
D12*
X84215000Y-101010000D03*
%TD*%
D14*
%TO.C,Q9*%
X124615000Y-111125000D03*
%TD*%
D15*
%TO.C,REF\u002A\u002A*%
X176530000Y-151765000D03*
%TD*%
D13*
%TO.C,R18*%
X104140000Y-149400000D03*
%TD*%
D14*
%TO.C,Q13*%
X130965000Y-120600000D03*
%TD*%
%TO.C,Q19*%
X169305000Y-120600000D03*
%TD*%
D13*
%TO.C,R28*%
X123190000Y-149495000D03*
%TD*%
%TO.C,R6*%
X92710000Y-149400000D03*
%TD*%
%TO.C,R14*%
X109220000Y-149495000D03*
%TD*%
%TO.C,R15*%
X111760000Y-149495000D03*
%TD*%
D15*
%TO.C,REF\u002A\u002A*%
X48260000Y-151765000D03*
%TD*%
D11*
%TO.C,L4*%
X65165000Y-107945000D03*
D12*
X65165000Y-110485000D03*
%TD*%
D11*
%TO.C,L18*%
X160655000Y-98425000D03*
D12*
X160655000Y-100965000D03*
%TD*%
D11*
%TO.C,L14*%
X135015000Y-98470000D03*
D12*
X135015000Y-101010000D03*
%TD*%
M02*
