%TF.GenerationSoftware,KiCad,Pcbnew,9.0.0*%
%TF.CreationDate,2025-04-04T13:00:52-06:00*%
%TF.ProjectId,High Power Class AB,48696768-2050-46f7-9765-7220436c6173,rev?*%
%TF.SameCoordinates,Original*%
%TF.FileFunction,Plated,1,2,PTH,Mixed*%
%TF.FilePolarity,Positive*%
%FSLAX46Y46*%
G04 Gerber Fmt 4.6, Leading zero omitted, Abs format (unit mm)*
G04 Created by KiCad (PCBNEW 9.0.0) date 2025-04-04 13:00:52*
%MOMM*%
%LPD*%
G01*
G04 APERTURE LIST*
%TA.AperFunction,ViaDrill*%
%ADD10C,0.300000*%
%TD*%
G04 aperture for slot hole*
%TA.AperFunction,ComponentDrill*%
%ADD11C,0.762000*%
%TD*%
%TA.AperFunction,ComponentDrill*%
%ADD12C,0.800000*%
%TD*%
%TA.AperFunction,ComponentDrill*%
%ADD13C,1.000000*%
%TD*%
%TA.AperFunction,ComponentDrill*%
%ADD14C,1.200000*%
%TD*%
%TA.AperFunction,ComponentDrill*%
%ADD15C,1.300000*%
%TD*%
%TA.AperFunction,ComponentDrill*%
%ADD16C,1.422400*%
%TD*%
%TA.AperFunction,ComponentDrill*%
%ADD17C,1.500000*%
%TD*%
%TA.AperFunction,ComponentDrill*%
%ADD18C,2.032000*%
%TD*%
%TA.AperFunction,ComponentDrill*%
%ADD19C,4.064000*%
%TD*%
G04 APERTURE END LIST*
D10*
X88900000Y-110490000D03*
X95250000Y-109220000D03*
X100330000Y-95250000D03*
X101600000Y-92710000D03*
X123190000Y-121920000D03*
X124460000Y-109855000D03*
X127000000Y-120650000D03*
X135890000Y-127635000D03*
D11*
%TO.C,J1*%
X143357600Y-78155800D02*
X143357600Y-79324200D01*
X143357600Y-84505800D02*
X143357600Y-85674200D01*
X145338800Y-70256400D02*
X145338800Y-71424800D01*
X147320000Y-84505800D02*
X147320000Y-85674200D01*
D12*
%TO.C,U2*%
X151765000Y-86995000D03*
X151765000Y-89535000D03*
X151765000Y-92075000D03*
X151765000Y-94615000D03*
X159385000Y-86995000D03*
X159385000Y-89535000D03*
X159385000Y-92075000D03*
X159385000Y-94615000D03*
D13*
%TO.C,C2*%
X88265000Y-86360000D03*
X93265000Y-86360000D03*
%TO.C,U1*%
X93980000Y-103570000D03*
%TO.C,C6*%
X100502323Y-86360000D03*
X105502323Y-86360000D03*
D14*
%TO.C,R7*%
X89535000Y-121285000D03*
%TO.C,D1*%
X104775000Y-112395000D03*
X117475000Y-112395000D03*
%TO.C,R7*%
X117475000Y-121285000D03*
%TO.C,R8*%
X139065000Y-120650000D03*
%TO.C,D2*%
X139700000Y-112395000D03*
X152400000Y-112395000D03*
%TO.C,R8*%
X167005000Y-120650000D03*
D15*
%TO.C,RV1*%
X92790000Y-70485000D03*
X97790000Y-70485000D03*
X102790000Y-70485000D03*
D16*
%TO.C,J3*%
X181610000Y-114935000D03*
X181610000Y-120015000D03*
D17*
%TO.C,Q2*%
X93980000Y-136735000D03*
X97790000Y-136735000D03*
X101600000Y-136735000D03*
X105410000Y-136735000D03*
X109220000Y-136735000D03*
%TO.C,Q3*%
X140970000Y-136525000D03*
X144780000Y-136525000D03*
X148590000Y-136525000D03*
X152400000Y-136525000D03*
X156210000Y-136525000D03*
D18*
%TO.C,J2*%
X78105000Y-76200000D03*
X78105000Y-81280000D03*
X78105000Y-86360000D03*
X78105000Y-91440000D03*
%TO.C,J4*%
X179705000Y-81915000D03*
X179705000Y-86995000D03*
X179705000Y-92075000D03*
X179705000Y-97155000D03*
D19*
%TO.C,REF\u002A\u002A*%
X75565000Y-67310000D03*
X75565000Y-136525000D03*
X182245000Y-67310000D03*
X182245000Y-136525000D03*
M02*
