%TF.GenerationSoftware,KiCad,Pcbnew,9.0.0*%
%TF.CreationDate,2025-04-04T13:00:48-06:00*%
%TF.ProjectId,High Power Class AB,48696768-2050-46f7-9765-7220436c6173,rev?*%
%TF.SameCoordinates,Original*%
%TF.FileFunction,Soldermask,Top*%
%TF.FilePolarity,Negative*%
%FSLAX46Y46*%
G04 Gerber Fmt 4.6, Leading zero omitted, Abs format (unit mm)*
G04 Created by KiCad (PCBNEW 9.0.0) date 2025-04-04 13:00:48*
%MOMM*%
%LPD*%
G01*
G04 APERTURE LIST*
G04 Aperture macros list*
%AMRoundRect*
0 Rectangle with rounded corners*
0 $1 Rounding radius*
0 $2 $3 $4 $5 $6 $7 $8 $9 X,Y pos of 4 corners*
0 Add a 4 corners polygon primitive as box body*
4,1,4,$2,$3,$4,$5,$6,$7,$8,$9,$2,$3,0*
0 Add four circle primitives for the rounded corners*
1,1,$1+$1,$2,$3*
1,1,$1+$1,$4,$5*
1,1,$1+$1,$6,$7*
1,1,$1+$1,$8,$9*
0 Add four rect primitives between the rounded corners*
20,1,$1+$1,$2,$3,$4,$5,0*
20,1,$1+$1,$4,$5,$6,$7,0*
20,1,$1+$1,$6,$7,$8,$9,0*
20,1,$1+$1,$8,$9,$2,$3,0*%
G04 Aperture macros list end*
%ADD10R,2.000000X2.000000*%
%ADD11C,2.000000*%
%ADD12C,2.921000*%
%ADD13RoundRect,1.746250X-1.746250X-1.746250X1.746250X-1.746250X1.746250X1.746250X-1.746250X1.746250X0*%
%ADD14RoundRect,0.250000X-0.350000X-0.450000X0.350000X-0.450000X0.350000X0.450000X-0.350000X0.450000X0*%
%ADD15R,1.524000X2.692400*%
%ADD16R,2.400000X2.400000*%
%ADD17O,2.400000X2.400000*%
%ADD18C,2.400000*%
%ADD19C,2.311400*%
%ADD20RoundRect,0.250000X0.450000X-0.350000X0.450000X0.350000X-0.450000X0.350000X-0.450000X-0.350000X0*%
%ADD21RoundRect,0.250000X-0.337500X-0.475000X0.337500X-0.475000X0.337500X0.475000X-0.337500X0.475000X0*%
%ADD22RoundRect,0.100000X0.100000X-0.650000X0.100000X0.650000X-0.100000X0.650000X-0.100000X-0.650000X0*%
%ADD23RoundRect,0.150000X-0.150000X0.825000X-0.150000X-0.825000X0.150000X-0.825000X0.150000X0.825000X0*%
%ADD24R,3.500000X2.300000*%
%ADD25R,2.500000X4.500000*%
%ADD26O,2.500000X4.500000*%
%ADD27RoundRect,0.250000X-0.550000X-0.550000X0.550000X-0.550000X0.550000X0.550000X-0.550000X0.550000X0*%
%ADD28C,1.600000*%
%ADD29RoundRect,0.250000X0.350000X0.450000X-0.350000X0.450000X-0.350000X-0.450000X0.350000X-0.450000X0*%
%ADD30RoundRect,0.250000X0.337500X0.475000X-0.337500X0.475000X-0.337500X-0.475000X0.337500X-0.475000X0*%
%ADD31C,2.340000*%
%ADD32RoundRect,0.250000X-0.450000X0.350000X-0.450000X-0.350000X0.450000X-0.350000X0.450000X0.350000X0*%
G04 APERTURE END LIST*
D10*
%TO.C,C6*%
X100502323Y-86360000D03*
D11*
X105502323Y-86360000D03*
%TD*%
D12*
%TO.C,J4*%
X179705000Y-81915000D03*
X179705000Y-86995000D03*
X179705000Y-92075000D03*
X179705000Y-97155000D03*
%TD*%
D13*
%TO.C,REF\u002A\u002A*%
X182245000Y-136525000D03*
%TD*%
D14*
%TO.C,R1*%
X83090000Y-100965000D03*
X85090000Y-100965000D03*
%TD*%
D12*
%TO.C,J2*%
X78105000Y-91440000D03*
X78105000Y-86360000D03*
X78105000Y-81280000D03*
X78105000Y-76200000D03*
%TD*%
D15*
%TO.C,J1*%
X143357600Y-78740000D03*
X147320000Y-85090000D03*
X145338800Y-70840600D03*
X143357600Y-85090000D03*
%TD*%
D16*
%TO.C,D2*%
X152400000Y-112395000D03*
D17*
X139700000Y-112395000D03*
%TD*%
D18*
%TO.C,R7*%
X117475000Y-121285000D03*
D17*
X89535000Y-121285000D03*
%TD*%
D19*
%TO.C,J3*%
X181610000Y-120015000D03*
X181610000Y-114935000D03*
%TD*%
D20*
%TO.C,R6*%
X135890000Y-116300000D03*
X135890000Y-114300000D03*
%TD*%
D21*
%TO.C,C4*%
X98890000Y-99060000D03*
X100965000Y-99060000D03*
%TD*%
D22*
%TO.C,Q1*%
X126350000Y-113785000D03*
X127000000Y-113785000D03*
X127650000Y-113785000D03*
X127650000Y-111125000D03*
X127000000Y-111125000D03*
X126350000Y-111125000D03*
%TD*%
D23*
%TO.C,U1*%
X95885000Y-101095000D03*
X94615000Y-101095000D03*
X93345000Y-101095000D03*
X92075000Y-101095000D03*
D24*
X93980000Y-103570000D03*
D23*
X92075000Y-106045000D03*
X93345000Y-106045000D03*
X94615000Y-106045000D03*
X95885000Y-106045000D03*
%TD*%
D25*
%TO.C,Q3*%
X140970000Y-136525000D03*
D26*
X144780000Y-136525000D03*
X148590000Y-136525000D03*
X152400000Y-136525000D03*
X156210000Y-136525000D03*
%TD*%
D13*
%TO.C,REF\u002A\u002A*%
X182245000Y-67310000D03*
%TD*%
D27*
%TO.C,U2*%
X151765000Y-86995000D03*
D28*
X151765000Y-89535000D03*
X151765000Y-92075000D03*
X151765000Y-94615000D03*
X159385000Y-94615000D03*
X159385000Y-92075000D03*
X159385000Y-89535000D03*
X159385000Y-86995000D03*
%TD*%
D13*
%TO.C,REF\u002A\u002A*%
X75565000Y-136525000D03*
%TD*%
D29*
%TO.C,R2*%
X85090000Y-104140000D03*
X83090000Y-104140000D03*
%TD*%
D21*
%TO.C,C5*%
X88497500Y-75565000D03*
X90572500Y-75565000D03*
%TD*%
D25*
%TO.C,Q2*%
X93980000Y-136735000D03*
D26*
X97790000Y-136735000D03*
X101600000Y-136735000D03*
X105410000Y-136735000D03*
X109220000Y-136735000D03*
%TD*%
D30*
%TO.C,C3*%
X85090000Y-97790000D03*
X83015000Y-97790000D03*
%TD*%
D31*
%TO.C,RV1*%
X102790000Y-70485000D03*
X97790000Y-70485000D03*
X92790000Y-70485000D03*
%TD*%
D32*
%TO.C,R4*%
X97155000Y-74835000D03*
X97155000Y-76835000D03*
%TD*%
D10*
%TO.C,C2*%
X88265000Y-86360000D03*
D11*
X93265000Y-86360000D03*
%TD*%
D14*
%TO.C,R9*%
X151555000Y-98135000D03*
X153555000Y-98135000D03*
%TD*%
D13*
%TO.C,REF\u002A\u002A*%
X75565000Y-67310000D03*
%TD*%
D18*
%TO.C,R8*%
X167005000Y-120650000D03*
D17*
X139065000Y-120650000D03*
%TD*%
D29*
%TO.C,R3*%
X94980000Y-111125000D03*
X92980000Y-111125000D03*
%TD*%
D16*
%TO.C,D1*%
X117475000Y-112395000D03*
D17*
X104775000Y-112395000D03*
%TD*%
D32*
%TO.C,R5*%
X127000000Y-116745000D03*
X127000000Y-118745000D03*
%TD*%
M02*
