%TF.GenerationSoftware,KiCad,Pcbnew,9.0.0*%
%TF.CreationDate,2025-04-04T13:00:48-06:00*%
%TF.ProjectId,High Power Class AB,48696768-2050-46f7-9765-7220436c6173,rev?*%
%TF.SameCoordinates,Original*%
%TF.FileFunction,Copper,L1,Top*%
%TF.FilePolarity,Positive*%
%FSLAX46Y46*%
G04 Gerber Fmt 4.6, Leading zero omitted, Abs format (unit mm)*
G04 Created by KiCad (PCBNEW 9.0.0) date 2025-04-04 13:00:48*
%MOMM*%
%LPD*%
G01*
G04 APERTURE LIST*
G04 Aperture macros list*
%AMRoundRect*
0 Rectangle with rounded corners*
0 $1 Rounding radius*
0 $2 $3 $4 $5 $6 $7 $8 $9 X,Y pos of 4 corners*
0 Add a 4 corners polygon primitive as box body*
4,1,4,$2,$3,$4,$5,$6,$7,$8,$9,$2,$3,0*
0 Add four circle primitives for the rounded corners*
1,1,$1+$1,$2,$3*
1,1,$1+$1,$4,$5*
1,1,$1+$1,$6,$7*
1,1,$1+$1,$8,$9*
0 Add four rect primitives between the rounded corners*
20,1,$1+$1,$2,$3,$4,$5,0*
20,1,$1+$1,$4,$5,$6,$7,0*
20,1,$1+$1,$6,$7,$8,$9,0*
20,1,$1+$1,$8,$9,$2,$3,0*%
G04 Aperture macros list end*
%TA.AperFunction,ComponentPad*%
%ADD10R,2.000000X2.000000*%
%TD*%
%TA.AperFunction,ComponentPad*%
%ADD11C,2.000000*%
%TD*%
%TA.AperFunction,ComponentPad*%
%ADD12C,2.921000*%
%TD*%
%TA.AperFunction,ComponentPad*%
%ADD13RoundRect,1.746250X-1.746250X-1.746250X1.746250X-1.746250X1.746250X1.746250X-1.746250X1.746250X0*%
%TD*%
%TA.AperFunction,SMDPad,CuDef*%
%ADD14RoundRect,0.250000X-0.350000X-0.450000X0.350000X-0.450000X0.350000X0.450000X-0.350000X0.450000X0*%
%TD*%
%TA.AperFunction,ComponentPad*%
%ADD15R,1.524000X2.692400*%
%TD*%
%TA.AperFunction,ComponentPad*%
%ADD16R,2.400000X2.400000*%
%TD*%
%TA.AperFunction,ComponentPad*%
%ADD17O,2.400000X2.400000*%
%TD*%
%TA.AperFunction,ComponentPad*%
%ADD18C,2.400000*%
%TD*%
%TA.AperFunction,ComponentPad*%
%ADD19C,2.311400*%
%TD*%
%TA.AperFunction,SMDPad,CuDef*%
%ADD20RoundRect,0.250000X0.450000X-0.350000X0.450000X0.350000X-0.450000X0.350000X-0.450000X-0.350000X0*%
%TD*%
%TA.AperFunction,SMDPad,CuDef*%
%ADD21RoundRect,0.250000X-0.337500X-0.475000X0.337500X-0.475000X0.337500X0.475000X-0.337500X0.475000X0*%
%TD*%
%TA.AperFunction,SMDPad,CuDef*%
%ADD22RoundRect,0.100000X0.100000X-0.650000X0.100000X0.650000X-0.100000X0.650000X-0.100000X-0.650000X0*%
%TD*%
%TA.AperFunction,SMDPad,CuDef*%
%ADD23RoundRect,0.150000X-0.150000X0.825000X-0.150000X-0.825000X0.150000X-0.825000X0.150000X0.825000X0*%
%TD*%
%TA.AperFunction,ComponentPad*%
%ADD24R,3.500000X2.300000*%
%TD*%
%TA.AperFunction,ComponentPad*%
%ADD25R,2.500000X4.500000*%
%TD*%
%TA.AperFunction,ComponentPad*%
%ADD26O,2.500000X4.500000*%
%TD*%
%TA.AperFunction,ComponentPad*%
%ADD27RoundRect,0.250000X-0.550000X-0.550000X0.550000X-0.550000X0.550000X0.550000X-0.550000X0.550000X0*%
%TD*%
%TA.AperFunction,ComponentPad*%
%ADD28C,1.600000*%
%TD*%
%TA.AperFunction,SMDPad,CuDef*%
%ADD29RoundRect,0.250000X0.350000X0.450000X-0.350000X0.450000X-0.350000X-0.450000X0.350000X-0.450000X0*%
%TD*%
%TA.AperFunction,SMDPad,CuDef*%
%ADD30RoundRect,0.250000X0.337500X0.475000X-0.337500X0.475000X-0.337500X-0.475000X0.337500X-0.475000X0*%
%TD*%
%TA.AperFunction,ComponentPad*%
%ADD31C,2.340000*%
%TD*%
%TA.AperFunction,SMDPad,CuDef*%
%ADD32RoundRect,0.250000X-0.450000X0.350000X-0.450000X-0.350000X0.450000X-0.350000X0.450000X0.350000X0*%
%TD*%
%TA.AperFunction,ViaPad*%
%ADD33C,0.600000*%
%TD*%
%TA.AperFunction,Conductor*%
%ADD34C,0.381000*%
%TD*%
%TA.AperFunction,Conductor*%
%ADD35C,1.651000*%
%TD*%
G04 APERTURE END LIST*
D10*
%TO.P,C6,1,1*%
%TO.N,Earth_GND*%
X100502323Y-86360000D03*
D11*
%TO.P,C6,2,2*%
%TO.N,-40v*%
X105502323Y-86360000D03*
%TD*%
D12*
%TO.P,J4,1,1*%
%TO.N,+5v*%
X179705000Y-81915000D03*
%TO.P,J4,2,2*%
%TO.N,Earth_GND*%
X179705000Y-86995000D03*
%TO.P,J4,3,3*%
X179705000Y-92075000D03*
%TO.P,J4,4,4*%
%TO.N,-5v*%
X179705000Y-97155000D03*
%TD*%
D13*
%TO.P,REF\u002A\u002A,1*%
%TO.N,Earth_GND*%
X182245000Y-136525000D03*
%TD*%
D14*
%TO.P,R1,1,1*%
%TO.N,Earth_GND*%
X83090000Y-100965000D03*
%TO.P,R1,2,2*%
%TO.N,Net-(U1--)*%
X85090000Y-100965000D03*
%TD*%
D12*
%TO.P,J2,1,1*%
%TO.N,+40v*%
X78105000Y-91440000D03*
%TO.P,J2,2,2*%
%TO.N,Earth_GND*%
X78105000Y-86360000D03*
%TO.P,J2,3,3*%
X78105000Y-81280000D03*
%TO.P,J2,4,4*%
%TO.N,-40v*%
X78105000Y-76200000D03*
%TD*%
D15*
%TO.P,J1,4*%
%TO.N,N/C*%
X143357600Y-78740000D03*
%TO.P,J1,S*%
%TO.N,Earth_GND*%
X147320000Y-85090000D03*
X145338800Y-70840600D03*
%TO.P,J1,T*%
%TO.N,Net-(U2-+)*%
X143357600Y-85090000D03*
%TD*%
D16*
%TO.P,D2,1,A*%
%TO.N,Net-(D2-A)*%
X152400000Y-112395000D03*
D17*
%TO.P,D2,2,K*%
%TO.N,Net-(D2-K)*%
X139700000Y-112395000D03*
%TD*%
D18*
%TO.P,R7,1*%
%TO.N,Net-(Q2-Pad2)*%
X117475000Y-121285000D03*
D17*
%TO.P,R7,2*%
%TO.N,FB*%
X89535000Y-121285000D03*
%TD*%
D19*
%TO.P,J3,1,1*%
%TO.N,FB*%
X181610000Y-120015000D03*
%TO.P,J3,2,2*%
%TO.N,Earth_GND*%
X181610000Y-114935000D03*
%TD*%
D20*
%TO.P,R6,1,1*%
%TO.N,-40v*%
X135890000Y-116300000D03*
%TO.P,R6,2,2*%
%TO.N,Net-(D2-K)*%
X135890000Y-114300000D03*
%TD*%
D21*
%TO.P,C4,1*%
%TO.N,Earth_GND*%
X98890000Y-99060000D03*
%TO.P,C4,2*%
%TO.N,Net-(U1-E{slash}D_Com)*%
X100965000Y-99060000D03*
%TD*%
D22*
%TO.P,Q1,1*%
%TO.N,Net-(Q1-Pad1)*%
X126350000Y-113785000D03*
%TO.P,Q1,2*%
%TO.N,Net-(D1-A)*%
X127000000Y-113785000D03*
%TO.P,Q1,3*%
%TO.N,-40v*%
X127650000Y-113785000D03*
%TO.P,Q1,4*%
%TO.N,Net-(Q1-Pad4)*%
X127650000Y-111125000D03*
%TO.P,Q1,5*%
%TO.N,Net-(D2-K)*%
X127000000Y-111125000D03*
%TO.P,Q1,6*%
%TO.N,+40v*%
X126350000Y-111125000D03*
%TD*%
D23*
%TO.P,U1,1,E/D_Com*%
%TO.N,Net-(U1-E{slash}D_Com)*%
X95885000Y-101095000D03*
%TO.P,U1,2,-*%
%TO.N,Net-(U1--)*%
X94615000Y-101095000D03*
%TO.P,U1,3,+*%
%TO.N,Net-(U1-+)*%
X93345000Y-101095000D03*
%TO.P,U1,4,V-*%
%TO.N,-40v*%
X92075000Y-101095000D03*
D24*
X93980000Y-103570000D03*
D23*
%TO.P,U1,5,Status_Flag*%
%TO.N,Net-(U1-Status_Flag)*%
X92075000Y-106045000D03*
%TO.P,U1,6*%
%TO.N,Net-(Q2-Pad5)*%
X93345000Y-106045000D03*
%TO.P,U1,7,V+*%
%TO.N,+40v*%
X94615000Y-106045000D03*
%TO.P,U1,8,E/D*%
%TO.N,unconnected-(U1-E{slash}D-Pad8)*%
X95885000Y-106045000D03*
%TD*%
D25*
%TO.P,Q3,1*%
%TO.N,Net-(Q1-Pad4)*%
X140970000Y-136525000D03*
D26*
%TO.P,Q3,2*%
%TO.N,Net-(Q3-Pad2)*%
X144780000Y-136525000D03*
%TO.P,Q3,3*%
%TO.N,-40v*%
X148590000Y-136525000D03*
%TO.P,Q3,4*%
%TO.N,Net-(Q2-Pad5)*%
X152400000Y-136525000D03*
%TO.P,Q3,5*%
%TO.N,Net-(D2-A)*%
X156210000Y-136525000D03*
%TD*%
D13*
%TO.P,REF\u002A\u002A,1*%
%TO.N,Earth_GND*%
X182245000Y-67310000D03*
%TD*%
D27*
%TO.P,U2,1,NULL*%
%TO.N,unconnected-(U2-NULL-Pad1)*%
X151765000Y-86995000D03*
D28*
%TO.P,U2,2,-*%
%TO.N,Net-(U1-+)*%
X151765000Y-89535000D03*
%TO.P,U2,3,+*%
%TO.N,Net-(U2-+)*%
X151765000Y-92075000D03*
%TO.P,U2,4,V-*%
%TO.N,-5v*%
X151765000Y-94615000D03*
%TO.P,U2,5,NULL*%
%TO.N,unconnected-(U2-NULL-Pad5)*%
X159385000Y-94615000D03*
%TO.P,U2,6*%
%TO.N,Net-(U1-+)*%
X159385000Y-92075000D03*
%TO.P,U2,7,V+*%
%TO.N,+5v*%
X159385000Y-89535000D03*
%TO.P,U2,8,NC*%
%TO.N,unconnected-(U2-NC-Pad8)*%
X159385000Y-86995000D03*
%TD*%
D13*
%TO.P,REF\u002A\u002A,1*%
%TO.N,Earth_GND*%
X75565000Y-136525000D03*
%TD*%
D29*
%TO.P,R2,1,1*%
%TO.N,Net-(U1-+)*%
X85090000Y-104140000D03*
%TO.P,R2,2,2*%
%TO.N,Earth_GND*%
X83090000Y-104140000D03*
%TD*%
D21*
%TO.P,C5,1,1*%
%TO.N,-40v*%
X88497500Y-75565000D03*
%TO.P,C5,2,2*%
%TO.N,Earth_GND*%
X90572500Y-75565000D03*
%TD*%
D25*
%TO.P,Q2,1*%
%TO.N,Net-(Q1-Pad1)*%
X93980000Y-136735000D03*
D26*
%TO.P,Q2,2*%
%TO.N,Net-(Q2-Pad2)*%
X97790000Y-136735000D03*
%TO.P,Q2,3*%
%TO.N,+40v*%
X101600000Y-136735000D03*
%TO.P,Q2,4*%
%TO.N,Net-(D1-K)*%
X105410000Y-136735000D03*
%TO.P,Q2,5*%
%TO.N,Net-(Q2-Pad5)*%
X109220000Y-136735000D03*
%TD*%
D30*
%TO.P,C3,1,1*%
%TO.N,+40v*%
X85090000Y-97790000D03*
%TO.P,C3,2,2*%
%TO.N,Earth_GND*%
X83015000Y-97790000D03*
%TD*%
D31*
%TO.P,RV1,1,1*%
%TO.N,unconnected-(RV1-Pad1)*%
X102790000Y-70485000D03*
%TO.P,RV1,2,2*%
%TO.N,Net-(R4-Pad1)*%
X97790000Y-70485000D03*
%TO.P,RV1,3,3*%
%TO.N,Net-(U1--)*%
X92790000Y-70485000D03*
%TD*%
D32*
%TO.P,R4,1,1*%
%TO.N,Net-(R4-Pad1)*%
X97155000Y-74835000D03*
%TO.P,R4,2,2*%
%TO.N,FB*%
X97155000Y-76835000D03*
%TD*%
D10*
%TO.P,C2,1,1*%
%TO.N,+40v*%
X88265000Y-86360000D03*
D11*
%TO.P,C2,2,2*%
%TO.N,Earth_GND*%
X93265000Y-86360000D03*
%TD*%
D14*
%TO.P,R9,1,1*%
%TO.N,Earth_GND*%
X151555000Y-98135000D03*
%TO.P,R9,2,2*%
%TO.N,Net-(U2-+)*%
X153555000Y-98135000D03*
%TD*%
D13*
%TO.P,REF\u002A\u002A,1*%
%TO.N,Earth_GND*%
X75565000Y-67310000D03*
%TD*%
D18*
%TO.P,R8,1*%
%TO.N,FB*%
X167005000Y-120650000D03*
D17*
%TO.P,R8,2*%
%TO.N,Net-(Q3-Pad2)*%
X139065000Y-120650000D03*
%TD*%
D29*
%TO.P,R3,1,1*%
%TO.N,+40v*%
X94980000Y-111125000D03*
%TO.P,R3,2,2*%
%TO.N,Net-(U1-Status_Flag)*%
X92980000Y-111125000D03*
%TD*%
D16*
%TO.P,D1,1,A*%
%TO.N,Net-(D1-A)*%
X117475000Y-112395000D03*
D17*
%TO.P,D1,2,K*%
%TO.N,Net-(D1-K)*%
X104775000Y-112395000D03*
%TD*%
D32*
%TO.P,R5,1,1*%
%TO.N,Net-(D1-A)*%
X127000000Y-116745000D03*
%TO.P,R5,2,2*%
%TO.N,+40v*%
X127000000Y-118745000D03*
%TD*%
D33*
%TO.N,Earth_GND*%
X100330000Y-95250000D03*
%TO.N,+40v*%
X101600000Y-92710000D03*
X127000000Y-120650000D03*
X124460000Y-109855000D03*
%TO.N,Net-(Q2-Pad5)*%
X123190000Y-121920000D03*
X95250000Y-109220000D03*
%TO.N,Net-(U1-+)*%
X88900000Y-110490000D03*
%TO.N,-40v*%
X135890000Y-127635000D03*
%TD*%
D34*
%TO.N,Net-(U2-+)*%
X143357600Y-85090000D02*
X145262600Y-83185000D01*
X149225000Y-83185000D02*
X149225000Y-89535000D01*
X150495000Y-95885000D02*
X151305000Y-95885000D01*
X145262600Y-83185000D02*
X149225000Y-83185000D01*
X149225000Y-89535000D02*
X151765000Y-92075000D01*
X151765000Y-92075000D02*
X150495000Y-93345000D01*
X151305000Y-95885000D02*
X153555000Y-98135000D01*
X150495000Y-93345000D02*
X150495000Y-95885000D01*
%TO.N,Net-(U1-E{slash}D_Com)*%
X98930000Y-101095000D02*
X100965000Y-99060000D01*
X95885000Y-101095000D02*
X98930000Y-101095000D01*
%TO.N,Earth_GND*%
X93265000Y-86360000D02*
X100502323Y-86360000D01*
X80010000Y-97790000D02*
X74295000Y-92075000D01*
X98890000Y-99060000D02*
X98890000Y-96690000D01*
X151555000Y-98135000D02*
X147320000Y-93900000D01*
X74295000Y-85090000D02*
X78105000Y-81280000D01*
X74295000Y-92075000D02*
X74295000Y-85090000D01*
X147320000Y-93900000D02*
X147320000Y-85090000D01*
X90572500Y-83667500D02*
X93265000Y-86360000D01*
X83015000Y-97790000D02*
X83015000Y-104065000D01*
X90572500Y-75565000D02*
X90572500Y-83667500D01*
X83015000Y-97790000D02*
X80010000Y-97790000D01*
X83015000Y-104065000D02*
X83090000Y-104140000D01*
X78105000Y-81280000D02*
X78105000Y-86360000D01*
X98890000Y-96690000D02*
X100330000Y-95250000D01*
%TO.N,+40v*%
X126365000Y-135890000D02*
X126365000Y-125095000D01*
X94615000Y-106045000D02*
X94615000Y-107019999D01*
X127000000Y-124460000D02*
X127000000Y-120650000D01*
X97472500Y-108902500D02*
X103505000Y-102870000D01*
X85090000Y-93345000D02*
X83185000Y-91440000D01*
X125080000Y-109855000D02*
X126350000Y-111125000D01*
X94615000Y-110760000D02*
X94980000Y-111125000D01*
X101600000Y-136735000D02*
X104508500Y-139643500D01*
X94980000Y-111125000D02*
X95250000Y-111125000D01*
X104508500Y-139643500D02*
X122611500Y-139643500D01*
X126365000Y-125095000D02*
X127000000Y-124460000D01*
X83185000Y-91440000D02*
X88265000Y-86360000D01*
X103505000Y-94615000D02*
X101600000Y-92710000D01*
X101600000Y-136735000D02*
X101600000Y-138430000D01*
X94615000Y-107019999D02*
X96497501Y-108902500D01*
X85090000Y-97790000D02*
X85090000Y-93345000D01*
X103505000Y-102870000D02*
X103505000Y-94615000D01*
X78105000Y-91440000D02*
X83185000Y-91440000D01*
X127000000Y-120650000D02*
X127000000Y-118745000D01*
X96497501Y-108902500D02*
X97472500Y-108902500D01*
X122611500Y-139643500D02*
X126365000Y-135890000D01*
X124460000Y-109855000D02*
X125080000Y-109855000D01*
X95250000Y-111125000D02*
X97472500Y-108902500D01*
D35*
%TO.N,FB*%
X171450000Y-116205000D02*
X175260000Y-116205000D01*
X113665000Y-97155000D02*
X113665000Y-81915000D01*
X110490000Y-78740000D02*
X108585000Y-78740000D01*
X177800000Y-116205000D02*
X181610000Y-120015000D01*
X106680000Y-76835000D02*
X97155000Y-76835000D01*
X89535000Y-121285000D02*
X113665000Y-97155000D01*
X108585000Y-78740000D02*
X106680000Y-76835000D01*
X167005000Y-120650000D02*
X171450000Y-116205000D01*
X113665000Y-81915000D02*
X110490000Y-78740000D01*
X175260000Y-116205000D02*
X177800000Y-116205000D01*
D34*
%TO.N,Net-(Q2-Pad5)*%
X123190000Y-121920000D02*
X123190000Y-122765000D01*
X93345000Y-107315000D02*
X93345000Y-106045000D01*
X95250000Y-109220000D02*
X93345000Y-107315000D01*
X123190000Y-122765000D02*
X109220000Y-136735000D01*
%TO.N,Net-(D1-A)*%
X122650000Y-112395000D02*
X127000000Y-116745000D01*
X127000000Y-116745000D02*
X127000000Y-113785000D01*
X117475000Y-112395000D02*
X122650000Y-112395000D01*
%TO.N,Net-(D1-K)*%
X109855000Y-117475000D02*
X104775000Y-112395000D01*
X117475000Y-124460000D02*
X120650000Y-121285000D01*
X120015000Y-117475000D02*
X109855000Y-117475000D01*
X120650000Y-118110000D02*
X120015000Y-117475000D01*
X105410000Y-136735000D02*
X105410000Y-135255000D01*
X116205000Y-124460000D02*
X117475000Y-124460000D01*
X120650000Y-121285000D02*
X120650000Y-118110000D01*
X105410000Y-135255000D02*
X116205000Y-124460000D01*
%TO.N,Net-(D2-K)*%
X139700000Y-112395000D02*
X135890000Y-112395000D01*
X130270000Y-107410000D02*
X127000000Y-107410000D01*
X135890000Y-112395000D02*
X135890000Y-114300000D01*
X135255000Y-112395000D02*
X130270000Y-107410000D01*
X127000000Y-107410000D02*
X127000000Y-111125000D01*
X135890000Y-112395000D02*
X135255000Y-112395000D01*
%TO.N,+5v*%
X159385000Y-89535000D02*
X167005000Y-81915000D01*
X179705000Y-81915000D02*
X167005000Y-81915000D01*
%TO.N,Net-(U1-+)*%
X85090000Y-106680000D02*
X85090000Y-104140000D01*
X85090000Y-104140000D02*
X90805000Y-98425000D01*
X154940000Y-89535000D02*
X151765000Y-89535000D01*
X157480000Y-92075000D02*
X154940000Y-89535000D01*
X88900000Y-110490000D02*
X85090000Y-106680000D01*
X93345000Y-99060000D02*
X93345000Y-101095000D01*
X92710000Y-98425000D02*
X93345000Y-99060000D01*
X159385000Y-92075000D02*
X157480000Y-92075000D01*
X90805000Y-98425000D02*
X92710000Y-98425000D01*
%TO.N,-40v*%
X90805000Y-102365000D02*
X90805000Y-111125000D01*
X92075000Y-101095000D02*
X90805000Y-102365000D01*
X78105000Y-76200000D02*
X87862500Y-76200000D01*
X133451500Y-139166500D02*
X132080000Y-137795000D01*
X105502323Y-102316821D02*
X105502323Y-86360000D01*
X91896500Y-112216500D02*
X95602644Y-112216500D01*
X87862500Y-76200000D02*
X88497500Y-75565000D01*
X127650000Y-113785000D02*
X132027500Y-118162500D01*
X90805000Y-111125000D02*
X91896500Y-112216500D01*
X135890000Y-116300000D02*
X135890000Y-127635000D01*
X132080000Y-118215000D02*
X132027500Y-118162500D01*
X145948500Y-139166500D02*
X133451500Y-139166500D01*
X132080000Y-137795000D02*
X132080000Y-118215000D01*
X148590000Y-136525000D02*
X145948500Y-139166500D01*
X95602644Y-112216500D02*
X105502323Y-102316821D01*
%TO.N,Net-(D2-A)*%
X156210000Y-116205000D02*
X152400000Y-112395000D01*
X156210000Y-136525000D02*
X156210000Y-116205000D01*
%TO.N,Net-(Q1-Pad4)*%
X127650000Y-111125000D02*
X133985000Y-117460000D01*
X133985000Y-134620000D02*
X135890000Y-136525000D01*
X133985000Y-117460000D02*
X133985000Y-134620000D01*
X135890000Y-136525000D02*
X140970000Y-136525000D01*
%TO.N,Net-(Q1-Pad1)*%
X123368500Y-110803500D02*
X126350000Y-113785000D01*
X103191500Y-110803500D02*
X123368500Y-110803500D01*
X93980000Y-120015000D02*
X93980000Y-136735000D01*
X93980000Y-120015000D02*
X103191500Y-110803500D01*
D35*
%TO.N,Net-(Q2-Pad2)*%
X97790000Y-125730000D02*
X102235000Y-121285000D01*
X97790000Y-125730000D02*
X97790000Y-136735000D01*
X102235000Y-121285000D02*
X117475000Y-121285000D01*
%TO.N,Net-(Q3-Pad2)*%
X139700000Y-127000000D02*
X144780000Y-132080000D01*
X139065000Y-126365000D02*
X139065000Y-120650000D01*
X144780000Y-132080000D02*
X144780000Y-136525000D01*
X140335000Y-127635000D02*
X139065000Y-126365000D01*
D34*
%TO.N,Net-(U1-Status_Flag)*%
X92075000Y-110220000D02*
X92075000Y-106045000D01*
X92980000Y-111125000D02*
X92075000Y-110220000D01*
%TO.N,Net-(R4-Pad1)*%
X97790000Y-70485000D02*
X97790000Y-74200000D01*
X97790000Y-74200000D02*
X97155000Y-74835000D01*
%TO.N,Net-(U1--)*%
X101892823Y-90512177D02*
X96520000Y-95885000D01*
X101892823Y-84969500D02*
X101892823Y-90512177D01*
X85090000Y-100965000D02*
X86995000Y-100965000D01*
X92790000Y-70485000D02*
X92790000Y-75866677D01*
X92075000Y-95885000D02*
X96520000Y-95885000D01*
X96520000Y-95885000D02*
X94615000Y-97790000D01*
X86995000Y-100965000D02*
X92075000Y-95885000D01*
X92790000Y-75866677D02*
X101892823Y-84969500D01*
X94615000Y-97790000D02*
X94615000Y-101095000D01*
%TO.N,-5v*%
X159067500Y-98107500D02*
X160020000Y-97155000D01*
X151765000Y-94615000D02*
X155575000Y-94615000D01*
X155575000Y-94615000D02*
X159067500Y-98107500D01*
X160020000Y-97155000D02*
X179705000Y-97155000D01*
%TD*%
M02*
