%TF.GenerationSoftware,KiCad,Pcbnew,9.0.0*%
%TF.CreationDate,2025-04-04T13:00:48-06:00*%
%TF.ProjectId,High Power Class AB,48696768-2050-46f7-9765-7220436c6173,rev?*%
%TF.SameCoordinates,Original*%
%TF.FileFunction,Legend,Top*%
%TF.FilePolarity,Positive*%
%FSLAX46Y46*%
G04 Gerber Fmt 4.6, Leading zero omitted, Abs format (unit mm)*
G04 Created by KiCad (PCBNEW 9.0.0) date 2025-04-04 13:00:48*
%MOMM*%
%LPD*%
G01*
G04 APERTURE LIST*
%ADD10C,0.317500*%
%ADD11C,0.300000*%
%ADD12C,0.100000*%
%ADD13C,0.508000*%
%ADD14C,0.150000*%
%ADD15C,0.120000*%
%ADD16C,0.000000*%
G04 APERTURE END LIST*
D10*
X178250785Y-74602642D02*
X179097452Y-77142642D01*
X179097452Y-77142642D02*
X179944119Y-74602642D01*
X180790785Y-76175023D02*
X182726024Y-76175023D01*
X181758404Y-77142642D02*
X181758404Y-75207404D01*
D11*
X176378082Y-111489400D02*
X176592368Y-111560828D01*
X176592368Y-111560828D02*
X176949510Y-111560828D01*
X176949510Y-111560828D02*
X177092368Y-111489400D01*
X177092368Y-111489400D02*
X177163796Y-111417971D01*
X177163796Y-111417971D02*
X177235225Y-111275114D01*
X177235225Y-111275114D02*
X177235225Y-111132257D01*
X177235225Y-111132257D02*
X177163796Y-110989400D01*
X177163796Y-110989400D02*
X177092368Y-110917971D01*
X177092368Y-110917971D02*
X176949510Y-110846542D01*
X176949510Y-110846542D02*
X176663796Y-110775114D01*
X176663796Y-110775114D02*
X176520939Y-110703685D01*
X176520939Y-110703685D02*
X176449510Y-110632257D01*
X176449510Y-110632257D02*
X176378082Y-110489400D01*
X176378082Y-110489400D02*
X176378082Y-110346542D01*
X176378082Y-110346542D02*
X176449510Y-110203685D01*
X176449510Y-110203685D02*
X176520939Y-110132257D01*
X176520939Y-110132257D02*
X176663796Y-110060828D01*
X176663796Y-110060828D02*
X177020939Y-110060828D01*
X177020939Y-110060828D02*
X177235225Y-110132257D01*
X177878081Y-110560828D02*
X177878081Y-112060828D01*
X177878081Y-110632257D02*
X178020939Y-110560828D01*
X178020939Y-110560828D02*
X178306653Y-110560828D01*
X178306653Y-110560828D02*
X178449510Y-110632257D01*
X178449510Y-110632257D02*
X178520939Y-110703685D01*
X178520939Y-110703685D02*
X178592367Y-110846542D01*
X178592367Y-110846542D02*
X178592367Y-111275114D01*
X178592367Y-111275114D02*
X178520939Y-111417971D01*
X178520939Y-111417971D02*
X178449510Y-111489400D01*
X178449510Y-111489400D02*
X178306653Y-111560828D01*
X178306653Y-111560828D02*
X178020939Y-111560828D01*
X178020939Y-111560828D02*
X177878081Y-111489400D01*
X179806653Y-111489400D02*
X179663796Y-111560828D01*
X179663796Y-111560828D02*
X179378082Y-111560828D01*
X179378082Y-111560828D02*
X179235224Y-111489400D01*
X179235224Y-111489400D02*
X179163796Y-111346542D01*
X179163796Y-111346542D02*
X179163796Y-110775114D01*
X179163796Y-110775114D02*
X179235224Y-110632257D01*
X179235224Y-110632257D02*
X179378082Y-110560828D01*
X179378082Y-110560828D02*
X179663796Y-110560828D01*
X179663796Y-110560828D02*
X179806653Y-110632257D01*
X179806653Y-110632257D02*
X179878082Y-110775114D01*
X179878082Y-110775114D02*
X179878082Y-110917971D01*
X179878082Y-110917971D02*
X179163796Y-111060828D01*
X181163796Y-111560828D02*
X181163796Y-110775114D01*
X181163796Y-110775114D02*
X181092367Y-110632257D01*
X181092367Y-110632257D02*
X180949510Y-110560828D01*
X180949510Y-110560828D02*
X180663796Y-110560828D01*
X180663796Y-110560828D02*
X180520938Y-110632257D01*
X181163796Y-111489400D02*
X181020938Y-111560828D01*
X181020938Y-111560828D02*
X180663796Y-111560828D01*
X180663796Y-111560828D02*
X180520938Y-111489400D01*
X180520938Y-111489400D02*
X180449510Y-111346542D01*
X180449510Y-111346542D02*
X180449510Y-111203685D01*
X180449510Y-111203685D02*
X180520938Y-111060828D01*
X180520938Y-111060828D02*
X180663796Y-110989400D01*
X180663796Y-110989400D02*
X181020938Y-110989400D01*
X181020938Y-110989400D02*
X181163796Y-110917971D01*
X181878081Y-111560828D02*
X181878081Y-110060828D01*
X182020939Y-110989400D02*
X182449510Y-111560828D01*
X182449510Y-110560828D02*
X181878081Y-111132257D01*
X183663796Y-111489400D02*
X183520939Y-111560828D01*
X183520939Y-111560828D02*
X183235225Y-111560828D01*
X183235225Y-111560828D02*
X183092367Y-111489400D01*
X183092367Y-111489400D02*
X183020939Y-111346542D01*
X183020939Y-111346542D02*
X183020939Y-110775114D01*
X183020939Y-110775114D02*
X183092367Y-110632257D01*
X183092367Y-110632257D02*
X183235225Y-110560828D01*
X183235225Y-110560828D02*
X183520939Y-110560828D01*
X183520939Y-110560828D02*
X183663796Y-110632257D01*
X183663796Y-110632257D02*
X183735225Y-110775114D01*
X183735225Y-110775114D02*
X183735225Y-110917971D01*
X183735225Y-110917971D02*
X183020939Y-111060828D01*
X184378081Y-111560828D02*
X184378081Y-110560828D01*
X184378081Y-110846542D02*
X184449510Y-110703685D01*
X184449510Y-110703685D02*
X184520939Y-110632257D01*
X184520939Y-110632257D02*
X184663796Y-110560828D01*
X184663796Y-110560828D02*
X184806653Y-110560828D01*
D12*
X171957419Y-91247306D02*
X171957419Y-91818734D01*
X171957419Y-91533020D02*
X170957419Y-91533020D01*
X170957419Y-91533020D02*
X171100276Y-91628258D01*
X171100276Y-91628258D02*
X171195514Y-91723496D01*
X171195514Y-91723496D02*
X171243133Y-91818734D01*
X170957419Y-90342544D02*
X170957419Y-90818734D01*
X170957419Y-90818734D02*
X171433609Y-90866353D01*
X171433609Y-90866353D02*
X171385990Y-90818734D01*
X171385990Y-90818734D02*
X171338371Y-90723496D01*
X171338371Y-90723496D02*
X171338371Y-90485401D01*
X171338371Y-90485401D02*
X171385990Y-90390163D01*
X171385990Y-90390163D02*
X171433609Y-90342544D01*
X171433609Y-90342544D02*
X171528847Y-90294925D01*
X171528847Y-90294925D02*
X171766942Y-90294925D01*
X171766942Y-90294925D02*
X171862180Y-90342544D01*
X171862180Y-90342544D02*
X171909800Y-90390163D01*
X171909800Y-90390163D02*
X171957419Y-90485401D01*
X171957419Y-90485401D02*
X171957419Y-90723496D01*
X171957419Y-90723496D02*
X171909800Y-90818734D01*
X171909800Y-90818734D02*
X171862180Y-90866353D01*
X171576466Y-89866353D02*
X171576466Y-89104449D01*
X171957419Y-89485401D02*
X171195514Y-89485401D01*
X170909800Y-87913973D02*
X172195514Y-88771115D01*
X171576466Y-87580639D02*
X171576466Y-86818735D01*
X171957419Y-85580639D02*
X170957419Y-85580639D01*
X170957419Y-85580639D02*
X171671704Y-85247306D01*
X171671704Y-85247306D02*
X170957419Y-84913973D01*
X170957419Y-84913973D02*
X171957419Y-84913973D01*
X171671704Y-84485401D02*
X171671704Y-84009211D01*
X171957419Y-84580639D02*
X170957419Y-84247306D01*
X170957419Y-84247306D02*
X171957419Y-83913973D01*
X170957419Y-83675877D02*
X171957419Y-83009211D01*
X170957419Y-83009211D02*
X171957419Y-83675877D01*
D11*
X152541653Y-69883223D02*
X152470225Y-69954652D01*
X152470225Y-69954652D02*
X152255939Y-70026080D01*
X152255939Y-70026080D02*
X152113082Y-70026080D01*
X152113082Y-70026080D02*
X151898796Y-69954652D01*
X151898796Y-69954652D02*
X151755939Y-69811794D01*
X151755939Y-69811794D02*
X151684510Y-69668937D01*
X151684510Y-69668937D02*
X151613082Y-69383223D01*
X151613082Y-69383223D02*
X151613082Y-69168937D01*
X151613082Y-69168937D02*
X151684510Y-68883223D01*
X151684510Y-68883223D02*
X151755939Y-68740366D01*
X151755939Y-68740366D02*
X151898796Y-68597509D01*
X151898796Y-68597509D02*
X152113082Y-68526080D01*
X152113082Y-68526080D02*
X152255939Y-68526080D01*
X152255939Y-68526080D02*
X152470225Y-68597509D01*
X152470225Y-68597509D02*
X152541653Y-68668937D01*
X153398796Y-70026080D02*
X153255939Y-69954652D01*
X153255939Y-69954652D02*
X153184510Y-69811794D01*
X153184510Y-69811794D02*
X153184510Y-68526080D01*
X154613082Y-70026080D02*
X154613082Y-69240366D01*
X154613082Y-69240366D02*
X154541653Y-69097509D01*
X154541653Y-69097509D02*
X154398796Y-69026080D01*
X154398796Y-69026080D02*
X154113082Y-69026080D01*
X154113082Y-69026080D02*
X153970224Y-69097509D01*
X154613082Y-69954652D02*
X154470224Y-70026080D01*
X154470224Y-70026080D02*
X154113082Y-70026080D01*
X154113082Y-70026080D02*
X153970224Y-69954652D01*
X153970224Y-69954652D02*
X153898796Y-69811794D01*
X153898796Y-69811794D02*
X153898796Y-69668937D01*
X153898796Y-69668937D02*
X153970224Y-69526080D01*
X153970224Y-69526080D02*
X154113082Y-69454652D01*
X154113082Y-69454652D02*
X154470224Y-69454652D01*
X154470224Y-69454652D02*
X154613082Y-69383223D01*
X155255939Y-69954652D02*
X155398796Y-70026080D01*
X155398796Y-70026080D02*
X155684510Y-70026080D01*
X155684510Y-70026080D02*
X155827367Y-69954652D01*
X155827367Y-69954652D02*
X155898796Y-69811794D01*
X155898796Y-69811794D02*
X155898796Y-69740366D01*
X155898796Y-69740366D02*
X155827367Y-69597509D01*
X155827367Y-69597509D02*
X155684510Y-69526080D01*
X155684510Y-69526080D02*
X155470225Y-69526080D01*
X155470225Y-69526080D02*
X155327367Y-69454652D01*
X155327367Y-69454652D02*
X155255939Y-69311794D01*
X155255939Y-69311794D02*
X155255939Y-69240366D01*
X155255939Y-69240366D02*
X155327367Y-69097509D01*
X155327367Y-69097509D02*
X155470225Y-69026080D01*
X155470225Y-69026080D02*
X155684510Y-69026080D01*
X155684510Y-69026080D02*
X155827367Y-69097509D01*
X156470225Y-69954652D02*
X156613082Y-70026080D01*
X156613082Y-70026080D02*
X156898796Y-70026080D01*
X156898796Y-70026080D02*
X157041653Y-69954652D01*
X157041653Y-69954652D02*
X157113082Y-69811794D01*
X157113082Y-69811794D02*
X157113082Y-69740366D01*
X157113082Y-69740366D02*
X157041653Y-69597509D01*
X157041653Y-69597509D02*
X156898796Y-69526080D01*
X156898796Y-69526080D02*
X156684511Y-69526080D01*
X156684511Y-69526080D02*
X156541653Y-69454652D01*
X156541653Y-69454652D02*
X156470225Y-69311794D01*
X156470225Y-69311794D02*
X156470225Y-69240366D01*
X156470225Y-69240366D02*
X156541653Y-69097509D01*
X156541653Y-69097509D02*
X156684511Y-69026080D01*
X156684511Y-69026080D02*
X156898796Y-69026080D01*
X156898796Y-69026080D02*
X157041653Y-69097509D01*
X158827368Y-69597509D02*
X159541654Y-69597509D01*
X158684511Y-70026080D02*
X159184511Y-68526080D01*
X159184511Y-68526080D02*
X159684511Y-70026080D01*
X160684510Y-69240366D02*
X160898796Y-69311794D01*
X160898796Y-69311794D02*
X160970225Y-69383223D01*
X160970225Y-69383223D02*
X161041653Y-69526080D01*
X161041653Y-69526080D02*
X161041653Y-69740366D01*
X161041653Y-69740366D02*
X160970225Y-69883223D01*
X160970225Y-69883223D02*
X160898796Y-69954652D01*
X160898796Y-69954652D02*
X160755939Y-70026080D01*
X160755939Y-70026080D02*
X160184510Y-70026080D01*
X160184510Y-70026080D02*
X160184510Y-68526080D01*
X160184510Y-68526080D02*
X160684510Y-68526080D01*
X160684510Y-68526080D02*
X160827368Y-68597509D01*
X160827368Y-68597509D02*
X160898796Y-68668937D01*
X160898796Y-68668937D02*
X160970225Y-68811794D01*
X160970225Y-68811794D02*
X160970225Y-68954652D01*
X160970225Y-68954652D02*
X160898796Y-69097509D01*
X160898796Y-69097509D02*
X160827368Y-69168937D01*
X160827368Y-69168937D02*
X160684510Y-69240366D01*
X160684510Y-69240366D02*
X160184510Y-69240366D01*
X162827367Y-70026080D02*
X162827367Y-68526080D01*
X162827367Y-68526080D02*
X163398796Y-68526080D01*
X163398796Y-68526080D02*
X163541653Y-68597509D01*
X163541653Y-68597509D02*
X163613082Y-68668937D01*
X163613082Y-68668937D02*
X163684510Y-68811794D01*
X163684510Y-68811794D02*
X163684510Y-69026080D01*
X163684510Y-69026080D02*
X163613082Y-69168937D01*
X163613082Y-69168937D02*
X163541653Y-69240366D01*
X163541653Y-69240366D02*
X163398796Y-69311794D01*
X163398796Y-69311794D02*
X162827367Y-69311794D01*
X164541653Y-70026080D02*
X164398796Y-69954652D01*
X164398796Y-69954652D02*
X164327367Y-69883223D01*
X164327367Y-69883223D02*
X164255939Y-69740366D01*
X164255939Y-69740366D02*
X164255939Y-69311794D01*
X164255939Y-69311794D02*
X164327367Y-69168937D01*
X164327367Y-69168937D02*
X164398796Y-69097509D01*
X164398796Y-69097509D02*
X164541653Y-69026080D01*
X164541653Y-69026080D02*
X164755939Y-69026080D01*
X164755939Y-69026080D02*
X164898796Y-69097509D01*
X164898796Y-69097509D02*
X164970225Y-69168937D01*
X164970225Y-69168937D02*
X165041653Y-69311794D01*
X165041653Y-69311794D02*
X165041653Y-69740366D01*
X165041653Y-69740366D02*
X164970225Y-69883223D01*
X164970225Y-69883223D02*
X164898796Y-69954652D01*
X164898796Y-69954652D02*
X164755939Y-70026080D01*
X164755939Y-70026080D02*
X164541653Y-70026080D01*
X165541653Y-69026080D02*
X165827368Y-70026080D01*
X165827368Y-70026080D02*
X166113082Y-69311794D01*
X166113082Y-69311794D02*
X166398796Y-70026080D01*
X166398796Y-70026080D02*
X166684510Y-69026080D01*
X167827368Y-69954652D02*
X167684511Y-70026080D01*
X167684511Y-70026080D02*
X167398797Y-70026080D01*
X167398797Y-70026080D02*
X167255939Y-69954652D01*
X167255939Y-69954652D02*
X167184511Y-69811794D01*
X167184511Y-69811794D02*
X167184511Y-69240366D01*
X167184511Y-69240366D02*
X167255939Y-69097509D01*
X167255939Y-69097509D02*
X167398797Y-69026080D01*
X167398797Y-69026080D02*
X167684511Y-69026080D01*
X167684511Y-69026080D02*
X167827368Y-69097509D01*
X167827368Y-69097509D02*
X167898797Y-69240366D01*
X167898797Y-69240366D02*
X167898797Y-69383223D01*
X167898797Y-69383223D02*
X167184511Y-69526080D01*
X168541653Y-70026080D02*
X168541653Y-69026080D01*
X168541653Y-69311794D02*
X168613082Y-69168937D01*
X168613082Y-69168937D02*
X168684511Y-69097509D01*
X168684511Y-69097509D02*
X168827368Y-69026080D01*
X168827368Y-69026080D02*
X168970225Y-69026080D01*
X170541653Y-69597509D02*
X171255939Y-69597509D01*
X170398796Y-70026080D02*
X170898796Y-68526080D01*
X170898796Y-68526080D02*
X171398796Y-70026080D01*
X171898795Y-70026080D02*
X171898795Y-68526080D01*
X171898795Y-68526080D02*
X172398795Y-69597509D01*
X172398795Y-69597509D02*
X172898795Y-68526080D01*
X172898795Y-68526080D02*
X172898795Y-70026080D01*
X173613081Y-70026080D02*
X173613081Y-68526080D01*
X173613081Y-68526080D02*
X174184510Y-68526080D01*
X174184510Y-68526080D02*
X174327367Y-68597509D01*
X174327367Y-68597509D02*
X174398796Y-68668937D01*
X174398796Y-68668937D02*
X174470224Y-68811794D01*
X174470224Y-68811794D02*
X174470224Y-69026080D01*
X174470224Y-69026080D02*
X174398796Y-69168937D01*
X174398796Y-69168937D02*
X174327367Y-69240366D01*
X174327367Y-69240366D02*
X174184510Y-69311794D01*
X174184510Y-69311794D02*
X173613081Y-69311794D01*
X151970225Y-70940996D02*
X152255939Y-70940996D01*
X152255939Y-70940996D02*
X152398796Y-71012425D01*
X152398796Y-71012425D02*
X152541653Y-71155282D01*
X152541653Y-71155282D02*
X152613082Y-71440996D01*
X152613082Y-71440996D02*
X152613082Y-71940996D01*
X152613082Y-71940996D02*
X152541653Y-72226710D01*
X152541653Y-72226710D02*
X152398796Y-72369568D01*
X152398796Y-72369568D02*
X152255939Y-72440996D01*
X152255939Y-72440996D02*
X151970225Y-72440996D01*
X151970225Y-72440996D02*
X151827368Y-72369568D01*
X151827368Y-72369568D02*
X151684510Y-72226710D01*
X151684510Y-72226710D02*
X151613082Y-71940996D01*
X151613082Y-71940996D02*
X151613082Y-71440996D01*
X151613082Y-71440996D02*
X151684510Y-71155282D01*
X151684510Y-71155282D02*
X151827368Y-71012425D01*
X151827368Y-71012425D02*
X151970225Y-70940996D01*
X153113082Y-71440996D02*
X153398797Y-72440996D01*
X153398797Y-72440996D02*
X153684511Y-71726710D01*
X153684511Y-71726710D02*
X153970225Y-72440996D01*
X153970225Y-72440996D02*
X154255939Y-71440996D01*
X155398797Y-72369568D02*
X155255940Y-72440996D01*
X155255940Y-72440996D02*
X154970226Y-72440996D01*
X154970226Y-72440996D02*
X154827368Y-72369568D01*
X154827368Y-72369568D02*
X154755940Y-72226710D01*
X154755940Y-72226710D02*
X154755940Y-71655282D01*
X154755940Y-71655282D02*
X154827368Y-71512425D01*
X154827368Y-71512425D02*
X154970226Y-71440996D01*
X154970226Y-71440996D02*
X155255940Y-71440996D01*
X155255940Y-71440996D02*
X155398797Y-71512425D01*
X155398797Y-71512425D02*
X155470226Y-71655282D01*
X155470226Y-71655282D02*
X155470226Y-71798139D01*
X155470226Y-71798139D02*
X154755940Y-71940996D01*
X156113082Y-71440996D02*
X156113082Y-72440996D01*
X156113082Y-71583853D02*
X156184511Y-71512425D01*
X156184511Y-71512425D02*
X156327368Y-71440996D01*
X156327368Y-71440996D02*
X156541654Y-71440996D01*
X156541654Y-71440996D02*
X156684511Y-71512425D01*
X156684511Y-71512425D02*
X156755940Y-71655282D01*
X156755940Y-71655282D02*
X156755940Y-72440996D01*
X159113082Y-71655282D02*
X158613082Y-71655282D01*
X158613082Y-72440996D02*
X158613082Y-70940996D01*
X158613082Y-70940996D02*
X159327368Y-70940996D01*
X160541654Y-71440996D02*
X160541654Y-72440996D01*
X159898796Y-71440996D02*
X159898796Y-72226710D01*
X159898796Y-72226710D02*
X159970225Y-72369568D01*
X159970225Y-72369568D02*
X160113082Y-72440996D01*
X160113082Y-72440996D02*
X160327368Y-72440996D01*
X160327368Y-72440996D02*
X160470225Y-72369568D01*
X160470225Y-72369568D02*
X160541654Y-72298139D01*
X161255939Y-71440996D02*
X161255939Y-72726710D01*
X161255939Y-72726710D02*
X161184511Y-72869568D01*
X161184511Y-72869568D02*
X161041654Y-72940996D01*
X161041654Y-72940996D02*
X160970225Y-72940996D01*
X161255939Y-70940996D02*
X161184511Y-71012425D01*
X161184511Y-71012425D02*
X161255939Y-71083853D01*
X161255939Y-71083853D02*
X161327368Y-71012425D01*
X161327368Y-71012425D02*
X161255939Y-70940996D01*
X161255939Y-70940996D02*
X161255939Y-71083853D01*
X161970225Y-72440996D02*
X161970225Y-71440996D01*
X161970225Y-70940996D02*
X161898797Y-71012425D01*
X161898797Y-71012425D02*
X161970225Y-71083853D01*
X161970225Y-71083853D02*
X162041654Y-71012425D01*
X162041654Y-71012425D02*
X161970225Y-70940996D01*
X161970225Y-70940996D02*
X161970225Y-71083853D01*
X162684511Y-72440996D02*
X162684511Y-71440996D01*
X162684511Y-70940996D02*
X162613083Y-71012425D01*
X162613083Y-71012425D02*
X162684511Y-71083853D01*
X162684511Y-71083853D02*
X162755940Y-71012425D01*
X162755940Y-71012425D02*
X162684511Y-70940996D01*
X162684511Y-70940996D02*
X162684511Y-71083853D01*
X152541653Y-74855912D02*
X152041653Y-74141626D01*
X151684510Y-74855912D02*
X151684510Y-73355912D01*
X151684510Y-73355912D02*
X152255939Y-73355912D01*
X152255939Y-73355912D02*
X152398796Y-73427341D01*
X152398796Y-73427341D02*
X152470225Y-73498769D01*
X152470225Y-73498769D02*
X152541653Y-73641626D01*
X152541653Y-73641626D02*
X152541653Y-73855912D01*
X152541653Y-73855912D02*
X152470225Y-73998769D01*
X152470225Y-73998769D02*
X152398796Y-74070198D01*
X152398796Y-74070198D02*
X152255939Y-74141626D01*
X152255939Y-74141626D02*
X151684510Y-74141626D01*
X153755939Y-74784484D02*
X153613082Y-74855912D01*
X153613082Y-74855912D02*
X153327368Y-74855912D01*
X153327368Y-74855912D02*
X153184510Y-74784484D01*
X153184510Y-74784484D02*
X153113082Y-74641626D01*
X153113082Y-74641626D02*
X153113082Y-74070198D01*
X153113082Y-74070198D02*
X153184510Y-73927341D01*
X153184510Y-73927341D02*
X153327368Y-73855912D01*
X153327368Y-73855912D02*
X153613082Y-73855912D01*
X153613082Y-73855912D02*
X153755939Y-73927341D01*
X153755939Y-73927341D02*
X153827368Y-74070198D01*
X153827368Y-74070198D02*
X153827368Y-74213055D01*
X153827368Y-74213055D02*
X153113082Y-74355912D01*
X154327367Y-73855912D02*
X154684510Y-74855912D01*
X154684510Y-74855912D02*
X155041653Y-73855912D01*
X155613081Y-74713055D02*
X155684510Y-74784484D01*
X155684510Y-74784484D02*
X155613081Y-74855912D01*
X155613081Y-74855912D02*
X155541653Y-74784484D01*
X155541653Y-74784484D02*
X155613081Y-74713055D01*
X155613081Y-74713055D02*
X155613081Y-74855912D01*
X157970224Y-74070198D02*
X158184510Y-74141626D01*
X158184510Y-74141626D02*
X158255939Y-74213055D01*
X158255939Y-74213055D02*
X158327367Y-74355912D01*
X158327367Y-74355912D02*
X158327367Y-74570198D01*
X158327367Y-74570198D02*
X158255939Y-74713055D01*
X158255939Y-74713055D02*
X158184510Y-74784484D01*
X158184510Y-74784484D02*
X158041653Y-74855912D01*
X158041653Y-74855912D02*
X157470224Y-74855912D01*
X157470224Y-74855912D02*
X157470224Y-73355912D01*
X157470224Y-73355912D02*
X157970224Y-73355912D01*
X157970224Y-73355912D02*
X158113082Y-73427341D01*
X158113082Y-73427341D02*
X158184510Y-73498769D01*
X158184510Y-73498769D02*
X158255939Y-73641626D01*
X158255939Y-73641626D02*
X158255939Y-73784484D01*
X158255939Y-73784484D02*
X158184510Y-73927341D01*
X158184510Y-73927341D02*
X158113082Y-73998769D01*
X158113082Y-73998769D02*
X157970224Y-74070198D01*
X157970224Y-74070198D02*
X157470224Y-74070198D01*
X151970225Y-75770828D02*
X152113082Y-75770828D01*
X152113082Y-75770828D02*
X152255939Y-75842257D01*
X152255939Y-75842257D02*
X152327368Y-75913685D01*
X152327368Y-75913685D02*
X152398796Y-76056542D01*
X152398796Y-76056542D02*
X152470225Y-76342257D01*
X152470225Y-76342257D02*
X152470225Y-76699400D01*
X152470225Y-76699400D02*
X152398796Y-76985114D01*
X152398796Y-76985114D02*
X152327368Y-77127971D01*
X152327368Y-77127971D02*
X152255939Y-77199400D01*
X152255939Y-77199400D02*
X152113082Y-77270828D01*
X152113082Y-77270828D02*
X151970225Y-77270828D01*
X151970225Y-77270828D02*
X151827368Y-77199400D01*
X151827368Y-77199400D02*
X151755939Y-77127971D01*
X151755939Y-77127971D02*
X151684510Y-76985114D01*
X151684510Y-76985114D02*
X151613082Y-76699400D01*
X151613082Y-76699400D02*
X151613082Y-76342257D01*
X151613082Y-76342257D02*
X151684510Y-76056542D01*
X151684510Y-76056542D02*
X151755939Y-75913685D01*
X151755939Y-75913685D02*
X151827368Y-75842257D01*
X151827368Y-75842257D02*
X151970225Y-75770828D01*
X153755939Y-76270828D02*
X153755939Y-77270828D01*
X153398796Y-75699400D02*
X153041653Y-76770828D01*
X153041653Y-76770828D02*
X153970224Y-76770828D01*
X155613081Y-75699400D02*
X154327367Y-77627971D01*
X156398796Y-75770828D02*
X156541653Y-75770828D01*
X156541653Y-75770828D02*
X156684510Y-75842257D01*
X156684510Y-75842257D02*
X156755939Y-75913685D01*
X156755939Y-75913685D02*
X156827367Y-76056542D01*
X156827367Y-76056542D02*
X156898796Y-76342257D01*
X156898796Y-76342257D02*
X156898796Y-76699400D01*
X156898796Y-76699400D02*
X156827367Y-76985114D01*
X156827367Y-76985114D02*
X156755939Y-77127971D01*
X156755939Y-77127971D02*
X156684510Y-77199400D01*
X156684510Y-77199400D02*
X156541653Y-77270828D01*
X156541653Y-77270828D02*
X156398796Y-77270828D01*
X156398796Y-77270828D02*
X156255939Y-77199400D01*
X156255939Y-77199400D02*
X156184510Y-77127971D01*
X156184510Y-77127971D02*
X156113081Y-76985114D01*
X156113081Y-76985114D02*
X156041653Y-76699400D01*
X156041653Y-76699400D02*
X156041653Y-76342257D01*
X156041653Y-76342257D02*
X156113081Y-76056542D01*
X156113081Y-76056542D02*
X156184510Y-75913685D01*
X156184510Y-75913685D02*
X156255939Y-75842257D01*
X156255939Y-75842257D02*
X156398796Y-75770828D01*
X158184510Y-76270828D02*
X158184510Y-77270828D01*
X157827367Y-75699400D02*
X157470224Y-76770828D01*
X157470224Y-76770828D02*
X158398795Y-76770828D01*
X160041652Y-75699400D02*
X158755938Y-77627971D01*
X160470224Y-75913685D02*
X160541652Y-75842257D01*
X160541652Y-75842257D02*
X160684510Y-75770828D01*
X160684510Y-75770828D02*
X161041652Y-75770828D01*
X161041652Y-75770828D02*
X161184510Y-75842257D01*
X161184510Y-75842257D02*
X161255938Y-75913685D01*
X161255938Y-75913685D02*
X161327367Y-76056542D01*
X161327367Y-76056542D02*
X161327367Y-76199400D01*
X161327367Y-76199400D02*
X161255938Y-76413685D01*
X161255938Y-76413685D02*
X160398795Y-77270828D01*
X160398795Y-77270828D02*
X161327367Y-77270828D01*
X162255938Y-75770828D02*
X162398795Y-75770828D01*
X162398795Y-75770828D02*
X162541652Y-75842257D01*
X162541652Y-75842257D02*
X162613081Y-75913685D01*
X162613081Y-75913685D02*
X162684509Y-76056542D01*
X162684509Y-76056542D02*
X162755938Y-76342257D01*
X162755938Y-76342257D02*
X162755938Y-76699400D01*
X162755938Y-76699400D02*
X162684509Y-76985114D01*
X162684509Y-76985114D02*
X162613081Y-77127971D01*
X162613081Y-77127971D02*
X162541652Y-77199400D01*
X162541652Y-77199400D02*
X162398795Y-77270828D01*
X162398795Y-77270828D02*
X162255938Y-77270828D01*
X162255938Y-77270828D02*
X162113081Y-77199400D01*
X162113081Y-77199400D02*
X162041652Y-77127971D01*
X162041652Y-77127971D02*
X161970223Y-76985114D01*
X161970223Y-76985114D02*
X161898795Y-76699400D01*
X161898795Y-76699400D02*
X161898795Y-76342257D01*
X161898795Y-76342257D02*
X161970223Y-76056542D01*
X161970223Y-76056542D02*
X162041652Y-75913685D01*
X162041652Y-75913685D02*
X162113081Y-75842257D01*
X162113081Y-75842257D02*
X162255938Y-75770828D01*
X163327366Y-75913685D02*
X163398794Y-75842257D01*
X163398794Y-75842257D02*
X163541652Y-75770828D01*
X163541652Y-75770828D02*
X163898794Y-75770828D01*
X163898794Y-75770828D02*
X164041652Y-75842257D01*
X164041652Y-75842257D02*
X164113080Y-75913685D01*
X164113080Y-75913685D02*
X164184509Y-76056542D01*
X164184509Y-76056542D02*
X164184509Y-76199400D01*
X164184509Y-76199400D02*
X164113080Y-76413685D01*
X164113080Y-76413685D02*
X163255937Y-77270828D01*
X163255937Y-77270828D02*
X164184509Y-77270828D01*
X165541651Y-75770828D02*
X164827365Y-75770828D01*
X164827365Y-75770828D02*
X164755937Y-76485114D01*
X164755937Y-76485114D02*
X164827365Y-76413685D01*
X164827365Y-76413685D02*
X164970223Y-76342257D01*
X164970223Y-76342257D02*
X165327365Y-76342257D01*
X165327365Y-76342257D02*
X165470223Y-76413685D01*
X165470223Y-76413685D02*
X165541651Y-76485114D01*
X165541651Y-76485114D02*
X165613080Y-76627971D01*
X165613080Y-76627971D02*
X165613080Y-76985114D01*
X165613080Y-76985114D02*
X165541651Y-77127971D01*
X165541651Y-77127971D02*
X165470223Y-77199400D01*
X165470223Y-77199400D02*
X165327365Y-77270828D01*
X165327365Y-77270828D02*
X164970223Y-77270828D01*
X164970223Y-77270828D02*
X164827365Y-77199400D01*
X164827365Y-77199400D02*
X164755937Y-77127971D01*
D13*
X182576028Y-104105117D02*
X180640790Y-104105117D01*
X179794123Y-102532736D02*
X178947456Y-105072736D01*
X178947456Y-105072736D02*
X178100789Y-102532736D01*
D10*
X75380785Y-96192642D02*
X76227452Y-98732642D01*
X76227452Y-98732642D02*
X77074119Y-96192642D01*
X77920785Y-97765023D02*
X79856024Y-97765023D01*
X78888404Y-98732642D02*
X78888404Y-96797404D01*
D13*
X85421028Y-69815117D02*
X83485790Y-69815117D01*
X82639123Y-68242736D02*
X81792456Y-70782736D01*
X81792456Y-70782736D02*
X80945789Y-68242736D01*
D11*
X181529510Y-123689400D02*
X182672368Y-123689400D01*
X182100939Y-124260828D02*
X182100939Y-123117971D01*
D14*
X102835656Y-80469580D02*
X102788037Y-80517200D01*
X102788037Y-80517200D02*
X102645180Y-80564819D01*
X102645180Y-80564819D02*
X102549942Y-80564819D01*
X102549942Y-80564819D02*
X102407085Y-80517200D01*
X102407085Y-80517200D02*
X102311847Y-80421961D01*
X102311847Y-80421961D02*
X102264228Y-80326723D01*
X102264228Y-80326723D02*
X102216609Y-80136247D01*
X102216609Y-80136247D02*
X102216609Y-79993390D01*
X102216609Y-79993390D02*
X102264228Y-79802914D01*
X102264228Y-79802914D02*
X102311847Y-79707676D01*
X102311847Y-79707676D02*
X102407085Y-79612438D01*
X102407085Y-79612438D02*
X102549942Y-79564819D01*
X102549942Y-79564819D02*
X102645180Y-79564819D01*
X102645180Y-79564819D02*
X102788037Y-79612438D01*
X102788037Y-79612438D02*
X102835656Y-79660057D01*
X103692799Y-79564819D02*
X103502323Y-79564819D01*
X103502323Y-79564819D02*
X103407085Y-79612438D01*
X103407085Y-79612438D02*
X103359466Y-79660057D01*
X103359466Y-79660057D02*
X103264228Y-79802914D01*
X103264228Y-79802914D02*
X103216609Y-79993390D01*
X103216609Y-79993390D02*
X103216609Y-80374342D01*
X103216609Y-80374342D02*
X103264228Y-80469580D01*
X103264228Y-80469580D02*
X103311847Y-80517200D01*
X103311847Y-80517200D02*
X103407085Y-80564819D01*
X103407085Y-80564819D02*
X103597561Y-80564819D01*
X103597561Y-80564819D02*
X103692799Y-80517200D01*
X103692799Y-80517200D02*
X103740418Y-80469580D01*
X103740418Y-80469580D02*
X103788037Y-80374342D01*
X103788037Y-80374342D02*
X103788037Y-80136247D01*
X103788037Y-80136247D02*
X103740418Y-80041009D01*
X103740418Y-80041009D02*
X103692799Y-79993390D01*
X103692799Y-79993390D02*
X103597561Y-79945771D01*
X103597561Y-79945771D02*
X103407085Y-79945771D01*
X103407085Y-79945771D02*
X103311847Y-79993390D01*
X103311847Y-79993390D02*
X103264228Y-80041009D01*
X103264228Y-80041009D02*
X103216609Y-80136247D01*
D12*
X174291666Y-76927419D02*
X174291666Y-77641704D01*
X174291666Y-77641704D02*
X174244047Y-77784561D01*
X174244047Y-77784561D02*
X174148809Y-77879800D01*
X174148809Y-77879800D02*
X174005952Y-77927419D01*
X174005952Y-77927419D02*
X173910714Y-77927419D01*
X175196428Y-77260752D02*
X175196428Y-77927419D01*
X174958333Y-76879800D02*
X174720238Y-77594085D01*
X174720238Y-77594085D02*
X175339285Y-77594085D01*
D14*
X87463333Y-101419819D02*
X87130000Y-100943628D01*
X86891905Y-101419819D02*
X86891905Y-100419819D01*
X86891905Y-100419819D02*
X87272857Y-100419819D01*
X87272857Y-100419819D02*
X87368095Y-100467438D01*
X87368095Y-100467438D02*
X87415714Y-100515057D01*
X87415714Y-100515057D02*
X87463333Y-100610295D01*
X87463333Y-100610295D02*
X87463333Y-100753152D01*
X87463333Y-100753152D02*
X87415714Y-100848390D01*
X87415714Y-100848390D02*
X87368095Y-100896009D01*
X87368095Y-100896009D02*
X87272857Y-100943628D01*
X87272857Y-100943628D02*
X86891905Y-100943628D01*
X88415714Y-101419819D02*
X87844286Y-101419819D01*
X88130000Y-101419819D02*
X88130000Y-100419819D01*
X88130000Y-100419819D02*
X88034762Y-100562676D01*
X88034762Y-100562676D02*
X87939524Y-100657914D01*
X87939524Y-100657914D02*
X87844286Y-100705533D01*
D12*
X78406666Y-95342419D02*
X78406666Y-96056704D01*
X78406666Y-96056704D02*
X78359047Y-96199561D01*
X78359047Y-96199561D02*
X78263809Y-96294800D01*
X78263809Y-96294800D02*
X78120952Y-96342419D01*
X78120952Y-96342419D02*
X78025714Y-96342419D01*
X78835238Y-95437657D02*
X78882857Y-95390038D01*
X78882857Y-95390038D02*
X78978095Y-95342419D01*
X78978095Y-95342419D02*
X79216190Y-95342419D01*
X79216190Y-95342419D02*
X79311428Y-95390038D01*
X79311428Y-95390038D02*
X79359047Y-95437657D01*
X79359047Y-95437657D02*
X79406666Y-95532895D01*
X79406666Y-95532895D02*
X79406666Y-95628133D01*
X79406666Y-95628133D02*
X79359047Y-95770990D01*
X79359047Y-95770990D02*
X78787619Y-96342419D01*
X78787619Y-96342419D02*
X79406666Y-96342419D01*
D14*
X77018095Y-72209819D02*
X77018095Y-71209819D01*
X77018095Y-71209819D02*
X77399047Y-71209819D01*
X77399047Y-71209819D02*
X77494285Y-71257438D01*
X77494285Y-71257438D02*
X77541904Y-71305057D01*
X77541904Y-71305057D02*
X77589523Y-71400295D01*
X77589523Y-71400295D02*
X77589523Y-71543152D01*
X77589523Y-71543152D02*
X77541904Y-71638390D01*
X77541904Y-71638390D02*
X77494285Y-71686009D01*
X77494285Y-71686009D02*
X77399047Y-71733628D01*
X77399047Y-71733628D02*
X77018095Y-71733628D01*
X78160952Y-72209819D02*
X78065714Y-72162200D01*
X78065714Y-72162200D02*
X78018095Y-72114580D01*
X78018095Y-72114580D02*
X77970476Y-72019342D01*
X77970476Y-72019342D02*
X77970476Y-71733628D01*
X77970476Y-71733628D02*
X78018095Y-71638390D01*
X78018095Y-71638390D02*
X78065714Y-71590771D01*
X78065714Y-71590771D02*
X78160952Y-71543152D01*
X78160952Y-71543152D02*
X78303809Y-71543152D01*
X78303809Y-71543152D02*
X78399047Y-71590771D01*
X78399047Y-71590771D02*
X78446666Y-71638390D01*
X78446666Y-71638390D02*
X78494285Y-71733628D01*
X78494285Y-71733628D02*
X78494285Y-72019342D01*
X78494285Y-72019342D02*
X78446666Y-72114580D01*
X78446666Y-72114580D02*
X78399047Y-72162200D01*
X78399047Y-72162200D02*
X78303809Y-72209819D01*
X78303809Y-72209819D02*
X78160952Y-72209819D01*
X78827619Y-71543152D02*
X79018095Y-72209819D01*
X79018095Y-72209819D02*
X79208571Y-71733628D01*
X79208571Y-71733628D02*
X79399047Y-72209819D01*
X79399047Y-72209819D02*
X79589523Y-71543152D01*
X80351428Y-72162200D02*
X80256190Y-72209819D01*
X80256190Y-72209819D02*
X80065714Y-72209819D01*
X80065714Y-72209819D02*
X79970476Y-72162200D01*
X79970476Y-72162200D02*
X79922857Y-72066961D01*
X79922857Y-72066961D02*
X79922857Y-71686009D01*
X79922857Y-71686009D02*
X79970476Y-71590771D01*
X79970476Y-71590771D02*
X80065714Y-71543152D01*
X80065714Y-71543152D02*
X80256190Y-71543152D01*
X80256190Y-71543152D02*
X80351428Y-71590771D01*
X80351428Y-71590771D02*
X80399047Y-71686009D01*
X80399047Y-71686009D02*
X80399047Y-71781247D01*
X80399047Y-71781247D02*
X79922857Y-71876485D01*
X80827619Y-72209819D02*
X80827619Y-71543152D01*
X80827619Y-71733628D02*
X80875238Y-71638390D01*
X80875238Y-71638390D02*
X80922857Y-71590771D01*
X80922857Y-71590771D02*
X81018095Y-71543152D01*
X81018095Y-71543152D02*
X81113333Y-71543152D01*
X82208572Y-72209819D02*
X82208572Y-71209819D01*
X82684762Y-72209819D02*
X82684762Y-71209819D01*
X82684762Y-71209819D02*
X83256190Y-72209819D01*
X83256190Y-72209819D02*
X83256190Y-71209819D01*
X84494286Y-72209819D02*
X84494286Y-71209819D01*
X84494286Y-71686009D02*
X85065714Y-71686009D01*
X85065714Y-72209819D02*
X85065714Y-71209819D01*
X85541905Y-72209819D02*
X85541905Y-71209819D01*
D12*
X144296219Y-85423333D02*
X145010504Y-85423333D01*
X145010504Y-85423333D02*
X145153361Y-85470952D01*
X145153361Y-85470952D02*
X145248600Y-85566190D01*
X145248600Y-85566190D02*
X145296219Y-85709047D01*
X145296219Y-85709047D02*
X145296219Y-85804285D01*
X145296219Y-84423333D02*
X145296219Y-84994761D01*
X145296219Y-84709047D02*
X144296219Y-84709047D01*
X144296219Y-84709047D02*
X144439076Y-84804285D01*
X144439076Y-84804285D02*
X144534314Y-84899523D01*
X144534314Y-84899523D02*
X144581933Y-84994761D01*
D14*
X154836905Y-112849819D02*
X154836905Y-111849819D01*
X154836905Y-111849819D02*
X155075000Y-111849819D01*
X155075000Y-111849819D02*
X155217857Y-111897438D01*
X155217857Y-111897438D02*
X155313095Y-111992676D01*
X155313095Y-111992676D02*
X155360714Y-112087914D01*
X155360714Y-112087914D02*
X155408333Y-112278390D01*
X155408333Y-112278390D02*
X155408333Y-112421247D01*
X155408333Y-112421247D02*
X155360714Y-112611723D01*
X155360714Y-112611723D02*
X155313095Y-112706961D01*
X155313095Y-112706961D02*
X155217857Y-112802200D01*
X155217857Y-112802200D02*
X155075000Y-112849819D01*
X155075000Y-112849819D02*
X154836905Y-112849819D01*
X155789286Y-111945057D02*
X155836905Y-111897438D01*
X155836905Y-111897438D02*
X155932143Y-111849819D01*
X155932143Y-111849819D02*
X156170238Y-111849819D01*
X156170238Y-111849819D02*
X156265476Y-111897438D01*
X156265476Y-111897438D02*
X156313095Y-111945057D01*
X156313095Y-111945057D02*
X156360714Y-112040295D01*
X156360714Y-112040295D02*
X156360714Y-112135533D01*
X156360714Y-112135533D02*
X156313095Y-112278390D01*
X156313095Y-112278390D02*
X155741667Y-112849819D01*
X155741667Y-112849819D02*
X156360714Y-112849819D01*
X152138095Y-115049819D02*
X152138095Y-114049819D01*
X152709523Y-115049819D02*
X152280952Y-114478390D01*
X152709523Y-114049819D02*
X152138095Y-114621247D01*
X103338333Y-126059819D02*
X103005000Y-125583628D01*
X102766905Y-126059819D02*
X102766905Y-125059819D01*
X102766905Y-125059819D02*
X103147857Y-125059819D01*
X103147857Y-125059819D02*
X103243095Y-125107438D01*
X103243095Y-125107438D02*
X103290714Y-125155057D01*
X103290714Y-125155057D02*
X103338333Y-125250295D01*
X103338333Y-125250295D02*
X103338333Y-125393152D01*
X103338333Y-125393152D02*
X103290714Y-125488390D01*
X103290714Y-125488390D02*
X103243095Y-125536009D01*
X103243095Y-125536009D02*
X103147857Y-125583628D01*
X103147857Y-125583628D02*
X102766905Y-125583628D01*
X103671667Y-125059819D02*
X104338333Y-125059819D01*
X104338333Y-125059819D02*
X103909762Y-126059819D01*
X133818333Y-115754819D02*
X133485000Y-115278628D01*
X133246905Y-115754819D02*
X133246905Y-114754819D01*
X133246905Y-114754819D02*
X133627857Y-114754819D01*
X133627857Y-114754819D02*
X133723095Y-114802438D01*
X133723095Y-114802438D02*
X133770714Y-114850057D01*
X133770714Y-114850057D02*
X133818333Y-114945295D01*
X133818333Y-114945295D02*
X133818333Y-115088152D01*
X133818333Y-115088152D02*
X133770714Y-115183390D01*
X133770714Y-115183390D02*
X133723095Y-115231009D01*
X133723095Y-115231009D02*
X133627857Y-115278628D01*
X133627857Y-115278628D02*
X133246905Y-115278628D01*
X134675476Y-114754819D02*
X134485000Y-114754819D01*
X134485000Y-114754819D02*
X134389762Y-114802438D01*
X134389762Y-114802438D02*
X134342143Y-114850057D01*
X134342143Y-114850057D02*
X134246905Y-114992914D01*
X134246905Y-114992914D02*
X134199286Y-115183390D01*
X134199286Y-115183390D02*
X134199286Y-115564342D01*
X134199286Y-115564342D02*
X134246905Y-115659580D01*
X134246905Y-115659580D02*
X134294524Y-115707200D01*
X134294524Y-115707200D02*
X134389762Y-115754819D01*
X134389762Y-115754819D02*
X134580238Y-115754819D01*
X134580238Y-115754819D02*
X134675476Y-115707200D01*
X134675476Y-115707200D02*
X134723095Y-115659580D01*
X134723095Y-115659580D02*
X134770714Y-115564342D01*
X134770714Y-115564342D02*
X134770714Y-115326247D01*
X134770714Y-115326247D02*
X134723095Y-115231009D01*
X134723095Y-115231009D02*
X134675476Y-115183390D01*
X134675476Y-115183390D02*
X134580238Y-115135771D01*
X134580238Y-115135771D02*
X134389762Y-115135771D01*
X134389762Y-115135771D02*
X134294524Y-115183390D01*
X134294524Y-115183390D02*
X134246905Y-115231009D01*
X134246905Y-115231009D02*
X134199286Y-115326247D01*
X103168333Y-99419580D02*
X103120714Y-99467200D01*
X103120714Y-99467200D02*
X102977857Y-99514819D01*
X102977857Y-99514819D02*
X102882619Y-99514819D01*
X102882619Y-99514819D02*
X102739762Y-99467200D01*
X102739762Y-99467200D02*
X102644524Y-99371961D01*
X102644524Y-99371961D02*
X102596905Y-99276723D01*
X102596905Y-99276723D02*
X102549286Y-99086247D01*
X102549286Y-99086247D02*
X102549286Y-98943390D01*
X102549286Y-98943390D02*
X102596905Y-98752914D01*
X102596905Y-98752914D02*
X102644524Y-98657676D01*
X102644524Y-98657676D02*
X102739762Y-98562438D01*
X102739762Y-98562438D02*
X102882619Y-98514819D01*
X102882619Y-98514819D02*
X102977857Y-98514819D01*
X102977857Y-98514819D02*
X103120714Y-98562438D01*
X103120714Y-98562438D02*
X103168333Y-98610057D01*
X104025476Y-98848152D02*
X104025476Y-99514819D01*
X103787381Y-98467200D02*
X103549286Y-99181485D01*
X103549286Y-99181485D02*
X104168333Y-99181485D01*
X124654761Y-113005057D02*
X124559523Y-112957438D01*
X124559523Y-112957438D02*
X124464285Y-112862200D01*
X124464285Y-112862200D02*
X124321428Y-112719342D01*
X124321428Y-112719342D02*
X124226190Y-112671723D01*
X124226190Y-112671723D02*
X124130952Y-112671723D01*
X124178571Y-112909819D02*
X124083333Y-112862200D01*
X124083333Y-112862200D02*
X123988095Y-112766961D01*
X123988095Y-112766961D02*
X123940476Y-112576485D01*
X123940476Y-112576485D02*
X123940476Y-112243152D01*
X123940476Y-112243152D02*
X123988095Y-112052676D01*
X123988095Y-112052676D02*
X124083333Y-111957438D01*
X124083333Y-111957438D02*
X124178571Y-111909819D01*
X124178571Y-111909819D02*
X124369047Y-111909819D01*
X124369047Y-111909819D02*
X124464285Y-111957438D01*
X124464285Y-111957438D02*
X124559523Y-112052676D01*
X124559523Y-112052676D02*
X124607142Y-112243152D01*
X124607142Y-112243152D02*
X124607142Y-112576485D01*
X124607142Y-112576485D02*
X124559523Y-112766961D01*
X124559523Y-112766961D02*
X124464285Y-112862200D01*
X124464285Y-112862200D02*
X124369047Y-112909819D01*
X124369047Y-112909819D02*
X124178571Y-112909819D01*
X125559523Y-112909819D02*
X124988095Y-112909819D01*
X125273809Y-112909819D02*
X125273809Y-111909819D01*
X125273809Y-111909819D02*
X125178571Y-112052676D01*
X125178571Y-112052676D02*
X125083333Y-112147914D01*
X125083333Y-112147914D02*
X124988095Y-112195533D01*
X96834819Y-104331904D02*
X97644342Y-104331904D01*
X97644342Y-104331904D02*
X97739580Y-104284285D01*
X97739580Y-104284285D02*
X97787200Y-104236666D01*
X97787200Y-104236666D02*
X97834819Y-104141428D01*
X97834819Y-104141428D02*
X97834819Y-103950952D01*
X97834819Y-103950952D02*
X97787200Y-103855714D01*
X97787200Y-103855714D02*
X97739580Y-103808095D01*
X97739580Y-103808095D02*
X97644342Y-103760476D01*
X97644342Y-103760476D02*
X96834819Y-103760476D01*
X97834819Y-102760476D02*
X97834819Y-103331904D01*
X97834819Y-103046190D02*
X96834819Y-103046190D01*
X96834819Y-103046190D02*
X96977676Y-103141428D01*
X96977676Y-103141428D02*
X97072914Y-103236666D01*
X97072914Y-103236666D02*
X97120533Y-103331904D01*
X148494761Y-134055057D02*
X148399523Y-134007438D01*
X148399523Y-134007438D02*
X148304285Y-133912200D01*
X148304285Y-133912200D02*
X148161428Y-133769342D01*
X148161428Y-133769342D02*
X148066190Y-133721723D01*
X148066190Y-133721723D02*
X147970952Y-133721723D01*
X148018571Y-133959819D02*
X147923333Y-133912200D01*
X147923333Y-133912200D02*
X147828095Y-133816961D01*
X147828095Y-133816961D02*
X147780476Y-133626485D01*
X147780476Y-133626485D02*
X147780476Y-133293152D01*
X147780476Y-133293152D02*
X147828095Y-133102676D01*
X147828095Y-133102676D02*
X147923333Y-133007438D01*
X147923333Y-133007438D02*
X148018571Y-132959819D01*
X148018571Y-132959819D02*
X148209047Y-132959819D01*
X148209047Y-132959819D02*
X148304285Y-133007438D01*
X148304285Y-133007438D02*
X148399523Y-133102676D01*
X148399523Y-133102676D02*
X148447142Y-133293152D01*
X148447142Y-133293152D02*
X148447142Y-133626485D01*
X148447142Y-133626485D02*
X148399523Y-133816961D01*
X148399523Y-133816961D02*
X148304285Y-133912200D01*
X148304285Y-133912200D02*
X148209047Y-133959819D01*
X148209047Y-133959819D02*
X148018571Y-133959819D01*
X148780476Y-132959819D02*
X149399523Y-132959819D01*
X149399523Y-132959819D02*
X149066190Y-133340771D01*
X149066190Y-133340771D02*
X149209047Y-133340771D01*
X149209047Y-133340771D02*
X149304285Y-133388390D01*
X149304285Y-133388390D02*
X149351904Y-133436009D01*
X149351904Y-133436009D02*
X149399523Y-133531247D01*
X149399523Y-133531247D02*
X149399523Y-133769342D01*
X149399523Y-133769342D02*
X149351904Y-133864580D01*
X149351904Y-133864580D02*
X149304285Y-133912200D01*
X149304285Y-133912200D02*
X149209047Y-133959819D01*
X149209047Y-133959819D02*
X148923333Y-133959819D01*
X148923333Y-133959819D02*
X148828095Y-133912200D01*
X148828095Y-133912200D02*
X148780476Y-133864580D01*
X152733809Y-133804819D02*
X152733809Y-132804819D01*
X152733809Y-132804819D02*
X153305237Y-133804819D01*
X153305237Y-133804819D02*
X153305237Y-132804819D01*
X154067142Y-132804819D02*
X154067142Y-133519104D01*
X154067142Y-133519104D02*
X154019523Y-133661961D01*
X154019523Y-133661961D02*
X153924285Y-133757200D01*
X153924285Y-133757200D02*
X153781428Y-133804819D01*
X153781428Y-133804819D02*
X153686190Y-133804819D01*
X155019523Y-133804819D02*
X154543333Y-133804819D01*
X154543333Y-133804819D02*
X154543333Y-132804819D01*
X155876666Y-133804819D02*
X155305238Y-133804819D01*
X155590952Y-133804819D02*
X155590952Y-132804819D01*
X155590952Y-132804819D02*
X155495714Y-132947676D01*
X155495714Y-132947676D02*
X155400476Y-133042914D01*
X155400476Y-133042914D02*
X155305238Y-133090533D01*
X156210000Y-132804819D02*
X156829047Y-132804819D01*
X156829047Y-132804819D02*
X156495714Y-133185771D01*
X156495714Y-133185771D02*
X156638571Y-133185771D01*
X156638571Y-133185771D02*
X156733809Y-133233390D01*
X156733809Y-133233390D02*
X156781428Y-133281009D01*
X156781428Y-133281009D02*
X156829047Y-133376247D01*
X156829047Y-133376247D02*
X156829047Y-133614342D01*
X156829047Y-133614342D02*
X156781428Y-133709580D01*
X156781428Y-133709580D02*
X156733809Y-133757200D01*
X156733809Y-133757200D02*
X156638571Y-133804819D01*
X156638571Y-133804819D02*
X156352857Y-133804819D01*
X156352857Y-133804819D02*
X156257619Y-133757200D01*
X156257619Y-133757200D02*
X156210000Y-133709580D01*
X157210000Y-132900057D02*
X157257619Y-132852438D01*
X157257619Y-132852438D02*
X157352857Y-132804819D01*
X157352857Y-132804819D02*
X157590952Y-132804819D01*
X157590952Y-132804819D02*
X157686190Y-132852438D01*
X157686190Y-132852438D02*
X157733809Y-132900057D01*
X157733809Y-132900057D02*
X157781428Y-132995295D01*
X157781428Y-132995295D02*
X157781428Y-133090533D01*
X157781428Y-133090533D02*
X157733809Y-133233390D01*
X157733809Y-133233390D02*
X157162381Y-133804819D01*
X157162381Y-133804819D02*
X157781428Y-133804819D01*
X158400476Y-132804819D02*
X158495714Y-132804819D01*
X158495714Y-132804819D02*
X158590952Y-132852438D01*
X158590952Y-132852438D02*
X158638571Y-132900057D01*
X158638571Y-132900057D02*
X158686190Y-132995295D01*
X158686190Y-132995295D02*
X158733809Y-133185771D01*
X158733809Y-133185771D02*
X158733809Y-133423866D01*
X158733809Y-133423866D02*
X158686190Y-133614342D01*
X158686190Y-133614342D02*
X158638571Y-133709580D01*
X158638571Y-133709580D02*
X158590952Y-133757200D01*
X158590952Y-133757200D02*
X158495714Y-133804819D01*
X158495714Y-133804819D02*
X158400476Y-133804819D01*
X158400476Y-133804819D02*
X158305238Y-133757200D01*
X158305238Y-133757200D02*
X158257619Y-133709580D01*
X158257619Y-133709580D02*
X158210000Y-133614342D01*
X158210000Y-133614342D02*
X158162381Y-133423866D01*
X158162381Y-133423866D02*
X158162381Y-133185771D01*
X158162381Y-133185771D02*
X158210000Y-132995295D01*
X158210000Y-132995295D02*
X158257619Y-132900057D01*
X158257619Y-132900057D02*
X158305238Y-132852438D01*
X158305238Y-132852438D02*
X158400476Y-132804819D01*
X159162381Y-133804819D02*
X159162381Y-132804819D01*
X159162381Y-132804819D02*
X159400476Y-132804819D01*
X159400476Y-132804819D02*
X159543333Y-132852438D01*
X159543333Y-132852438D02*
X159638571Y-132947676D01*
X159638571Y-132947676D02*
X159686190Y-133042914D01*
X159686190Y-133042914D02*
X159733809Y-133233390D01*
X159733809Y-133233390D02*
X159733809Y-133376247D01*
X159733809Y-133376247D02*
X159686190Y-133566723D01*
X159686190Y-133566723D02*
X159638571Y-133661961D01*
X159638571Y-133661961D02*
X159543333Y-133757200D01*
X159543333Y-133757200D02*
X159400476Y-133804819D01*
X159400476Y-133804819D02*
X159162381Y-133804819D01*
X154813095Y-84119819D02*
X154813095Y-84929342D01*
X154813095Y-84929342D02*
X154860714Y-85024580D01*
X154860714Y-85024580D02*
X154908333Y-85072200D01*
X154908333Y-85072200D02*
X155003571Y-85119819D01*
X155003571Y-85119819D02*
X155194047Y-85119819D01*
X155194047Y-85119819D02*
X155289285Y-85072200D01*
X155289285Y-85072200D02*
X155336904Y-85024580D01*
X155336904Y-85024580D02*
X155384523Y-84929342D01*
X155384523Y-84929342D02*
X155384523Y-84119819D01*
X155813095Y-84215057D02*
X155860714Y-84167438D01*
X155860714Y-84167438D02*
X155955952Y-84119819D01*
X155955952Y-84119819D02*
X156194047Y-84119819D01*
X156194047Y-84119819D02*
X156289285Y-84167438D01*
X156289285Y-84167438D02*
X156336904Y-84215057D01*
X156336904Y-84215057D02*
X156384523Y-84310295D01*
X156384523Y-84310295D02*
X156384523Y-84405533D01*
X156384523Y-84405533D02*
X156336904Y-84548390D01*
X156336904Y-84548390D02*
X155765476Y-85119819D01*
X155765476Y-85119819D02*
X156384523Y-85119819D01*
X87463333Y-104594819D02*
X87130000Y-104118628D01*
X86891905Y-104594819D02*
X86891905Y-103594819D01*
X86891905Y-103594819D02*
X87272857Y-103594819D01*
X87272857Y-103594819D02*
X87368095Y-103642438D01*
X87368095Y-103642438D02*
X87415714Y-103690057D01*
X87415714Y-103690057D02*
X87463333Y-103785295D01*
X87463333Y-103785295D02*
X87463333Y-103928152D01*
X87463333Y-103928152D02*
X87415714Y-104023390D01*
X87415714Y-104023390D02*
X87368095Y-104071009D01*
X87368095Y-104071009D02*
X87272857Y-104118628D01*
X87272857Y-104118628D02*
X86891905Y-104118628D01*
X87844286Y-103690057D02*
X87891905Y-103642438D01*
X87891905Y-103642438D02*
X87987143Y-103594819D01*
X87987143Y-103594819D02*
X88225238Y-103594819D01*
X88225238Y-103594819D02*
X88320476Y-103642438D01*
X88320476Y-103642438D02*
X88368095Y-103690057D01*
X88368095Y-103690057D02*
X88415714Y-103785295D01*
X88415714Y-103785295D02*
X88415714Y-103880533D01*
X88415714Y-103880533D02*
X88368095Y-104023390D01*
X88368095Y-104023390D02*
X87796667Y-104594819D01*
X87796667Y-104594819D02*
X88415714Y-104594819D01*
X89368333Y-74244580D02*
X89320714Y-74292200D01*
X89320714Y-74292200D02*
X89177857Y-74339819D01*
X89177857Y-74339819D02*
X89082619Y-74339819D01*
X89082619Y-74339819D02*
X88939762Y-74292200D01*
X88939762Y-74292200D02*
X88844524Y-74196961D01*
X88844524Y-74196961D02*
X88796905Y-74101723D01*
X88796905Y-74101723D02*
X88749286Y-73911247D01*
X88749286Y-73911247D02*
X88749286Y-73768390D01*
X88749286Y-73768390D02*
X88796905Y-73577914D01*
X88796905Y-73577914D02*
X88844524Y-73482676D01*
X88844524Y-73482676D02*
X88939762Y-73387438D01*
X88939762Y-73387438D02*
X89082619Y-73339819D01*
X89082619Y-73339819D02*
X89177857Y-73339819D01*
X89177857Y-73339819D02*
X89320714Y-73387438D01*
X89320714Y-73387438D02*
X89368333Y-73435057D01*
X90273095Y-73339819D02*
X89796905Y-73339819D01*
X89796905Y-73339819D02*
X89749286Y-73816009D01*
X89749286Y-73816009D02*
X89796905Y-73768390D01*
X89796905Y-73768390D02*
X89892143Y-73720771D01*
X89892143Y-73720771D02*
X90130238Y-73720771D01*
X90130238Y-73720771D02*
X90225476Y-73768390D01*
X90225476Y-73768390D02*
X90273095Y-73816009D01*
X90273095Y-73816009D02*
X90320714Y-73911247D01*
X90320714Y-73911247D02*
X90320714Y-74149342D01*
X90320714Y-74149342D02*
X90273095Y-74244580D01*
X90273095Y-74244580D02*
X90225476Y-74292200D01*
X90225476Y-74292200D02*
X90130238Y-74339819D01*
X90130238Y-74339819D02*
X89892143Y-74339819D01*
X89892143Y-74339819D02*
X89796905Y-74292200D01*
X89796905Y-74292200D02*
X89749286Y-74244580D01*
X101504761Y-134265057D02*
X101409523Y-134217438D01*
X101409523Y-134217438D02*
X101314285Y-134122200D01*
X101314285Y-134122200D02*
X101171428Y-133979342D01*
X101171428Y-133979342D02*
X101076190Y-133931723D01*
X101076190Y-133931723D02*
X100980952Y-133931723D01*
X101028571Y-134169819D02*
X100933333Y-134122200D01*
X100933333Y-134122200D02*
X100838095Y-134026961D01*
X100838095Y-134026961D02*
X100790476Y-133836485D01*
X100790476Y-133836485D02*
X100790476Y-133503152D01*
X100790476Y-133503152D02*
X100838095Y-133312676D01*
X100838095Y-133312676D02*
X100933333Y-133217438D01*
X100933333Y-133217438D02*
X101028571Y-133169819D01*
X101028571Y-133169819D02*
X101219047Y-133169819D01*
X101219047Y-133169819D02*
X101314285Y-133217438D01*
X101314285Y-133217438D02*
X101409523Y-133312676D01*
X101409523Y-133312676D02*
X101457142Y-133503152D01*
X101457142Y-133503152D02*
X101457142Y-133836485D01*
X101457142Y-133836485D02*
X101409523Y-134026961D01*
X101409523Y-134026961D02*
X101314285Y-134122200D01*
X101314285Y-134122200D02*
X101219047Y-134169819D01*
X101219047Y-134169819D02*
X101028571Y-134169819D01*
X101838095Y-133265057D02*
X101885714Y-133217438D01*
X101885714Y-133217438D02*
X101980952Y-133169819D01*
X101980952Y-133169819D02*
X102219047Y-133169819D01*
X102219047Y-133169819D02*
X102314285Y-133217438D01*
X102314285Y-133217438D02*
X102361904Y-133265057D01*
X102361904Y-133265057D02*
X102409523Y-133360295D01*
X102409523Y-133360295D02*
X102409523Y-133455533D01*
X102409523Y-133455533D02*
X102361904Y-133598390D01*
X102361904Y-133598390D02*
X101790476Y-134169819D01*
X101790476Y-134169819D02*
X102409523Y-134169819D01*
X103838809Y-133804819D02*
X103838809Y-132804819D01*
X103838809Y-132804819D02*
X104410237Y-133804819D01*
X104410237Y-133804819D02*
X104410237Y-132804819D01*
X105172142Y-132804819D02*
X105172142Y-133519104D01*
X105172142Y-133519104D02*
X105124523Y-133661961D01*
X105124523Y-133661961D02*
X105029285Y-133757200D01*
X105029285Y-133757200D02*
X104886428Y-133804819D01*
X104886428Y-133804819D02*
X104791190Y-133804819D01*
X106124523Y-133804819D02*
X105648333Y-133804819D01*
X105648333Y-133804819D02*
X105648333Y-132804819D01*
X106362619Y-132804819D02*
X106981666Y-132804819D01*
X106981666Y-132804819D02*
X106648333Y-133185771D01*
X106648333Y-133185771D02*
X106791190Y-133185771D01*
X106791190Y-133185771D02*
X106886428Y-133233390D01*
X106886428Y-133233390D02*
X106934047Y-133281009D01*
X106934047Y-133281009D02*
X106981666Y-133376247D01*
X106981666Y-133376247D02*
X106981666Y-133614342D01*
X106981666Y-133614342D02*
X106934047Y-133709580D01*
X106934047Y-133709580D02*
X106886428Y-133757200D01*
X106886428Y-133757200D02*
X106791190Y-133804819D01*
X106791190Y-133804819D02*
X106505476Y-133804819D01*
X106505476Y-133804819D02*
X106410238Y-133757200D01*
X106410238Y-133757200D02*
X106362619Y-133709580D01*
X107362619Y-132900057D02*
X107410238Y-132852438D01*
X107410238Y-132852438D02*
X107505476Y-132804819D01*
X107505476Y-132804819D02*
X107743571Y-132804819D01*
X107743571Y-132804819D02*
X107838809Y-132852438D01*
X107838809Y-132852438D02*
X107886428Y-132900057D01*
X107886428Y-132900057D02*
X107934047Y-132995295D01*
X107934047Y-132995295D02*
X107934047Y-133090533D01*
X107934047Y-133090533D02*
X107886428Y-133233390D01*
X107886428Y-133233390D02*
X107315000Y-133804819D01*
X107315000Y-133804819D02*
X107934047Y-133804819D01*
X108505476Y-133233390D02*
X108410238Y-133185771D01*
X108410238Y-133185771D02*
X108362619Y-133138152D01*
X108362619Y-133138152D02*
X108315000Y-133042914D01*
X108315000Y-133042914D02*
X108315000Y-132995295D01*
X108315000Y-132995295D02*
X108362619Y-132900057D01*
X108362619Y-132900057D02*
X108410238Y-132852438D01*
X108410238Y-132852438D02*
X108505476Y-132804819D01*
X108505476Y-132804819D02*
X108695952Y-132804819D01*
X108695952Y-132804819D02*
X108791190Y-132852438D01*
X108791190Y-132852438D02*
X108838809Y-132900057D01*
X108838809Y-132900057D02*
X108886428Y-132995295D01*
X108886428Y-132995295D02*
X108886428Y-133042914D01*
X108886428Y-133042914D02*
X108838809Y-133138152D01*
X108838809Y-133138152D02*
X108791190Y-133185771D01*
X108791190Y-133185771D02*
X108695952Y-133233390D01*
X108695952Y-133233390D02*
X108505476Y-133233390D01*
X108505476Y-133233390D02*
X108410238Y-133281009D01*
X108410238Y-133281009D02*
X108362619Y-133328628D01*
X108362619Y-133328628D02*
X108315000Y-133423866D01*
X108315000Y-133423866D02*
X108315000Y-133614342D01*
X108315000Y-133614342D02*
X108362619Y-133709580D01*
X108362619Y-133709580D02*
X108410238Y-133757200D01*
X108410238Y-133757200D02*
X108505476Y-133804819D01*
X108505476Y-133804819D02*
X108695952Y-133804819D01*
X108695952Y-133804819D02*
X108791190Y-133757200D01*
X108791190Y-133757200D02*
X108838809Y-133709580D01*
X108838809Y-133709580D02*
X108886428Y-133614342D01*
X108886428Y-133614342D02*
X108886428Y-133423866D01*
X108886428Y-133423866D02*
X108838809Y-133328628D01*
X108838809Y-133328628D02*
X108791190Y-133281009D01*
X108791190Y-133281009D02*
X108695952Y-133233390D01*
X109838809Y-133804819D02*
X109267381Y-133804819D01*
X109553095Y-133804819D02*
X109553095Y-132804819D01*
X109553095Y-132804819D02*
X109457857Y-132947676D01*
X109457857Y-132947676D02*
X109362619Y-133042914D01*
X109362619Y-133042914D02*
X109267381Y-133090533D01*
X110267381Y-133804819D02*
X110267381Y-132804819D01*
X110267381Y-132804819D02*
X110505476Y-132804819D01*
X110505476Y-132804819D02*
X110648333Y-132852438D01*
X110648333Y-132852438D02*
X110743571Y-132947676D01*
X110743571Y-132947676D02*
X110791190Y-133042914D01*
X110791190Y-133042914D02*
X110838809Y-133233390D01*
X110838809Y-133233390D02*
X110838809Y-133376247D01*
X110838809Y-133376247D02*
X110791190Y-133566723D01*
X110791190Y-133566723D02*
X110743571Y-133661961D01*
X110743571Y-133661961D02*
X110648333Y-133757200D01*
X110648333Y-133757200D02*
X110505476Y-133804819D01*
X110505476Y-133804819D02*
X110267381Y-133804819D01*
X87463333Y-98149580D02*
X87415714Y-98197200D01*
X87415714Y-98197200D02*
X87272857Y-98244819D01*
X87272857Y-98244819D02*
X87177619Y-98244819D01*
X87177619Y-98244819D02*
X87034762Y-98197200D01*
X87034762Y-98197200D02*
X86939524Y-98101961D01*
X86939524Y-98101961D02*
X86891905Y-98006723D01*
X86891905Y-98006723D02*
X86844286Y-97816247D01*
X86844286Y-97816247D02*
X86844286Y-97673390D01*
X86844286Y-97673390D02*
X86891905Y-97482914D01*
X86891905Y-97482914D02*
X86939524Y-97387676D01*
X86939524Y-97387676D02*
X87034762Y-97292438D01*
X87034762Y-97292438D02*
X87177619Y-97244819D01*
X87177619Y-97244819D02*
X87272857Y-97244819D01*
X87272857Y-97244819D02*
X87415714Y-97292438D01*
X87415714Y-97292438D02*
X87463333Y-97340057D01*
X87796667Y-97244819D02*
X88415714Y-97244819D01*
X88415714Y-97244819D02*
X88082381Y-97625771D01*
X88082381Y-97625771D02*
X88225238Y-97625771D01*
X88225238Y-97625771D02*
X88320476Y-97673390D01*
X88320476Y-97673390D02*
X88368095Y-97721009D01*
X88368095Y-97721009D02*
X88415714Y-97816247D01*
X88415714Y-97816247D02*
X88415714Y-98054342D01*
X88415714Y-98054342D02*
X88368095Y-98149580D01*
X88368095Y-98149580D02*
X88320476Y-98197200D01*
X88320476Y-98197200D02*
X88225238Y-98244819D01*
X88225238Y-98244819D02*
X87939524Y-98244819D01*
X87939524Y-98244819D02*
X87844286Y-98197200D01*
X87844286Y-98197200D02*
X87796667Y-98149580D01*
X88994819Y-71080238D02*
X88518628Y-71413571D01*
X88994819Y-71651666D02*
X87994819Y-71651666D01*
X87994819Y-71651666D02*
X87994819Y-71270714D01*
X87994819Y-71270714D02*
X88042438Y-71175476D01*
X88042438Y-71175476D02*
X88090057Y-71127857D01*
X88090057Y-71127857D02*
X88185295Y-71080238D01*
X88185295Y-71080238D02*
X88328152Y-71080238D01*
X88328152Y-71080238D02*
X88423390Y-71127857D01*
X88423390Y-71127857D02*
X88471009Y-71175476D01*
X88471009Y-71175476D02*
X88518628Y-71270714D01*
X88518628Y-71270714D02*
X88518628Y-71651666D01*
X87994819Y-70794523D02*
X88994819Y-70461190D01*
X88994819Y-70461190D02*
X87994819Y-70127857D01*
X88994819Y-69270714D02*
X88994819Y-69842142D01*
X88994819Y-69556428D02*
X87994819Y-69556428D01*
X87994819Y-69556428D02*
X88137676Y-69651666D01*
X88137676Y-69651666D02*
X88232914Y-69746904D01*
X88232914Y-69746904D02*
X88280533Y-69842142D01*
X98893333Y-75384819D02*
X98560000Y-74908628D01*
X98321905Y-75384819D02*
X98321905Y-74384819D01*
X98321905Y-74384819D02*
X98702857Y-74384819D01*
X98702857Y-74384819D02*
X98798095Y-74432438D01*
X98798095Y-74432438D02*
X98845714Y-74480057D01*
X98845714Y-74480057D02*
X98893333Y-74575295D01*
X98893333Y-74575295D02*
X98893333Y-74718152D01*
X98893333Y-74718152D02*
X98845714Y-74813390D01*
X98845714Y-74813390D02*
X98798095Y-74861009D01*
X98798095Y-74861009D02*
X98702857Y-74908628D01*
X98702857Y-74908628D02*
X98321905Y-74908628D01*
X99750476Y-74718152D02*
X99750476Y-75384819D01*
X99512381Y-74337200D02*
X99274286Y-75051485D01*
X99274286Y-75051485D02*
X99893333Y-75051485D01*
X90598333Y-80469580D02*
X90550714Y-80517200D01*
X90550714Y-80517200D02*
X90407857Y-80564819D01*
X90407857Y-80564819D02*
X90312619Y-80564819D01*
X90312619Y-80564819D02*
X90169762Y-80517200D01*
X90169762Y-80517200D02*
X90074524Y-80421961D01*
X90074524Y-80421961D02*
X90026905Y-80326723D01*
X90026905Y-80326723D02*
X89979286Y-80136247D01*
X89979286Y-80136247D02*
X89979286Y-79993390D01*
X89979286Y-79993390D02*
X90026905Y-79802914D01*
X90026905Y-79802914D02*
X90074524Y-79707676D01*
X90074524Y-79707676D02*
X90169762Y-79612438D01*
X90169762Y-79612438D02*
X90312619Y-79564819D01*
X90312619Y-79564819D02*
X90407857Y-79564819D01*
X90407857Y-79564819D02*
X90550714Y-79612438D01*
X90550714Y-79612438D02*
X90598333Y-79660057D01*
X90979286Y-79660057D02*
X91026905Y-79612438D01*
X91026905Y-79612438D02*
X91122143Y-79564819D01*
X91122143Y-79564819D02*
X91360238Y-79564819D01*
X91360238Y-79564819D02*
X91455476Y-79612438D01*
X91455476Y-79612438D02*
X91503095Y-79660057D01*
X91503095Y-79660057D02*
X91550714Y-79755295D01*
X91550714Y-79755295D02*
X91550714Y-79850533D01*
X91550714Y-79850533D02*
X91503095Y-79993390D01*
X91503095Y-79993390D02*
X90931667Y-80564819D01*
X90931667Y-80564819D02*
X91550714Y-80564819D01*
X152388333Y-100784819D02*
X152055000Y-100308628D01*
X151816905Y-100784819D02*
X151816905Y-99784819D01*
X151816905Y-99784819D02*
X152197857Y-99784819D01*
X152197857Y-99784819D02*
X152293095Y-99832438D01*
X152293095Y-99832438D02*
X152340714Y-99880057D01*
X152340714Y-99880057D02*
X152388333Y-99975295D01*
X152388333Y-99975295D02*
X152388333Y-100118152D01*
X152388333Y-100118152D02*
X152340714Y-100213390D01*
X152340714Y-100213390D02*
X152293095Y-100261009D01*
X152293095Y-100261009D02*
X152197857Y-100308628D01*
X152197857Y-100308628D02*
X151816905Y-100308628D01*
X152864524Y-100784819D02*
X153055000Y-100784819D01*
X153055000Y-100784819D02*
X153150238Y-100737200D01*
X153150238Y-100737200D02*
X153197857Y-100689580D01*
X153197857Y-100689580D02*
X153293095Y-100546723D01*
X153293095Y-100546723D02*
X153340714Y-100356247D01*
X153340714Y-100356247D02*
X153340714Y-99975295D01*
X153340714Y-99975295D02*
X153293095Y-99880057D01*
X153293095Y-99880057D02*
X153245476Y-99832438D01*
X153245476Y-99832438D02*
X153150238Y-99784819D01*
X153150238Y-99784819D02*
X152959762Y-99784819D01*
X152959762Y-99784819D02*
X152864524Y-99832438D01*
X152864524Y-99832438D02*
X152816905Y-99880057D01*
X152816905Y-99880057D02*
X152769286Y-99975295D01*
X152769286Y-99975295D02*
X152769286Y-100213390D01*
X152769286Y-100213390D02*
X152816905Y-100308628D01*
X152816905Y-100308628D02*
X152864524Y-100356247D01*
X152864524Y-100356247D02*
X152959762Y-100403866D01*
X152959762Y-100403866D02*
X153150238Y-100403866D01*
X153150238Y-100403866D02*
X153245476Y-100356247D01*
X153245476Y-100356247D02*
X153293095Y-100308628D01*
X153293095Y-100308628D02*
X153340714Y-100213390D01*
X152868333Y-125424819D02*
X152535000Y-124948628D01*
X152296905Y-125424819D02*
X152296905Y-124424819D01*
X152296905Y-124424819D02*
X152677857Y-124424819D01*
X152677857Y-124424819D02*
X152773095Y-124472438D01*
X152773095Y-124472438D02*
X152820714Y-124520057D01*
X152820714Y-124520057D02*
X152868333Y-124615295D01*
X152868333Y-124615295D02*
X152868333Y-124758152D01*
X152868333Y-124758152D02*
X152820714Y-124853390D01*
X152820714Y-124853390D02*
X152773095Y-124901009D01*
X152773095Y-124901009D02*
X152677857Y-124948628D01*
X152677857Y-124948628D02*
X152296905Y-124948628D01*
X153439762Y-124853390D02*
X153344524Y-124805771D01*
X153344524Y-124805771D02*
X153296905Y-124758152D01*
X153296905Y-124758152D02*
X153249286Y-124662914D01*
X153249286Y-124662914D02*
X153249286Y-124615295D01*
X153249286Y-124615295D02*
X153296905Y-124520057D01*
X153296905Y-124520057D02*
X153344524Y-124472438D01*
X153344524Y-124472438D02*
X153439762Y-124424819D01*
X153439762Y-124424819D02*
X153630238Y-124424819D01*
X153630238Y-124424819D02*
X153725476Y-124472438D01*
X153725476Y-124472438D02*
X153773095Y-124520057D01*
X153773095Y-124520057D02*
X153820714Y-124615295D01*
X153820714Y-124615295D02*
X153820714Y-124662914D01*
X153820714Y-124662914D02*
X153773095Y-124758152D01*
X153773095Y-124758152D02*
X153725476Y-124805771D01*
X153725476Y-124805771D02*
X153630238Y-124853390D01*
X153630238Y-124853390D02*
X153439762Y-124853390D01*
X153439762Y-124853390D02*
X153344524Y-124901009D01*
X153344524Y-124901009D02*
X153296905Y-124948628D01*
X153296905Y-124948628D02*
X153249286Y-125043866D01*
X153249286Y-125043866D02*
X153249286Y-125234342D01*
X153249286Y-125234342D02*
X153296905Y-125329580D01*
X153296905Y-125329580D02*
X153344524Y-125377200D01*
X153344524Y-125377200D02*
X153439762Y-125424819D01*
X153439762Y-125424819D02*
X153630238Y-125424819D01*
X153630238Y-125424819D02*
X153725476Y-125377200D01*
X153725476Y-125377200D02*
X153773095Y-125329580D01*
X153773095Y-125329580D02*
X153820714Y-125234342D01*
X153820714Y-125234342D02*
X153820714Y-125043866D01*
X153820714Y-125043866D02*
X153773095Y-124948628D01*
X153773095Y-124948628D02*
X153725476Y-124901009D01*
X153725476Y-124901009D02*
X153630238Y-124853390D01*
X93813333Y-113229819D02*
X93480000Y-112753628D01*
X93241905Y-113229819D02*
X93241905Y-112229819D01*
X93241905Y-112229819D02*
X93622857Y-112229819D01*
X93622857Y-112229819D02*
X93718095Y-112277438D01*
X93718095Y-112277438D02*
X93765714Y-112325057D01*
X93765714Y-112325057D02*
X93813333Y-112420295D01*
X93813333Y-112420295D02*
X93813333Y-112563152D01*
X93813333Y-112563152D02*
X93765714Y-112658390D01*
X93765714Y-112658390D02*
X93718095Y-112706009D01*
X93718095Y-112706009D02*
X93622857Y-112753628D01*
X93622857Y-112753628D02*
X93241905Y-112753628D01*
X94146667Y-112229819D02*
X94765714Y-112229819D01*
X94765714Y-112229819D02*
X94432381Y-112610771D01*
X94432381Y-112610771D02*
X94575238Y-112610771D01*
X94575238Y-112610771D02*
X94670476Y-112658390D01*
X94670476Y-112658390D02*
X94718095Y-112706009D01*
X94718095Y-112706009D02*
X94765714Y-112801247D01*
X94765714Y-112801247D02*
X94765714Y-113039342D01*
X94765714Y-113039342D02*
X94718095Y-113134580D01*
X94718095Y-113134580D02*
X94670476Y-113182200D01*
X94670476Y-113182200D02*
X94575238Y-113229819D01*
X94575238Y-113229819D02*
X94289524Y-113229819D01*
X94289524Y-113229819D02*
X94194286Y-113182200D01*
X94194286Y-113182200D02*
X94146667Y-113134580D01*
X119911905Y-112849819D02*
X119911905Y-111849819D01*
X119911905Y-111849819D02*
X120150000Y-111849819D01*
X120150000Y-111849819D02*
X120292857Y-111897438D01*
X120292857Y-111897438D02*
X120388095Y-111992676D01*
X120388095Y-111992676D02*
X120435714Y-112087914D01*
X120435714Y-112087914D02*
X120483333Y-112278390D01*
X120483333Y-112278390D02*
X120483333Y-112421247D01*
X120483333Y-112421247D02*
X120435714Y-112611723D01*
X120435714Y-112611723D02*
X120388095Y-112706961D01*
X120388095Y-112706961D02*
X120292857Y-112802200D01*
X120292857Y-112802200D02*
X120150000Y-112849819D01*
X120150000Y-112849819D02*
X119911905Y-112849819D01*
X121435714Y-112849819D02*
X120864286Y-112849819D01*
X121150000Y-112849819D02*
X121150000Y-111849819D01*
X121150000Y-111849819D02*
X121054762Y-111992676D01*
X121054762Y-111992676D02*
X120959524Y-112087914D01*
X120959524Y-112087914D02*
X120864286Y-112135533D01*
X117213095Y-115049819D02*
X117213095Y-114049819D01*
X117784523Y-115049819D02*
X117355952Y-114478390D01*
X117784523Y-114049819D02*
X117213095Y-114621247D01*
X128738333Y-118199819D02*
X128405000Y-117723628D01*
X128166905Y-118199819D02*
X128166905Y-117199819D01*
X128166905Y-117199819D02*
X128547857Y-117199819D01*
X128547857Y-117199819D02*
X128643095Y-117247438D01*
X128643095Y-117247438D02*
X128690714Y-117295057D01*
X128690714Y-117295057D02*
X128738333Y-117390295D01*
X128738333Y-117390295D02*
X128738333Y-117533152D01*
X128738333Y-117533152D02*
X128690714Y-117628390D01*
X128690714Y-117628390D02*
X128643095Y-117676009D01*
X128643095Y-117676009D02*
X128547857Y-117723628D01*
X128547857Y-117723628D02*
X128166905Y-117723628D01*
X129643095Y-117199819D02*
X129166905Y-117199819D01*
X129166905Y-117199819D02*
X129119286Y-117676009D01*
X129119286Y-117676009D02*
X129166905Y-117628390D01*
X129166905Y-117628390D02*
X129262143Y-117580771D01*
X129262143Y-117580771D02*
X129500238Y-117580771D01*
X129500238Y-117580771D02*
X129595476Y-117628390D01*
X129595476Y-117628390D02*
X129643095Y-117676009D01*
X129643095Y-117676009D02*
X129690714Y-117771247D01*
X129690714Y-117771247D02*
X129690714Y-118009342D01*
X129690714Y-118009342D02*
X129643095Y-118104580D01*
X129643095Y-118104580D02*
X129595476Y-118152200D01*
X129595476Y-118152200D02*
X129500238Y-118199819D01*
X129500238Y-118199819D02*
X129262143Y-118199819D01*
X129262143Y-118199819D02*
X129166905Y-118152200D01*
X129166905Y-118152200D02*
X129119286Y-118104580D01*
D15*
%TO.C,C6*%
X97522677Y-83485000D02*
X98522677Y-83485000D01*
X98022677Y-82985000D02*
X98022677Y-83985000D01*
X103002323Y-81280000D02*
X103002323Y-91440000D01*
X103042323Y-81280000D02*
X103042323Y-91440000D01*
X103082323Y-81280000D02*
X103082323Y-91440000D01*
X103122323Y-81281000D02*
X103122323Y-91439000D01*
X103162323Y-81282000D02*
X103162323Y-91438000D01*
X103202323Y-81283000D02*
X103202323Y-91437000D01*
X103242323Y-81285000D02*
X103242323Y-91435000D01*
X103282323Y-81287000D02*
X103282323Y-91433000D01*
X103322323Y-81290000D02*
X103322323Y-91430000D01*
X103362323Y-81292000D02*
X103362323Y-91428000D01*
X103402323Y-81295000D02*
X103402323Y-91425000D01*
X103442323Y-81298000D02*
X103442323Y-91422000D01*
X103482323Y-81302000D02*
X103482323Y-91418000D01*
X103522323Y-81306000D02*
X103522323Y-91414000D01*
X103562323Y-81310000D02*
X103562323Y-91410000D01*
X103602323Y-81315000D02*
X103602323Y-91405000D01*
X103642323Y-81320000D02*
X103642323Y-91400000D01*
X103682323Y-81325000D02*
X103682323Y-91395000D01*
X103723323Y-81330000D02*
X103723323Y-91390000D01*
X103763323Y-81336000D02*
X103763323Y-91384000D01*
X103803323Y-81342000D02*
X103803323Y-91378000D01*
X103843323Y-81349000D02*
X103843323Y-91371000D01*
X103883323Y-81356000D02*
X103883323Y-91364000D01*
X103923323Y-81363000D02*
X103923323Y-91357000D01*
X103963323Y-81370000D02*
X103963323Y-91350000D01*
X104003323Y-81378000D02*
X104003323Y-91342000D01*
X104043323Y-81386000D02*
X104043323Y-91334000D01*
X104083323Y-81395000D02*
X104083323Y-91325000D01*
X104123323Y-81404000D02*
X104123323Y-91316000D01*
X104163323Y-81413000D02*
X104163323Y-91307000D01*
X104203323Y-81422000D02*
X104203323Y-91298000D01*
X104243323Y-81432000D02*
X104243323Y-91288000D01*
X104283323Y-81442000D02*
X104283323Y-85119000D01*
X104283323Y-87601000D02*
X104283323Y-91278000D01*
X104323323Y-81453000D02*
X104323323Y-85119000D01*
X104323323Y-87601000D02*
X104323323Y-91267000D01*
X104363323Y-81463000D02*
X104363323Y-85119000D01*
X104363323Y-87601000D02*
X104363323Y-91257000D01*
X104403323Y-81475000D02*
X104403323Y-85119000D01*
X104403323Y-87601000D02*
X104403323Y-91245000D01*
X104443323Y-81486000D02*
X104443323Y-85119000D01*
X104443323Y-87601000D02*
X104443323Y-91234000D01*
X104483323Y-81498000D02*
X104483323Y-85119000D01*
X104483323Y-87601000D02*
X104483323Y-91222000D01*
X104523323Y-81510000D02*
X104523323Y-85119000D01*
X104523323Y-87601000D02*
X104523323Y-91210000D01*
X104563323Y-81523000D02*
X104563323Y-85119000D01*
X104563323Y-87601000D02*
X104563323Y-91197000D01*
X104603323Y-81536000D02*
X104603323Y-85119000D01*
X104603323Y-87601000D02*
X104603323Y-91184000D01*
X104643323Y-81549000D02*
X104643323Y-85119000D01*
X104643323Y-87601000D02*
X104643323Y-91171000D01*
X104683323Y-81563000D02*
X104683323Y-85119000D01*
X104683323Y-87601000D02*
X104683323Y-91157000D01*
X104723323Y-81577000D02*
X104723323Y-85119000D01*
X104723323Y-87601000D02*
X104723323Y-91143000D01*
X104763323Y-81592000D02*
X104763323Y-85119000D01*
X104763323Y-87601000D02*
X104763323Y-91128000D01*
X104803323Y-81606000D02*
X104803323Y-85119000D01*
X104803323Y-87601000D02*
X104803323Y-91114000D01*
X104843323Y-81622000D02*
X104843323Y-85119000D01*
X104843323Y-87601000D02*
X104843323Y-91098000D01*
X104883323Y-81637000D02*
X104883323Y-85119000D01*
X104883323Y-87601000D02*
X104883323Y-91083000D01*
X104923323Y-81653000D02*
X104923323Y-85119000D01*
X104923323Y-87601000D02*
X104923323Y-91067000D01*
X104963323Y-81670000D02*
X104963323Y-85119000D01*
X104963323Y-87601000D02*
X104963323Y-91050000D01*
X105003323Y-81686000D02*
X105003323Y-85119000D01*
X105003323Y-87601000D02*
X105003323Y-91034000D01*
X105043323Y-81703000D02*
X105043323Y-85119000D01*
X105043323Y-87601000D02*
X105043323Y-91017000D01*
X105083323Y-81721000D02*
X105083323Y-85119000D01*
X105083323Y-87601000D02*
X105083323Y-90999000D01*
X105123323Y-81739000D02*
X105123323Y-85119000D01*
X105123323Y-87601000D02*
X105123323Y-90981000D01*
X105163323Y-81757000D02*
X105163323Y-85119000D01*
X105163323Y-87601000D02*
X105163323Y-90963000D01*
X105203323Y-81776000D02*
X105203323Y-85119000D01*
X105203323Y-87601000D02*
X105203323Y-90944000D01*
X105243323Y-81796000D02*
X105243323Y-85119000D01*
X105243323Y-87601000D02*
X105243323Y-90924000D01*
X105283323Y-81815000D02*
X105283323Y-85119000D01*
X105283323Y-87601000D02*
X105283323Y-90905000D01*
X105323323Y-81835000D02*
X105323323Y-85119000D01*
X105323323Y-87601000D02*
X105323323Y-90885000D01*
X105363323Y-81856000D02*
X105363323Y-85119000D01*
X105363323Y-87601000D02*
X105363323Y-90864000D01*
X105403323Y-81877000D02*
X105403323Y-85119000D01*
X105403323Y-87601000D02*
X105403323Y-90843000D01*
X105443323Y-81898000D02*
X105443323Y-85119000D01*
X105443323Y-87601000D02*
X105443323Y-90822000D01*
X105483323Y-81920000D02*
X105483323Y-85119000D01*
X105483323Y-87601000D02*
X105483323Y-90800000D01*
X105523323Y-81943000D02*
X105523323Y-85119000D01*
X105523323Y-87601000D02*
X105523323Y-90777000D01*
X105563323Y-81965000D02*
X105563323Y-85119000D01*
X105563323Y-87601000D02*
X105563323Y-90755000D01*
X105603323Y-81989000D02*
X105603323Y-85119000D01*
X105603323Y-87601000D02*
X105603323Y-90731000D01*
X105643323Y-82013000D02*
X105643323Y-85119000D01*
X105643323Y-87601000D02*
X105643323Y-90707000D01*
X105683323Y-82037000D02*
X105683323Y-85119000D01*
X105683323Y-87601000D02*
X105683323Y-90683000D01*
X105723323Y-82062000D02*
X105723323Y-85119000D01*
X105723323Y-87601000D02*
X105723323Y-90658000D01*
X105763323Y-82087000D02*
X105763323Y-85119000D01*
X105763323Y-87601000D02*
X105763323Y-90633000D01*
X105803323Y-82113000D02*
X105803323Y-85119000D01*
X105803323Y-87601000D02*
X105803323Y-90607000D01*
X105843323Y-82139000D02*
X105843323Y-85119000D01*
X105843323Y-87601000D02*
X105843323Y-90581000D01*
X105883323Y-82166000D02*
X105883323Y-85119000D01*
X105883323Y-87601000D02*
X105883323Y-90554000D01*
X105923323Y-82194000D02*
X105923323Y-85119000D01*
X105923323Y-87601000D02*
X105923323Y-90526000D01*
X105963323Y-82222000D02*
X105963323Y-85119000D01*
X105963323Y-87601000D02*
X105963323Y-90498000D01*
X106003323Y-82250000D02*
X106003323Y-85119000D01*
X106003323Y-87601000D02*
X106003323Y-90470000D01*
X106043323Y-82280000D02*
X106043323Y-85119000D01*
X106043323Y-87601000D02*
X106043323Y-90440000D01*
X106083323Y-82310000D02*
X106083323Y-85119000D01*
X106083323Y-87601000D02*
X106083323Y-90410000D01*
X106123323Y-82340000D02*
X106123323Y-85119000D01*
X106123323Y-87601000D02*
X106123323Y-90380000D01*
X106163323Y-82371000D02*
X106163323Y-85119000D01*
X106163323Y-87601000D02*
X106163323Y-90349000D01*
X106203323Y-82403000D02*
X106203323Y-85119000D01*
X106203323Y-87601000D02*
X106203323Y-90317000D01*
X106243323Y-82435000D02*
X106243323Y-85119000D01*
X106243323Y-87601000D02*
X106243323Y-90285000D01*
X106283323Y-82468000D02*
X106283323Y-85119000D01*
X106283323Y-87601000D02*
X106283323Y-90252000D01*
X106323323Y-82502000D02*
X106323323Y-85119000D01*
X106323323Y-87601000D02*
X106323323Y-90218000D01*
X106363323Y-82536000D02*
X106363323Y-85119000D01*
X106363323Y-87601000D02*
X106363323Y-90184000D01*
X106403323Y-82571000D02*
X106403323Y-85119000D01*
X106403323Y-87601000D02*
X106403323Y-90149000D01*
X106443323Y-82607000D02*
X106443323Y-85119000D01*
X106443323Y-87601000D02*
X106443323Y-90113000D01*
X106483323Y-82644000D02*
X106483323Y-85119000D01*
X106483323Y-87601000D02*
X106483323Y-90076000D01*
X106523323Y-82681000D02*
X106523323Y-85119000D01*
X106523323Y-87601000D02*
X106523323Y-90039000D01*
X106563323Y-82720000D02*
X106563323Y-85119000D01*
X106563323Y-87601000D02*
X106563323Y-90000000D01*
X106603323Y-82759000D02*
X106603323Y-85119000D01*
X106603323Y-87601000D02*
X106603323Y-89961000D01*
X106643323Y-82799000D02*
X106643323Y-85119000D01*
X106643323Y-87601000D02*
X106643323Y-89921000D01*
X106683323Y-82840000D02*
X106683323Y-85119000D01*
X106683323Y-87601000D02*
X106683323Y-89880000D01*
X106723323Y-82882000D02*
X106723323Y-85119000D01*
X106723323Y-87601000D02*
X106723323Y-89838000D01*
X106763323Y-82924000D02*
X106763323Y-89796000D01*
X106803323Y-82968000D02*
X106803323Y-89752000D01*
X106843323Y-83013000D02*
X106843323Y-89707000D01*
X106883323Y-83059000D02*
X106883323Y-89661000D01*
X106923323Y-83106000D02*
X106923323Y-89614000D01*
X106963323Y-83154000D02*
X106963323Y-89566000D01*
X107003323Y-83204000D02*
X107003323Y-89516000D01*
X107043323Y-83254000D02*
X107043323Y-89466000D01*
X107083323Y-83306000D02*
X107083323Y-89414000D01*
X107123323Y-83360000D02*
X107123323Y-89360000D01*
X107163323Y-83415000D02*
X107163323Y-89305000D01*
X107203323Y-83471000D02*
X107203323Y-89249000D01*
X107243323Y-83530000D02*
X107243323Y-89190000D01*
X107283323Y-83590000D02*
X107283323Y-89130000D01*
X107323323Y-83651000D02*
X107323323Y-89069000D01*
X107363323Y-83715000D02*
X107363323Y-89005000D01*
X107403323Y-83781000D02*
X107403323Y-88939000D01*
X107443323Y-83850000D02*
X107443323Y-88870000D01*
X107483323Y-83921000D02*
X107483323Y-88799000D01*
X107523323Y-83995000D02*
X107523323Y-88725000D01*
X107563323Y-84071000D02*
X107563323Y-88649000D01*
X107603323Y-84151000D02*
X107603323Y-88569000D01*
X107643323Y-84235000D02*
X107643323Y-88485000D01*
X107683323Y-84323000D02*
X107683323Y-88397000D01*
X107723323Y-84416000D02*
X107723323Y-88304000D01*
X107763323Y-84514000D02*
X107763323Y-88206000D01*
X107803323Y-84618000D02*
X107803323Y-88102000D01*
X107843323Y-84730000D02*
X107843323Y-87990000D01*
X107883323Y-84850000D02*
X107883323Y-87870000D01*
X107923323Y-84982000D02*
X107923323Y-87738000D01*
X107963323Y-85130000D02*
X107963323Y-87590000D01*
X108003323Y-85298000D02*
X108003323Y-87422000D01*
X108043323Y-85498000D02*
X108043323Y-87222000D01*
X108083323Y-85761000D02*
X108083323Y-86959000D01*
X108122323Y-86360000D02*
G75*
G02*
X97882323Y-86360000I-5120000J0D01*
G01*
X97882323Y-86360000D02*
G75*
G02*
X108122323Y-86360000I5120000J0D01*
G01*
%TO.C,J4*%
D12*
X185737500Y-78105000D02*
X173672500Y-78105000D01*
X173672500Y-100965000D01*
X185737500Y-100965000D01*
X185737500Y-78105000D01*
D15*
%TO.C,R1*%
X83862936Y-100230000D02*
X84317064Y-100230000D01*
X83862936Y-101700000D02*
X84317064Y-101700000D01*
%TO.C,J2*%
D12*
X72072500Y-95250000D02*
X84137500Y-95250000D01*
X84137500Y-72390000D01*
X72072500Y-72390000D01*
X72072500Y-95250000D01*
%TO.C,J1*%
X141084300Y-86995000D02*
X150037800Y-86995000D01*
X150037800Y-63500000D01*
X141084300Y-63500000D01*
X141084300Y-86995000D01*
D15*
%TO.C,D2*%
X141140000Y-112395000D02*
X142130000Y-112395000D01*
X142130000Y-110475000D02*
X142130000Y-114315000D01*
X142130000Y-114315000D02*
X149970000Y-114315000D01*
X148590000Y-114315000D02*
X148590000Y-110475000D01*
X148710000Y-114315000D02*
X148710000Y-110475000D01*
X148830000Y-114315000D02*
X148830000Y-110475000D01*
X149970000Y-110475000D02*
X142130000Y-110475000D01*
X149970000Y-114315000D02*
X149970000Y-110475000D01*
X150960000Y-112395000D02*
X149970000Y-112395000D01*
%TO.C,R7*%
X90885000Y-117965000D02*
X90885000Y-119845000D01*
X90885000Y-124605000D02*
X90885000Y-122725000D01*
X116125000Y-117965000D02*
X90885000Y-117965000D01*
X116125000Y-119845000D02*
X116125000Y-117965000D01*
X116125000Y-122725000D02*
X116125000Y-124605000D01*
X116125000Y-124605000D02*
X90885000Y-124605000D01*
D12*
%TO.C,J3*%
X186055000Y-112903000D02*
X187071000Y-112903000D01*
X186055000Y-117729000D02*
X187071000Y-117729000D01*
X186055000Y-122555000D02*
X187071000Y-122555000D01*
X187071000Y-112395000D02*
X186055000Y-112395000D01*
X187071000Y-112903000D02*
X187071000Y-112395000D01*
X187071000Y-117221000D02*
X186055000Y-117221000D01*
X187071000Y-117729000D02*
X187071000Y-117221000D01*
X187071000Y-122047000D02*
X186055000Y-122047000D01*
X187071000Y-122555000D02*
X187071000Y-122047000D01*
X177165000Y-122555000D02*
X186055000Y-122555000D01*
X186055000Y-112395000D01*
X177165000Y-112395000D01*
X177165000Y-122555000D01*
D15*
%TO.C,R6*%
X135155000Y-115527064D02*
X135155000Y-115072936D01*
X136625000Y-115527064D02*
X136625000Y-115072936D01*
%TO.C,C4*%
X99666248Y-98325000D02*
X100188752Y-98325000D01*
X99666248Y-99795000D02*
X100188752Y-99795000D01*
%TO.C,Q1*%
X125840000Y-113165000D02*
X125840000Y-111755000D01*
X128160000Y-113155000D02*
X128160000Y-111755000D01*
X125890000Y-113535000D02*
X125560000Y-113775000D01*
X125560000Y-113295000D01*
X125890000Y-113535000D01*
G36*
X125890000Y-113535000D02*
G01*
X125560000Y-113775000D01*
X125560000Y-113295000D01*
X125890000Y-113535000D01*
G37*
%TO.C,U1*%
X91420000Y-103570000D02*
X91420000Y-101620000D01*
X91420000Y-103570000D02*
X91420000Y-105520000D01*
X96540000Y-103570000D02*
X96540000Y-101620000D01*
X96540000Y-103570000D02*
X96540000Y-105520000D01*
X96775000Y-101110000D02*
X96445000Y-100870000D01*
X96775000Y-100630000D01*
X96775000Y-101110000D01*
G36*
X96775000Y-101110000D02*
G01*
X96445000Y-100870000D01*
X96775000Y-100630000D01*
X96775000Y-101110000D01*
G37*
%TO.C,Q3*%
X138470000Y-134504000D02*
X138470000Y-139745000D01*
X138470000Y-134504000D02*
X139570000Y-134504000D01*
X138470000Y-136745000D02*
X139570000Y-136745000D01*
X138470000Y-139745000D02*
X158710000Y-139745000D01*
X142370000Y-134504000D02*
X143380000Y-134504000D01*
X142370000Y-136745000D02*
X143380000Y-136745000D01*
X146180000Y-134504000D02*
X147191000Y-134504000D01*
X146180000Y-136745000D02*
X147191000Y-136745000D01*
X146941000Y-134504000D02*
X146941000Y-136745000D01*
X149990000Y-134504000D02*
X151000000Y-134504000D01*
X149990000Y-136745000D02*
X151000000Y-136745000D01*
X150240000Y-134504000D02*
X150240000Y-136745000D01*
X153800000Y-134504000D02*
X154810000Y-134504000D01*
X153800000Y-136745000D02*
X154810000Y-136745000D01*
X157610000Y-134504000D02*
X158710000Y-134504000D01*
X157610000Y-136745000D02*
X158710000Y-136745000D01*
X158710000Y-134504000D02*
X158710000Y-139745000D01*
%TO.C,U2*%
X152925000Y-85665000D02*
X152925000Y-95945000D01*
X152925000Y-95945000D02*
X158225000Y-95945000D01*
X154575000Y-85665000D02*
X152925000Y-85665000D01*
X158225000Y-85665000D02*
X156575000Y-85665000D01*
X158225000Y-95945000D02*
X158225000Y-85665000D01*
X156575000Y-85665000D02*
G75*
G02*
X154575000Y-85665000I-1000000J0D01*
G01*
D16*
%TO.C,G\u002A\u002A\u002A*%
G36*
X122071147Y-70598935D02*
G01*
X122065220Y-70621506D01*
X122053999Y-70652787D01*
X122038626Y-70689830D01*
X122020240Y-70729688D01*
X122001646Y-70766308D01*
X121921702Y-70898919D01*
X121828531Y-71022102D01*
X121722617Y-71135527D01*
X121604445Y-71238861D01*
X121474499Y-71331773D01*
X121333263Y-71413932D01*
X121181222Y-71485007D01*
X121018861Y-71544667D01*
X120846662Y-71592579D01*
X120768668Y-71609699D01*
X120721465Y-71619057D01*
X120685533Y-71625080D01*
X120656024Y-71627759D01*
X120628095Y-71627086D01*
X120596898Y-71623051D01*
X120557588Y-71615645D01*
X120526480Y-71609246D01*
X120349377Y-71565534D01*
X120182222Y-71510086D01*
X120025458Y-71443205D01*
X119879522Y-71365194D01*
X119744857Y-71276353D01*
X119621901Y-71176986D01*
X119511096Y-71067394D01*
X119412882Y-70947880D01*
X119327699Y-70818746D01*
X119298353Y-70766308D01*
X119278203Y-70726462D01*
X119260016Y-70686721D01*
X119244933Y-70650030D01*
X119234095Y-70619338D01*
X119228641Y-70597592D01*
X119229359Y-70588021D01*
X119237492Y-70590505D01*
X119253752Y-70602021D01*
X119273731Y-70619279D01*
X119362600Y-70695321D01*
X119465184Y-70771744D01*
X119578849Y-70847064D01*
X119700960Y-70919796D01*
X119828881Y-70988455D01*
X119959979Y-71051557D01*
X120091618Y-71107616D01*
X120221164Y-71155149D01*
X120229648Y-71157973D01*
X120350159Y-71194195D01*
X120461658Y-71219453D01*
X120567345Y-71233741D01*
X120670424Y-71237054D01*
X120774095Y-71229386D01*
X120881561Y-71210731D01*
X120996025Y-71181084D01*
X121073915Y-71156512D01*
X121206488Y-71108046D01*
X121340634Y-71051080D01*
X121473757Y-70987080D01*
X121603262Y-70917509D01*
X121726554Y-70843831D01*
X121841037Y-70767510D01*
X121944116Y-70690011D01*
X122026268Y-70619279D01*
X122046964Y-70601454D01*
X122062983Y-70590232D01*
X122070640Y-70588021D01*
X122071147Y-70598935D01*
G37*
G36*
X118146921Y-70024903D02*
G01*
X118145411Y-70043669D01*
X118145237Y-70044530D01*
X118130565Y-70154903D01*
X118132042Y-70263216D01*
X118149410Y-70368694D01*
X118182411Y-70470562D01*
X118230787Y-70568044D01*
X118294283Y-70660365D01*
X118372639Y-70746750D01*
X118381238Y-70754991D01*
X118443699Y-70810374D01*
X118521031Y-70872388D01*
X118613091Y-70940936D01*
X118719734Y-71015918D01*
X118840817Y-71097237D01*
X118976194Y-71184794D01*
X119125722Y-71278489D01*
X119289257Y-71378226D01*
X119328146Y-71401596D01*
X119390050Y-71438414D01*
X119461942Y-71480691D01*
X119541116Y-71526870D01*
X119624862Y-71575397D01*
X119710473Y-71624715D01*
X119795242Y-71673268D01*
X119876460Y-71719501D01*
X119951420Y-71761858D01*
X120017414Y-71798782D01*
X120067515Y-71826418D01*
X120094546Y-71841151D01*
X120112695Y-71852857D01*
X120122157Y-71864460D01*
X120123124Y-71878885D01*
X120115791Y-71899057D01*
X120100352Y-71927901D01*
X120077001Y-71968341D01*
X120076928Y-71968468D01*
X120002813Y-72081833D01*
X119914662Y-72190438D01*
X119814698Y-72292064D01*
X119705144Y-72384492D01*
X119588223Y-72465504D01*
X119564652Y-72479843D01*
X119524258Y-72502784D01*
X119486177Y-72522457D01*
X119453114Y-72537649D01*
X119427777Y-72547148D01*
X119412874Y-72549741D01*
X119410653Y-72548822D01*
X119412130Y-72539994D01*
X119421533Y-72523570D01*
X119426362Y-72516799D01*
X119451035Y-72479195D01*
X119475528Y-72433620D01*
X119498185Y-72384112D01*
X119517352Y-72334710D01*
X119531373Y-72289450D01*
X119538595Y-72252371D01*
X119539212Y-72241449D01*
X119537373Y-72226905D01*
X119528479Y-72223779D01*
X119516585Y-72226239D01*
X119375056Y-72257823D01*
X119232311Y-72279665D01*
X119083956Y-72292292D01*
X118930337Y-72296230D01*
X118780774Y-72292752D01*
X118642399Y-72282013D01*
X118511418Y-72263560D01*
X118384037Y-72236935D01*
X118337917Y-72225152D01*
X118296632Y-72213353D01*
X118254448Y-72200007D01*
X118214309Y-72186201D01*
X118179160Y-72173022D01*
X118151945Y-72161558D01*
X118135609Y-72152896D01*
X118132215Y-72149203D01*
X118138718Y-72142589D01*
X118156328Y-72129311D01*
X118182200Y-72111425D01*
X118207370Y-72094901D01*
X118256801Y-72061004D01*
X118299539Y-72027516D01*
X118333804Y-71996126D01*
X118357817Y-71968522D01*
X118369800Y-71946394D01*
X118370829Y-71939774D01*
X118363598Y-71921058D01*
X118343029Y-71896657D01*
X118310811Y-71867596D01*
X118268632Y-71834900D01*
X118218178Y-71799593D01*
X118161138Y-71762700D01*
X118099200Y-71725247D01*
X118034051Y-71688258D01*
X117967378Y-71652758D01*
X117900871Y-71619773D01*
X117836216Y-71590326D01*
X117775101Y-71565443D01*
X117726253Y-71548346D01*
X117654723Y-71528305D01*
X117594919Y-71517790D01*
X117545065Y-71516920D01*
X117503385Y-71525815D01*
X117468106Y-71544592D01*
X117442782Y-71567368D01*
X117398500Y-71622194D01*
X117352869Y-71691599D01*
X117306793Y-71773864D01*
X117261177Y-71867273D01*
X117216927Y-71970109D01*
X117180839Y-72064271D01*
X117169082Y-72096978D01*
X117159792Y-72123414D01*
X117154180Y-72140103D01*
X117153077Y-72144060D01*
X117159120Y-72140935D01*
X117175324Y-72129810D01*
X117198799Y-72112710D01*
X117212730Y-72102273D01*
X117241354Y-72082512D01*
X117277449Y-72060428D01*
X117318740Y-72037112D01*
X117362953Y-72013656D01*
X117407813Y-71991150D01*
X117451044Y-71970686D01*
X117490372Y-71953353D01*
X117523523Y-71940244D01*
X117548220Y-71932450D01*
X117562189Y-71931060D01*
X117564480Y-71933583D01*
X117562006Y-71943772D01*
X117555256Y-71966293D01*
X117545239Y-71997897D01*
X117532962Y-72035338D01*
X117531961Y-72038341D01*
X117505747Y-72121730D01*
X117484508Y-72200993D01*
X117467811Y-72279218D01*
X117455225Y-72359492D01*
X117446319Y-72444901D01*
X117440662Y-72538532D01*
X117437822Y-72643472D01*
X117437287Y-72715725D01*
X117437699Y-72788966D01*
X117439073Y-72860826D01*
X117441289Y-72929384D01*
X117444228Y-72992717D01*
X117447773Y-73048902D01*
X117451805Y-73096019D01*
X117456205Y-73132144D01*
X117460856Y-73155356D01*
X117464871Y-73163470D01*
X117472858Y-73159831D01*
X117490639Y-73147575D01*
X117515444Y-73128710D01*
X117539828Y-73109106D01*
X117676151Y-73007099D01*
X117820270Y-72918535D01*
X117970775Y-72844078D01*
X118126254Y-72784395D01*
X118285294Y-72740152D01*
X118350259Y-72726804D01*
X118385778Y-72721596D01*
X118430294Y-72717082D01*
X118480276Y-72713406D01*
X118532191Y-72710706D01*
X118582508Y-72709126D01*
X118627697Y-72708805D01*
X118664225Y-72709886D01*
X118688561Y-72712509D01*
X118691408Y-72713164D01*
X118719890Y-72720720D01*
X118646721Y-72760592D01*
X118589339Y-72793760D01*
X118524446Y-72834409D01*
X118456965Y-72879239D01*
X118391817Y-72924950D01*
X118333923Y-72968244D01*
X118317042Y-72981605D01*
X118269319Y-73022731D01*
X118216159Y-73073038D01*
X118161005Y-73128894D01*
X118107303Y-73186669D01*
X118058497Y-73242729D01*
X118018031Y-73293444D01*
X118007049Y-73308451D01*
X117921970Y-73441964D01*
X117851812Y-73582038D01*
X117796608Y-73728223D01*
X117756392Y-73880071D01*
X117731198Y-74037131D01*
X117721059Y-74198953D01*
X117726010Y-74365089D01*
X117746084Y-74535089D01*
X117781314Y-74708503D01*
X117831734Y-74884882D01*
X117878948Y-75017314D01*
X117891837Y-75051679D01*
X117901723Y-75079986D01*
X117907524Y-75099003D01*
X117908431Y-75105456D01*
X117901888Y-75100992D01*
X117885806Y-75086560D01*
X117862115Y-75063993D01*
X117832742Y-75035120D01*
X117806015Y-75008271D01*
X117750144Y-74950760D01*
X117703011Y-74899985D01*
X117661042Y-74851763D01*
X117620666Y-74801913D01*
X117578311Y-74746252D01*
X117554258Y-74713541D01*
X117445262Y-74550992D01*
X117345863Y-74376028D01*
X117256478Y-74189886D01*
X117177525Y-73993805D01*
X117109421Y-73789023D01*
X117052582Y-73576777D01*
X117007427Y-73358306D01*
X116974372Y-73134848D01*
X116955814Y-72937810D01*
X116952803Y-72892346D01*
X116950270Y-72850157D01*
X116948435Y-72815224D01*
X116947519Y-72791527D01*
X116947457Y-72787215D01*
X116947376Y-72755887D01*
X116898940Y-72781695D01*
X116845694Y-72814713D01*
X116786402Y-72859602D01*
X116723468Y-72914116D01*
X116659294Y-72976008D01*
X116596283Y-73043033D01*
X116536838Y-73112943D01*
X116515114Y-73140539D01*
X116491297Y-73171242D01*
X116470175Y-73197973D01*
X116454345Y-73217477D01*
X116447225Y-73225699D01*
X116443774Y-73227641D01*
X116441155Y-73224349D01*
X116439317Y-73214227D01*
X116438207Y-73195677D01*
X116437774Y-73167103D01*
X116437967Y-73126910D01*
X116438733Y-73073500D01*
X116440023Y-73005277D01*
X116440056Y-73003613D01*
X116444290Y-72866580D01*
X116451482Y-72741988D01*
X116462113Y-72626015D01*
X116476664Y-72514837D01*
X116495619Y-72404633D01*
X116519457Y-72291580D01*
X116541077Y-72201638D01*
X116603154Y-71987722D01*
X116681042Y-71775969D01*
X116774144Y-71567270D01*
X116881864Y-71362516D01*
X116922458Y-71295855D01*
X118422560Y-71295855D01*
X118423925Y-71305392D01*
X118433449Y-71326361D01*
X118449852Y-71356719D01*
X118471855Y-71394422D01*
X118498178Y-71437425D01*
X118527541Y-71483686D01*
X118558665Y-71531161D01*
X118590269Y-71577806D01*
X118621075Y-71621577D01*
X118649802Y-71660431D01*
X118655436Y-71667756D01*
X118731604Y-71755387D01*
X118812467Y-71828191D01*
X118897473Y-71885913D01*
X118986072Y-71928297D01*
X119077712Y-71955088D01*
X119171843Y-71966030D01*
X119267912Y-71960867D01*
X119282380Y-71958700D01*
X119314423Y-71952394D01*
X119350293Y-71943600D01*
X119386481Y-71933411D01*
X119419476Y-71922919D01*
X119445768Y-71913217D01*
X119461847Y-71905398D01*
X119465160Y-71901804D01*
X119458243Y-71894503D01*
X119438401Y-71880023D01*
X119407001Y-71859156D01*
X119365409Y-71832698D01*
X119314990Y-71801442D01*
X119257111Y-71766182D01*
X119193136Y-71727711D01*
X119124433Y-71686824D01*
X119052367Y-71644314D01*
X118978304Y-71600975D01*
X118903609Y-71557601D01*
X118829649Y-71514986D01*
X118757789Y-71473924D01*
X118689396Y-71435208D01*
X118625835Y-71399632D01*
X118568472Y-71367991D01*
X118518672Y-71341077D01*
X118477803Y-71319685D01*
X118447229Y-71304609D01*
X118428317Y-71296643D01*
X118422560Y-71295855D01*
X116922458Y-71295855D01*
X117003606Y-71162598D01*
X117138773Y-70968407D01*
X117286769Y-70780835D01*
X117446999Y-70600771D01*
X117618864Y-70429108D01*
X117801771Y-70266736D01*
X117877146Y-70205182D01*
X117913037Y-70177175D01*
X117952717Y-70147222D01*
X117993871Y-70116959D01*
X118034183Y-70088019D01*
X118071339Y-70062039D01*
X118103022Y-70040654D01*
X118126917Y-70025498D01*
X118140709Y-70018207D01*
X118142484Y-70017797D01*
X118146921Y-70024903D01*
G37*
G36*
X123167957Y-70022511D02*
G01*
X123189170Y-70035562D01*
X123218841Y-70055316D01*
X123254653Y-70080136D01*
X123294291Y-70108388D01*
X123335440Y-70138437D01*
X123375784Y-70168648D01*
X123413007Y-70197385D01*
X123422854Y-70205182D01*
X123522451Y-70287926D01*
X123625812Y-70379939D01*
X123729531Y-70477889D01*
X123830205Y-70578442D01*
X123924428Y-70678267D01*
X124008797Y-70774033D01*
X124029922Y-70799340D01*
X124184336Y-70998670D01*
X124323057Y-71202684D01*
X124446056Y-71411311D01*
X124553302Y-71624484D01*
X124644764Y-71842132D01*
X124720414Y-72064188D01*
X124780220Y-72290582D01*
X124824153Y-72521245D01*
X124842014Y-72654034D01*
X124845774Y-72694104D01*
X124849487Y-72746966D01*
X124852967Y-72808961D01*
X124856025Y-72876431D01*
X124858474Y-72945719D01*
X124859943Y-73003613D01*
X124861243Y-73072177D01*
X124862022Y-73125893D01*
X124862228Y-73166357D01*
X124861809Y-73195167D01*
X124860714Y-73213918D01*
X124858892Y-73224207D01*
X124856291Y-73227631D01*
X124852859Y-73225786D01*
X124852775Y-73225699D01*
X124843061Y-73214341D01*
X124825976Y-73193146D01*
X124804114Y-73165370D01*
X124784885Y-73140539D01*
X124727485Y-73070112D01*
X124665581Y-73001693D01*
X124601575Y-72937530D01*
X124537871Y-72879867D01*
X124476871Y-72830952D01*
X124420978Y-72793031D01*
X124401059Y-72781695D01*
X124352624Y-72755887D01*
X124352496Y-72783102D01*
X124351431Y-72819569D01*
X124348713Y-72868581D01*
X124344655Y-72926351D01*
X124339571Y-72989092D01*
X124333772Y-73053017D01*
X124327573Y-73114337D01*
X124321285Y-73169265D01*
X124319344Y-73184572D01*
X124282993Y-73411846D01*
X124234245Y-73632636D01*
X124173475Y-73846043D01*
X124101059Y-74051169D01*
X124017370Y-74247116D01*
X123922782Y-74432987D01*
X123817671Y-74607882D01*
X123702411Y-74770905D01*
X123611025Y-74883115D01*
X123579690Y-74918491D01*
X123545915Y-74955216D01*
X123511482Y-74991513D01*
X123478174Y-75025604D01*
X123447772Y-75055710D01*
X123422059Y-75080054D01*
X123402818Y-75096858D01*
X123391831Y-75104343D01*
X123389941Y-75103654D01*
X123393003Y-75091166D01*
X123400833Y-75069538D01*
X123407033Y-75054474D01*
X123438269Y-74974800D01*
X123469025Y-74883283D01*
X123498027Y-74784512D01*
X123524001Y-74683073D01*
X123545674Y-74583557D01*
X123559632Y-74504747D01*
X123567258Y-74440785D01*
X123572388Y-74366055D01*
X123575048Y-74284662D01*
X123575263Y-74200711D01*
X123573056Y-74118309D01*
X123568452Y-74041560D01*
X123561476Y-73974570D01*
X123556262Y-73941308D01*
X123521220Y-73787678D01*
X123474117Y-73644071D01*
X123414117Y-73508483D01*
X123340389Y-73378911D01*
X123292950Y-73308451D01*
X123256008Y-73260309D01*
X123209584Y-73205618D01*
X123157123Y-73148009D01*
X123102069Y-73091115D01*
X123047867Y-73038566D01*
X122997960Y-72993994D01*
X122982958Y-72981605D01*
X122928586Y-72939855D01*
X122865315Y-72894585D01*
X122798067Y-72849093D01*
X122731761Y-72806680D01*
X122671320Y-72770643D01*
X122653278Y-72760592D01*
X122580109Y-72720720D01*
X122608592Y-72713164D01*
X122630324Y-72710245D01*
X122664893Y-72708894D01*
X122708766Y-72708969D01*
X122758411Y-72710331D01*
X122810298Y-72712837D01*
X122860895Y-72716346D01*
X122906671Y-72720717D01*
X122944094Y-72725809D01*
X122949740Y-72726804D01*
X123110956Y-72764874D01*
X123268681Y-72818728D01*
X123421900Y-72887889D01*
X123569600Y-72971876D01*
X123710765Y-73070211D01*
X123760172Y-73109344D01*
X123788775Y-73132148D01*
X123812684Y-73150050D01*
X123829122Y-73161043D01*
X123835129Y-73163470D01*
X123839898Y-73152596D01*
X123844516Y-73127194D01*
X123848866Y-73089185D01*
X123852828Y-73040492D01*
X123856284Y-72983036D01*
X123859116Y-72918740D01*
X123861205Y-72849527D01*
X123862433Y-72777317D01*
X123862713Y-72715725D01*
X123861405Y-72602203D01*
X123857549Y-72501909D01*
X123850713Y-72411755D01*
X123840464Y-72328654D01*
X123826372Y-72249519D01*
X123808006Y-72171264D01*
X123784933Y-72090802D01*
X123768038Y-72038341D01*
X123755630Y-72000589D01*
X123745405Y-71968425D01*
X123738371Y-71945097D01*
X123735535Y-71933853D01*
X123735520Y-71933583D01*
X123742295Y-71930798D01*
X123761106Y-71935046D01*
X123789677Y-71945235D01*
X123825734Y-71960273D01*
X123867000Y-71979071D01*
X123911202Y-72000538D01*
X123956065Y-72023581D01*
X123999313Y-72047111D01*
X124038672Y-72070036D01*
X124071867Y-72091265D01*
X124087269Y-72102273D01*
X124113354Y-72121653D01*
X124133650Y-72136097D01*
X124145269Y-72143581D01*
X124146922Y-72144060D01*
X124144294Y-72135422D01*
X124137214Y-72114813D01*
X124126894Y-72085712D01*
X124119160Y-72064271D01*
X124076798Y-71954734D01*
X124032294Y-71853154D01*
X123986556Y-71761249D01*
X123940489Y-71680735D01*
X123894996Y-71613331D01*
X123857218Y-71567368D01*
X123825851Y-71540422D01*
X123789536Y-71523457D01*
X123746497Y-71516354D01*
X123694959Y-71518993D01*
X123633146Y-71531256D01*
X123573746Y-71548346D01*
X123492247Y-71578061D01*
X123402947Y-71617314D01*
X123309656Y-71663987D01*
X123216184Y-71715961D01*
X123126342Y-71771115D01*
X123043939Y-71827332D01*
X122972786Y-71882492D01*
X122972368Y-71882843D01*
X122945937Y-71907451D01*
X122932220Y-71926769D01*
X122929170Y-71939774D01*
X122936117Y-71959381D01*
X122955770Y-71985103D01*
X122986351Y-72015254D01*
X123026080Y-72048144D01*
X123073178Y-72082084D01*
X123092629Y-72094901D01*
X123123123Y-72115018D01*
X123147669Y-72132200D01*
X123163423Y-72144390D01*
X123167784Y-72149203D01*
X123160377Y-72155370D01*
X123140116Y-72165080D01*
X123109934Y-72177248D01*
X123072768Y-72190786D01*
X123031554Y-72204610D01*
X122989228Y-72217635D01*
X122962083Y-72225272D01*
X122852673Y-72251661D01*
X122743687Y-72271442D01*
X122631566Y-72284990D01*
X122512754Y-72292679D01*
X122383691Y-72294883D01*
X122309403Y-72293944D01*
X122226006Y-72291613D01*
X122154956Y-72288232D01*
X122092153Y-72283337D01*
X122033499Y-72276468D01*
X121974894Y-72267161D01*
X121912240Y-72254955D01*
X121857130Y-72242946D01*
X121820570Y-72235142D01*
X121790230Y-72229474D01*
X121769487Y-72226521D01*
X121761814Y-72226658D01*
X121760620Y-72237463D01*
X121763751Y-72259930D01*
X121770273Y-72290131D01*
X121779256Y-72324139D01*
X121789766Y-72358025D01*
X121798970Y-72383214D01*
X121814324Y-72416652D01*
X121834856Y-72455076D01*
X121855997Y-72489970D01*
X121872461Y-72516175D01*
X121884018Y-72536815D01*
X121888764Y-72548403D01*
X121888575Y-72549592D01*
X121878334Y-72549261D01*
X121856813Y-72541858D01*
X121826894Y-72528695D01*
X121791458Y-72511084D01*
X121753385Y-72490336D01*
X121735347Y-72479843D01*
X121617244Y-72401327D01*
X121506072Y-72310960D01*
X121404055Y-72210960D01*
X121313416Y-72103547D01*
X121236376Y-71990940D01*
X121223072Y-71968468D01*
X121203840Y-71935975D01*
X121189400Y-71910914D01*
X121185418Y-71901804D01*
X121834839Y-71901804D01*
X121842222Y-71907525D01*
X121861949Y-71916024D01*
X121890387Y-71926138D01*
X121923905Y-71936700D01*
X121958870Y-71946547D01*
X121991651Y-71954513D01*
X122010859Y-71958264D01*
X122101732Y-71965836D01*
X122193933Y-71959202D01*
X122215185Y-71955566D01*
X122292353Y-71935772D01*
X122365758Y-71906195D01*
X122436293Y-71866013D01*
X122504852Y-71814403D01*
X122572326Y-71750544D01*
X122639608Y-71673613D01*
X122707591Y-71582788D01*
X122777167Y-71477248D01*
X122830268Y-71389082D01*
X122849551Y-71355055D01*
X122864823Y-71326319D01*
X122874645Y-71305719D01*
X122877577Y-71296099D01*
X122877440Y-71295855D01*
X122868447Y-71297800D01*
X122846740Y-71307467D01*
X122813685Y-71324062D01*
X122770647Y-71346790D01*
X122718993Y-71374857D01*
X122660087Y-71407471D01*
X122595297Y-71443837D01*
X122525989Y-71483161D01*
X122453527Y-71524650D01*
X122379277Y-71567509D01*
X122304607Y-71610945D01*
X122230881Y-71654164D01*
X122159465Y-71696372D01*
X122091725Y-71736775D01*
X122029028Y-71774580D01*
X121972739Y-71808992D01*
X121924223Y-71839218D01*
X121884848Y-71864464D01*
X121855977Y-71883936D01*
X121838979Y-71896841D01*
X121834839Y-71901804D01*
X121185418Y-71901804D01*
X121180846Y-71891346D01*
X121179267Y-71875334D01*
X121185757Y-71860938D01*
X121201407Y-71846222D01*
X121227309Y-71829247D01*
X121264555Y-71808075D01*
X121314236Y-71780767D01*
X121335420Y-71769037D01*
X121492018Y-71681095D01*
X121646747Y-71592622D01*
X121798163Y-71504499D01*
X121944819Y-71417606D01*
X122085268Y-71332825D01*
X122218065Y-71251035D01*
X122341764Y-71173118D01*
X122454919Y-71099954D01*
X122556083Y-71032424D01*
X122635916Y-70977027D01*
X122726669Y-70911329D01*
X122804408Y-70852028D01*
X122870588Y-70797678D01*
X122926662Y-70746836D01*
X122974083Y-70698055D01*
X123014304Y-70649892D01*
X123048779Y-70600902D01*
X123078962Y-70549640D01*
X123092824Y-70522856D01*
X123135158Y-70421315D01*
X123161247Y-70319138D01*
X123171248Y-70215108D01*
X123165319Y-70108010D01*
X123154749Y-70044530D01*
X123153023Y-70025415D01*
X123157249Y-70017808D01*
X123157516Y-70017797D01*
X123167957Y-70022511D01*
G37*
G36*
X122591796Y-73066056D02*
G01*
X122621178Y-73067792D01*
X122643528Y-73071772D01*
X122663549Y-73078721D01*
X122678215Y-73085504D01*
X122727247Y-73117501D01*
X122774713Y-73163536D01*
X122818869Y-73221199D01*
X122857972Y-73288078D01*
X122890280Y-73361761D01*
X122901451Y-73394310D01*
X122910285Y-73418696D01*
X122918427Y-73435124D01*
X122922931Y-73439559D01*
X122926839Y-73444463D01*
X122925984Y-73446285D01*
X122926771Y-73456206D01*
X122931834Y-73478693D01*
X122940385Y-73510660D01*
X122951637Y-73549019D01*
X122954823Y-73559384D01*
X122983952Y-73655010D01*
X123009746Y-73743186D01*
X123031872Y-73822625D01*
X123049998Y-73892042D01*
X123063793Y-73950150D01*
X123072923Y-73995663D01*
X123077058Y-74027295D01*
X123077275Y-74033567D01*
X123074318Y-74074257D01*
X123064962Y-74116905D01*
X123048486Y-74162826D01*
X123024164Y-74213331D01*
X122991274Y-74269733D01*
X122949092Y-74333345D01*
X122896894Y-74405480D01*
X122833957Y-74487450D01*
X122811226Y-74516230D01*
X122717156Y-74634644D01*
X122711482Y-74701301D01*
X122704113Y-74776182D01*
X122693840Y-74863577D01*
X122681191Y-74959910D01*
X122666695Y-75061607D01*
X122650882Y-75165093D01*
X122634281Y-75266793D01*
X122617419Y-75363132D01*
X122600828Y-75450534D01*
X122599980Y-75454779D01*
X122567882Y-75604817D01*
X122534112Y-75741626D01*
X122497701Y-75868410D01*
X122457679Y-75988376D01*
X122413079Y-76104731D01*
X122379948Y-76182726D01*
X122293242Y-76387539D01*
X122218024Y-76582930D01*
X122153738Y-76770689D01*
X122099827Y-76952603D01*
X122055735Y-77130460D01*
X122020906Y-77306050D01*
X122010179Y-77371295D01*
X122004757Y-77411618D01*
X122000724Y-77455153D01*
X121997931Y-77504908D01*
X121996228Y-77563891D01*
X121995464Y-77635107D01*
X121995388Y-77667409D01*
X121995795Y-77745246D01*
X121997342Y-77809715D01*
X122000388Y-77863883D01*
X122005291Y-77910812D01*
X122012411Y-77953570D01*
X122022105Y-77995220D01*
X122034734Y-78038827D01*
X122041269Y-78059291D01*
X122051113Y-78096432D01*
X122052364Y-78126942D01*
X122044456Y-78157760D01*
X122030789Y-78188035D01*
X121999093Y-78236466D01*
X121953042Y-78283554D01*
X121892233Y-78329562D01*
X121816263Y-78374751D01*
X121724730Y-78419384D01*
X121617230Y-78463722D01*
X121592112Y-78473198D01*
X121440448Y-78531311D01*
X121284196Y-78594705D01*
X121120970Y-78664393D01*
X120948387Y-78741388D01*
X120799467Y-78810101D01*
X120754534Y-78830852D01*
X120714397Y-78848901D01*
X120681547Y-78863166D01*
X120658472Y-78872568D01*
X120647663Y-78876027D01*
X120647514Y-78876026D01*
X120636535Y-78872437D01*
X120614125Y-78863074D01*
X120583635Y-78849392D01*
X120551263Y-78834210D01*
X120382825Y-78755444D01*
X120211971Y-78678904D01*
X120042828Y-78606363D01*
X119879521Y-78539595D01*
X119740800Y-78485850D01*
X119635612Y-78444506D01*
X119545540Y-78405046D01*
X119469450Y-78366747D01*
X119406211Y-78328890D01*
X119354689Y-78290754D01*
X119313752Y-78251618D01*
X119282265Y-78210761D01*
X119267132Y-78184522D01*
X119255660Y-78157198D01*
X119250314Y-78129570D01*
X119251158Y-78097817D01*
X119258252Y-78058123D01*
X119269915Y-78012875D01*
X119285271Y-77951046D01*
X119296376Y-77889169D01*
X119303694Y-77823130D01*
X119307688Y-77748811D01*
X119308827Y-77667574D01*
X119307423Y-77632132D01*
X119631258Y-77632132D01*
X119636373Y-77654047D01*
X119645891Y-77683425D01*
X119658470Y-77716576D01*
X119672765Y-77749809D01*
X119687432Y-77779433D01*
X119693073Y-77789397D01*
X119717636Y-77824280D01*
X119752347Y-77864965D01*
X119793748Y-77907998D01*
X119838383Y-77949929D01*
X119882793Y-77987305D01*
X119915212Y-78011184D01*
X120010483Y-78067620D01*
X120114807Y-78113419D01*
X120229498Y-78149025D01*
X120355868Y-78174879D01*
X120432915Y-78185340D01*
X120479528Y-78188965D01*
X120538351Y-78190978D01*
X120605674Y-78191484D01*
X120677790Y-78190584D01*
X120750990Y-78188382D01*
X120821565Y-78184979D01*
X120885808Y-78180479D01*
X120940009Y-78174985D01*
X120970894Y-78170443D01*
X121100398Y-78140907D01*
X121218202Y-78100301D01*
X121325029Y-78048348D01*
X121384787Y-78011184D01*
X121426603Y-77979794D01*
X121471354Y-77941143D01*
X121515583Y-77898682D01*
X121555832Y-77855863D01*
X121588644Y-77816139D01*
X121606926Y-77789397D01*
X121621367Y-77762235D01*
X121635971Y-77729996D01*
X121649394Y-77696371D01*
X121660291Y-77665049D01*
X121667320Y-77639722D01*
X121669135Y-77624081D01*
X121668109Y-77621372D01*
X121659618Y-77623264D01*
X121641159Y-77632073D01*
X121616664Y-77645914D01*
X121615750Y-77646464D01*
X121582423Y-77665586D01*
X121560336Y-77674601D01*
X121547209Y-77672785D01*
X121540765Y-77659412D01*
X121538725Y-77633758D01*
X121538629Y-77621935D01*
X121537272Y-77580747D01*
X121533522Y-77527737D01*
X121527863Y-77467281D01*
X121520778Y-77403756D01*
X121512750Y-77341537D01*
X121504262Y-77285001D01*
X121496872Y-77243801D01*
X121472978Y-77141407D01*
X121443808Y-77045542D01*
X121410200Y-76958109D01*
X121372992Y-76881008D01*
X121333022Y-76816141D01*
X121291126Y-76765409D01*
X121282394Y-76756944D01*
X121262990Y-76738934D01*
X121262676Y-76917339D01*
X121254364Y-77126669D01*
X121230333Y-77337893D01*
X121190845Y-77548974D01*
X121171418Y-77630395D01*
X121156783Y-77685522D01*
X121143822Y-77726920D01*
X121131242Y-77757041D01*
X121117745Y-77778336D01*
X121102037Y-77793258D01*
X121082823Y-77804258D01*
X121078555Y-77806157D01*
X120973679Y-77845876D01*
X120871277Y-77872970D01*
X120766053Y-77888520D01*
X120652712Y-77893605D01*
X120650000Y-77893607D01*
X120536412Y-77888747D01*
X120431062Y-77873448D01*
X120328655Y-77846628D01*
X120223895Y-77807208D01*
X120221445Y-77806157D01*
X120201395Y-77795636D01*
X120185105Y-77781672D01*
X120171279Y-77761812D01*
X120158621Y-77733606D01*
X120145837Y-77694601D01*
X120131630Y-77642345D01*
X120128582Y-77630395D01*
X120083166Y-77419917D01*
X120053107Y-77208506D01*
X120038666Y-76998200D01*
X120037324Y-76917339D01*
X120037010Y-76738934D01*
X120017606Y-76756944D01*
X119975420Y-76804550D01*
X119934987Y-76866680D01*
X119897146Y-76941432D01*
X119862733Y-77026906D01*
X119832587Y-77121201D01*
X119807545Y-77222414D01*
X119803127Y-77243801D01*
X119794633Y-77291823D01*
X119786177Y-77349338D01*
X119778244Y-77411971D01*
X119771316Y-77475346D01*
X119765876Y-77535087D01*
X119762407Y-77586818D01*
X119761370Y-77621935D01*
X119760320Y-77651991D01*
X119755652Y-77669516D01*
X119745086Y-77675235D01*
X119726346Y-77669872D01*
X119697152Y-77654153D01*
X119684250Y-77646464D01*
X119659616Y-77632482D01*
X119640879Y-77623466D01*
X119631975Y-77621301D01*
X119631890Y-77621372D01*
X119631258Y-77632132D01*
X119307423Y-77632132D01*
X119302506Y-77508059D01*
X119283507Y-77339972D01*
X119251773Y-77163098D01*
X119207249Y-76977220D01*
X119149878Y-76782124D01*
X119079605Y-76577594D01*
X118996373Y-76363413D01*
X118930272Y-76207402D01*
X118885306Y-76100676D01*
X118845815Y-75997926D01*
X118810745Y-75895687D01*
X118779045Y-75790491D01*
X118749662Y-75678873D01*
X118721544Y-75557365D01*
X118696776Y-75438329D01*
X118685434Y-75378786D01*
X118673376Y-75310825D01*
X118660926Y-75236686D01*
X118648417Y-75158665D01*
X119216847Y-75158665D01*
X119219595Y-75333787D01*
X119237694Y-75503727D01*
X119271047Y-75668117D01*
X119319557Y-75826588D01*
X119383126Y-75978772D01*
X119461659Y-76124300D01*
X119477418Y-76149825D01*
X119503055Y-76189370D01*
X119529715Y-76228489D01*
X119555614Y-76264780D01*
X119578967Y-76295841D01*
X119597991Y-76319271D01*
X119610903Y-76332668D01*
X119614878Y-76334896D01*
X119616954Y-76327095D01*
X119618769Y-76305386D01*
X119620213Y-76272314D01*
X119621176Y-76230421D01*
X119621548Y-76182249D01*
X119621549Y-76180670D01*
X119622010Y-76113736D01*
X119623275Y-76037554D01*
X119625231Y-75955177D01*
X119627770Y-75869664D01*
X119630779Y-75784070D01*
X119634148Y-75701451D01*
X119637766Y-75624863D01*
X119641522Y-75557363D01*
X119645306Y-75502007D01*
X119646836Y-75483568D01*
X119651454Y-75441556D01*
X119657248Y-75403373D01*
X119663460Y-75373410D01*
X119668606Y-75357465D01*
X119687382Y-75332033D01*
X119720305Y-75303208D01*
X119765620Y-75271841D01*
X119821575Y-75238784D01*
X119886418Y-75204889D01*
X119958394Y-75171008D01*
X120035752Y-75137993D01*
X120116737Y-75106695D01*
X120199598Y-75077967D01*
X120282581Y-75052660D01*
X120313053Y-75044310D01*
X120421140Y-75019000D01*
X120523472Y-75002493D01*
X120622660Y-74994973D01*
X120721316Y-74996628D01*
X120822052Y-75007644D01*
X120927479Y-75028206D01*
X121040209Y-75058501D01*
X121162855Y-75098714D01*
X121184420Y-75106386D01*
X121260249Y-75135395D01*
X121333932Y-75166914D01*
X121403621Y-75199905D01*
X121467470Y-75233332D01*
X121523630Y-75266156D01*
X121570256Y-75297340D01*
X121605500Y-75325847D01*
X121627516Y-75350639D01*
X121631394Y-75357465D01*
X121637355Y-75376731D01*
X121643555Y-75408028D01*
X121649237Y-75446966D01*
X121653163Y-75483568D01*
X121656926Y-75533075D01*
X121660707Y-75595976D01*
X121664395Y-75669215D01*
X121667879Y-75749736D01*
X121671049Y-75834483D01*
X121673793Y-75920399D01*
X121676002Y-76004428D01*
X121677563Y-76083514D01*
X121678366Y-76154600D01*
X121678450Y-76180670D01*
X121678802Y-76228997D01*
X121679749Y-76271125D01*
X121681179Y-76304511D01*
X121682984Y-76326613D01*
X121685054Y-76334888D01*
X121685121Y-76334896D01*
X121693691Y-76328386D01*
X121709403Y-76310457D01*
X121730474Y-76283510D01*
X121755120Y-76249946D01*
X121781558Y-76212168D01*
X121808004Y-76172576D01*
X121822582Y-76149825D01*
X121903639Y-76005781D01*
X121969847Y-75854856D01*
X122021086Y-75697504D01*
X122057238Y-75534176D01*
X122078184Y-75365328D01*
X122083803Y-75191412D01*
X122083152Y-75158665D01*
X122081432Y-75119553D01*
X122077632Y-75095438D01*
X122069845Y-75084866D01*
X122056163Y-75086385D01*
X122034681Y-75098540D01*
X122018555Y-75109437D01*
X121995934Y-75124753D01*
X121976254Y-75136337D01*
X121957488Y-75143894D01*
X121937608Y-75147133D01*
X121914588Y-75145761D01*
X121886401Y-75139483D01*
X121851019Y-75128009D01*
X121806417Y-75111045D01*
X121750566Y-75088297D01*
X121686011Y-75061384D01*
X121531737Y-74997499D01*
X121391505Y-74940757D01*
X121264644Y-74890935D01*
X121150482Y-74847808D01*
X121048349Y-74811150D01*
X120957573Y-74780738D01*
X120877484Y-74756347D01*
X120807410Y-74737752D01*
X120746681Y-74724728D01*
X120694625Y-74717050D01*
X120650571Y-74714495D01*
X120650000Y-74714494D01*
X120606054Y-74716979D01*
X120554116Y-74724582D01*
X120493515Y-74737528D01*
X120423578Y-74756043D01*
X120343636Y-74780351D01*
X120253017Y-74810675D01*
X120151050Y-74847242D01*
X120037064Y-74890276D01*
X119910387Y-74940002D01*
X119770350Y-74996644D01*
X119616280Y-75060426D01*
X119613988Y-75061384D01*
X119545718Y-75089834D01*
X119490601Y-75112226D01*
X119446611Y-75128852D01*
X119411719Y-75140005D01*
X119383900Y-75145979D01*
X119361127Y-75147066D01*
X119341371Y-75143559D01*
X119322607Y-75135751D01*
X119302807Y-75123934D01*
X119281444Y-75109437D01*
X119254767Y-75091966D01*
X119236958Y-75084319D01*
X119226109Y-75087949D01*
X119220314Y-75104310D01*
X119217666Y-75134855D01*
X119216847Y-75158665D01*
X118648417Y-75158665D01*
X118648409Y-75158612D01*
X118636146Y-75078845D01*
X118624463Y-74999625D01*
X118613683Y-74923196D01*
X118604129Y-74851798D01*
X118596125Y-74787673D01*
X118589995Y-74733064D01*
X118586063Y-74690212D01*
X118584652Y-74661706D01*
X118582366Y-74649388D01*
X118574784Y-74632954D01*
X118560687Y-74610548D01*
X118538853Y-74580311D01*
X118508064Y-74540386D01*
X118489625Y-74517085D01*
X118423779Y-74432877D01*
X118368747Y-74358993D01*
X118323799Y-74294038D01*
X118288201Y-74236613D01*
X118261223Y-74185322D01*
X118242133Y-74138768D01*
X118230198Y-74095554D01*
X118224687Y-74054284D01*
X118224869Y-74013560D01*
X118224988Y-74011877D01*
X118228979Y-73984127D01*
X118237613Y-73942839D01*
X118250325Y-73890079D01*
X118266546Y-73827912D01*
X118285710Y-73758404D01*
X118307252Y-73683622D01*
X118330603Y-73605630D01*
X118355198Y-73526496D01*
X118375107Y-73464612D01*
X118409961Y-73367076D01*
X118445948Y-73284924D01*
X118483759Y-73217094D01*
X118524085Y-73162526D01*
X118567615Y-73120157D01*
X118615040Y-73088927D01*
X118621785Y-73085504D01*
X118642904Y-73076124D01*
X118663160Y-73070207D01*
X118687253Y-73067025D01*
X118719886Y-73065855D01*
X118749319Y-73065838D01*
X118791732Y-73066688D01*
X118824018Y-73069355D01*
X118852490Y-73074935D01*
X118883461Y-73084525D01*
X118907718Y-73093352D01*
X118979900Y-73125671D01*
X119059382Y-73171044D01*
X119144721Y-73228590D01*
X119210893Y-73278570D01*
X119240994Y-73303206D01*
X119275893Y-73333239D01*
X119313737Y-73366913D01*
X119352677Y-73402473D01*
X119390859Y-73438163D01*
X119426434Y-73472225D01*
X119457550Y-73502904D01*
X119482356Y-73528444D01*
X119499001Y-73547088D01*
X119505634Y-73557080D01*
X119505483Y-73558052D01*
X119496691Y-73556564D01*
X119475985Y-73548919D01*
X119446190Y-73536273D01*
X119410131Y-73519782D01*
X119398518Y-73514260D01*
X119308419Y-73474510D01*
X119215944Y-73440127D01*
X119124263Y-73411986D01*
X119036550Y-73390963D01*
X118955974Y-73377934D01*
X118889452Y-73373756D01*
X118850016Y-73374759D01*
X118824643Y-73378157D01*
X118811041Y-73384530D01*
X118806917Y-73394463D01*
X118806916Y-73394711D01*
X118812855Y-73409150D01*
X118829926Y-73433432D01*
X118857014Y-73466414D01*
X118893000Y-73506955D01*
X118936769Y-73553911D01*
X118987202Y-73606143D01*
X119043183Y-73662506D01*
X119103594Y-73721859D01*
X119167320Y-73783061D01*
X119233242Y-73844968D01*
X119300244Y-73906439D01*
X119358195Y-73958366D01*
X119397840Y-73993352D01*
X119441102Y-74031327D01*
X119486064Y-74070628D01*
X119530809Y-74109594D01*
X119573420Y-74146561D01*
X119611979Y-74179869D01*
X119644570Y-74207854D01*
X119669275Y-74228854D01*
X119684176Y-74241208D01*
X119686632Y-74243116D01*
X119685623Y-74249975D01*
X119684659Y-74251047D01*
X119674106Y-74251782D01*
X119650154Y-74248221D01*
X119615115Y-74240953D01*
X119571304Y-74230571D01*
X119521033Y-74217665D01*
X119466615Y-74202826D01*
X119410365Y-74186646D01*
X119354595Y-74169716D01*
X119308827Y-74155021D01*
X119221091Y-74124784D01*
X119127018Y-74090193D01*
X119031664Y-74053230D01*
X118940086Y-74015873D01*
X118857340Y-73980101D01*
X118828392Y-73966932D01*
X118796611Y-73952490D01*
X118770497Y-73941118D01*
X118753582Y-73934328D01*
X118749292Y-73933082D01*
X118746366Y-73940231D01*
X118748100Y-73959260D01*
X118753661Y-73986541D01*
X118762217Y-74018446D01*
X118772933Y-74051348D01*
X118781613Y-74073841D01*
X118817902Y-74144553D01*
X118869222Y-74219557D01*
X118934968Y-74298021D01*
X118979705Y-74345023D01*
X119029872Y-74393015D01*
X119083944Y-74440277D01*
X119139723Y-74485247D01*
X119195009Y-74526360D01*
X119247601Y-74562051D01*
X119295300Y-74590756D01*
X119335907Y-74610912D01*
X119367222Y-74620955D01*
X119367895Y-74621067D01*
X119382188Y-74620866D01*
X119407554Y-74617205D01*
X119444842Y-74609901D01*
X119494898Y-74598767D01*
X119558572Y-74583619D01*
X119636709Y-74564271D01*
X119691820Y-74550332D01*
X119829913Y-74514879D01*
X119952700Y-74482689D01*
X120060955Y-74453535D01*
X120155451Y-74427187D01*
X120236964Y-74403416D01*
X120306267Y-74381995D01*
X120364135Y-74362694D01*
X120411342Y-74345284D01*
X120448663Y-74329538D01*
X120463586Y-74322354D01*
X120504225Y-74301767D01*
X120499373Y-74226411D01*
X120484767Y-74124505D01*
X120454382Y-74022106D01*
X120408808Y-73920423D01*
X120348632Y-73820667D01*
X120274445Y-73724047D01*
X120231638Y-73676613D01*
X120170970Y-73617266D01*
X120116125Y-73573069D01*
X120066859Y-73543881D01*
X120022926Y-73529561D01*
X119984082Y-73529968D01*
X119978831Y-73531249D01*
X119949048Y-73545231D01*
X119916626Y-73569562D01*
X119886551Y-73600010D01*
X119867843Y-73625425D01*
X119855632Y-73643107D01*
X119846454Y-73652794D01*
X119844879Y-73653419D01*
X119837066Y-73646235D01*
X119824751Y-73626622D01*
X119809379Y-73597487D01*
X119792399Y-73561739D01*
X119775259Y-73522286D01*
X119759404Y-73482037D01*
X119758904Y-73480686D01*
X119746886Y-73445937D01*
X119734262Y-73405692D01*
X119721834Y-73363000D01*
X119710402Y-73320916D01*
X119700765Y-73282489D01*
X119693725Y-73250772D01*
X119690082Y-73228816D01*
X119690476Y-73219800D01*
X119698973Y-73221443D01*
X119720730Y-73228202D01*
X119753628Y-73239345D01*
X119795546Y-73254141D01*
X119844363Y-73271857D01*
X119886347Y-73287412D01*
X119961917Y-73315247D01*
X120041540Y-73343842D01*
X120123125Y-73372502D01*
X120204581Y-73400532D01*
X120283816Y-73427238D01*
X120358738Y-73451924D01*
X120427256Y-73473897D01*
X120487279Y-73492461D01*
X120536714Y-73506921D01*
X120573470Y-73516583D01*
X120582118Y-73518528D01*
X120616865Y-73525414D01*
X120642483Y-73528528D01*
X120665860Y-73527869D01*
X120693884Y-73523437D01*
X120717881Y-73518528D01*
X120750192Y-73510528D01*
X120795844Y-73497510D01*
X120852745Y-73480169D01*
X120918802Y-73459199D01*
X120991926Y-73435296D01*
X121070023Y-73409153D01*
X121151002Y-73381467D01*
X121232773Y-73352931D01*
X121313243Y-73324240D01*
X121390320Y-73296090D01*
X121413652Y-73287412D01*
X121466415Y-73267909D01*
X121513952Y-73250748D01*
X121554141Y-73236663D01*
X121584863Y-73226384D01*
X121603997Y-73220645D01*
X121609523Y-73219800D01*
X121609543Y-73229365D01*
X121605706Y-73251454D01*
X121598828Y-73282819D01*
X121589724Y-73320210D01*
X121579212Y-73360378D01*
X121568106Y-73400074D01*
X121557222Y-73436048D01*
X121549169Y-73460123D01*
X121536248Y-73493881D01*
X121520702Y-73530760D01*
X121504024Y-73567656D01*
X121487707Y-73601468D01*
X121473244Y-73629092D01*
X121462128Y-73647425D01*
X121456156Y-73653419D01*
X121447994Y-73647066D01*
X121435896Y-73631239D01*
X121432156Y-73625425D01*
X121407411Y-73593139D01*
X121376409Y-73563652D01*
X121344134Y-73541195D01*
X121321168Y-73531249D01*
X121283706Y-73528656D01*
X121241250Y-73540381D01*
X121193441Y-73566624D01*
X121139918Y-73607586D01*
X121080321Y-73663467D01*
X121076514Y-73667329D01*
X120997783Y-73756577D01*
X120930879Y-73851271D01*
X120876701Y-73949588D01*
X120836147Y-74049706D01*
X120810117Y-74149802D01*
X120800447Y-74227118D01*
X120795689Y-74303180D01*
X120857668Y-74331806D01*
X120900350Y-74349495D01*
X120957875Y-74369965D01*
X121030464Y-74393281D01*
X121118338Y-74419512D01*
X121221719Y-74448721D01*
X121340829Y-74480977D01*
X121460463Y-74512358D01*
X121556616Y-74537241D01*
X121638163Y-74558272D01*
X121706424Y-74575733D01*
X121762721Y-74589907D01*
X121808374Y-74601075D01*
X121844705Y-74609520D01*
X121873036Y-74615525D01*
X121894687Y-74619371D01*
X121910980Y-74621340D01*
X121923236Y-74621716D01*
X121932775Y-74620779D01*
X121940920Y-74618813D01*
X121947905Y-74616482D01*
X121994389Y-74595838D01*
X122048889Y-74564456D01*
X122108846Y-74524205D01*
X122171701Y-74476951D01*
X122234893Y-74424560D01*
X122295863Y-74368900D01*
X122320294Y-74344893D01*
X122399108Y-74258953D01*
X122461777Y-74175920D01*
X122508342Y-74095729D01*
X122538844Y-74018313D01*
X122549029Y-73975567D01*
X122552273Y-73959059D01*
X122554059Y-73947073D01*
X122552539Y-73939853D01*
X122545866Y-73937646D01*
X122532194Y-73940697D01*
X122509676Y-73949252D01*
X122476465Y-73963557D01*
X122430714Y-73983857D01*
X122406689Y-73994507D01*
X122304506Y-74038134D01*
X122198074Y-74080737D01*
X122092314Y-74120454D01*
X121992149Y-74155423D01*
X121921234Y-74178154D01*
X121869237Y-74193498D01*
X121816211Y-74208213D01*
X121764630Y-74221708D01*
X121716970Y-74233397D01*
X121675705Y-74242689D01*
X121643309Y-74248997D01*
X121622256Y-74251731D01*
X121615251Y-74250958D01*
X121612840Y-74243654D01*
X121613368Y-74243116D01*
X121624580Y-74234010D01*
X121646233Y-74215704D01*
X121676411Y-74189860D01*
X121713196Y-74158140D01*
X121754671Y-74122206D01*
X121798918Y-74083721D01*
X121844021Y-74044347D01*
X121888062Y-74005746D01*
X121929124Y-73969580D01*
X121941804Y-73958366D01*
X122008839Y-73898193D01*
X122075760Y-73836596D01*
X122141451Y-73774717D01*
X122204793Y-73713699D01*
X122264671Y-73654683D01*
X122319967Y-73598812D01*
X122369564Y-73547227D01*
X122412345Y-73501072D01*
X122447194Y-73461486D01*
X122472992Y-73429614D01*
X122488624Y-73406597D01*
X122493084Y-73394711D01*
X122489133Y-73384699D01*
X122475752Y-73378257D01*
X122450648Y-73374803D01*
X122411528Y-73373756D01*
X122410548Y-73373756D01*
X122338086Y-73378560D01*
X122255601Y-73392398D01*
X122166215Y-73414409D01*
X122073051Y-73443729D01*
X121979232Y-73479498D01*
X121901481Y-73514243D01*
X121864096Y-73531667D01*
X121832126Y-73545592D01*
X121808398Y-73554863D01*
X121795735Y-73558321D01*
X121794517Y-73558052D01*
X121798203Y-73550632D01*
X121812390Y-73534097D01*
X121835226Y-73510203D01*
X121864859Y-73480708D01*
X121899439Y-73447366D01*
X121937114Y-73411935D01*
X121976033Y-73376171D01*
X122014346Y-73341829D01*
X122050200Y-73310666D01*
X122081745Y-73284438D01*
X122089107Y-73278570D01*
X122177855Y-73212572D01*
X122261816Y-73158093D01*
X122339547Y-73116015D01*
X122392281Y-73093352D01*
X122428213Y-73080593D01*
X122457574Y-73072552D01*
X122486677Y-73068131D01*
X122521835Y-73066235D01*
X122550680Y-73065838D01*
X122591796Y-73066056D01*
G37*
G36*
X126374348Y-67952703D02*
G01*
X126375277Y-67974598D01*
X126373074Y-68008857D01*
X126368051Y-68053654D01*
X126360521Y-68107163D01*
X126350794Y-68167558D01*
X126339183Y-68233013D01*
X126325999Y-68301701D01*
X126311555Y-68371797D01*
X126296163Y-68441474D01*
X126280133Y-68508906D01*
X126263779Y-68572267D01*
X126261282Y-68581436D01*
X126208122Y-68759058D01*
X126143997Y-68945506D01*
X126069987Y-69138398D01*
X125987175Y-69335352D01*
X125896641Y-69533986D01*
X125799467Y-69731919D01*
X125696733Y-69926769D01*
X125589521Y-70116154D01*
X125490649Y-70279077D01*
X125436413Y-70365449D01*
X125472539Y-70440046D01*
X125540280Y-70567665D01*
X125622874Y-70701554D01*
X125720085Y-70841411D01*
X125831681Y-70986936D01*
X125957425Y-71137827D01*
X126097086Y-71293784D01*
X126250427Y-71454505D01*
X126302396Y-71506941D01*
X126473884Y-71674079D01*
X126652296Y-71839698D01*
X126833294Y-71999899D01*
X127012543Y-72150784D01*
X127074276Y-72200841D01*
X127108661Y-72228774D01*
X127137987Y-72253249D01*
X127160064Y-72272384D01*
X127172703Y-72284301D01*
X127174846Y-72287177D01*
X127167826Y-72294921D01*
X127148758Y-72307734D01*
X127120626Y-72323994D01*
X127086414Y-72342081D01*
X127049107Y-72360372D01*
X127011690Y-72377247D01*
X127000027Y-72382147D01*
X126928947Y-72408639D01*
X126848010Y-72434258D01*
X126763785Y-72457142D01*
X126682843Y-72475429D01*
X126648250Y-72481831D01*
X126612736Y-72487936D01*
X126583894Y-72493061D01*
X126565160Y-72496583D01*
X126559777Y-72497818D01*
X126561113Y-72505617D01*
X126566690Y-72524499D01*
X126573613Y-72545406D01*
X126584490Y-72580083D01*
X126597842Y-72627445D01*
X126612825Y-72684065D01*
X126628594Y-72746516D01*
X126644307Y-72811370D01*
X126659118Y-72875201D01*
X126672184Y-72934580D01*
X126682662Y-72986080D01*
X126684420Y-72995388D01*
X126702797Y-73098675D01*
X126717597Y-73192721D01*
X126729234Y-73281711D01*
X126738120Y-73369830D01*
X126744671Y-73461265D01*
X126749299Y-73560200D01*
X126752419Y-73670822D01*
X126752736Y-73686347D01*
X126754114Y-73812831D01*
X126752809Y-73927693D01*
X126748575Y-74035579D01*
X126741167Y-74141139D01*
X126730340Y-74249017D01*
X126717648Y-74350601D01*
X126673960Y-74615247D01*
X126614684Y-74877364D01*
X126540307Y-75135201D01*
X126451315Y-75387003D01*
X126383731Y-75551523D01*
X126360226Y-75604132D01*
X126334183Y-75659951D01*
X126306618Y-75717036D01*
X126278551Y-75773443D01*
X126250996Y-75827224D01*
X126224973Y-75876436D01*
X126201497Y-75919133D01*
X126181586Y-75953370D01*
X126166256Y-75977201D01*
X126156526Y-75988682D01*
X126154766Y-75989430D01*
X126147414Y-75983042D01*
X126133467Y-75965902D01*
X126115307Y-75941046D01*
X126104723Y-75925683D01*
X126074409Y-75882653D01*
X126039252Y-75835819D01*
X126000624Y-75786723D01*
X125959895Y-75736907D01*
X125918436Y-75687911D01*
X125877619Y-75641279D01*
X125838814Y-75598551D01*
X125803392Y-75561268D01*
X125772725Y-75530973D01*
X125748182Y-75509208D01*
X125731136Y-75497513D01*
X125723357Y-75496848D01*
X125718435Y-75504902D01*
X125707298Y-75524263D01*
X125691704Y-75551848D01*
X125676982Y-75578160D01*
X125639491Y-75641912D01*
X125594013Y-75713566D01*
X125543520Y-75788750D01*
X125490982Y-75863090D01*
X125439370Y-75932216D01*
X125417091Y-75960641D01*
X125378934Y-76006046D01*
X125330933Y-76059407D01*
X125275780Y-76118024D01*
X125216171Y-76179196D01*
X125154798Y-76240224D01*
X125094354Y-76298407D01*
X125037533Y-76351047D01*
X124987028Y-76395443D01*
X124965613Y-76413199D01*
X124788636Y-76562357D01*
X124620181Y-76716659D01*
X124462147Y-76874208D01*
X124316434Y-77033106D01*
X124184939Y-77191453D01*
X124176154Y-77202674D01*
X124151196Y-77233804D01*
X124129258Y-77259532D01*
X124112553Y-77277374D01*
X124103295Y-77284846D01*
X124102818Y-77284928D01*
X124093037Y-77277864D01*
X124078770Y-77258788D01*
X124061864Y-77230870D01*
X124044164Y-77197284D01*
X124027515Y-77161201D01*
X124019747Y-77142144D01*
X124007395Y-77106237D01*
X123993504Y-77059589D01*
X123979508Y-77007643D01*
X123966842Y-76955837D01*
X123956941Y-76909613D01*
X123953695Y-76891638D01*
X123948689Y-76872376D01*
X123942605Y-76862996D01*
X123940918Y-76862849D01*
X123922812Y-76872293D01*
X123895282Y-76890685D01*
X123861053Y-76915872D01*
X123822849Y-76945702D01*
X123783393Y-76978025D01*
X123745409Y-77010688D01*
X123711622Y-77041540D01*
X123698152Y-77054617D01*
X123609384Y-77152948D01*
X123536258Y-77255925D01*
X123478413Y-77364364D01*
X123435489Y-77479083D01*
X123407122Y-77600897D01*
X123392952Y-77730622D01*
X123392234Y-77745674D01*
X123394087Y-77878686D01*
X123410044Y-78015635D01*
X123439387Y-78153309D01*
X123481400Y-78288495D01*
X123535366Y-78417980D01*
X123547980Y-78443807D01*
X123561842Y-78471313D01*
X123570395Y-78491542D01*
X123572328Y-78507239D01*
X123566330Y-78521149D01*
X123551090Y-78536017D01*
X123525298Y-78554588D01*
X123487642Y-78579609D01*
X123481054Y-78583979D01*
X123397593Y-78635099D01*
X123303768Y-78685174D01*
X123205139Y-78731585D01*
X123107268Y-78771712D01*
X123017137Y-78802509D01*
X122944657Y-78824309D01*
X122889603Y-78912040D01*
X122745833Y-79125744D01*
X122589122Y-79329514D01*
X122419968Y-79522906D01*
X122238870Y-79705476D01*
X122046328Y-79876783D01*
X121842842Y-80036381D01*
X121628909Y-80183829D01*
X121405030Y-80318681D01*
X121171704Y-80440496D01*
X121164610Y-80443922D01*
X121096559Y-80475893D01*
X121026635Y-80507258D01*
X120956843Y-80537237D01*
X120889192Y-80565052D01*
X120825690Y-80589922D01*
X120768342Y-80611069D01*
X120719158Y-80627713D01*
X120680144Y-80639076D01*
X120653307Y-80644378D01*
X120647474Y-80644665D01*
X120632719Y-80641917D01*
X120606376Y-80634712D01*
X120572334Y-80624186D01*
X120538921Y-80613014D01*
X120366855Y-80547892D01*
X120190043Y-80470316D01*
X120012019Y-80382048D01*
X119836317Y-80284848D01*
X119666473Y-80180477D01*
X119651907Y-80170997D01*
X119435370Y-80019855D01*
X119230797Y-79857507D01*
X119038314Y-79684080D01*
X118858048Y-79499702D01*
X118690124Y-79304499D01*
X118534668Y-79098600D01*
X118410397Y-78912040D01*
X118355342Y-78824309D01*
X118282862Y-78802509D01*
X118191159Y-78771117D01*
X118093230Y-78730866D01*
X117994635Y-78684374D01*
X117900936Y-78634260D01*
X117818945Y-78583979D01*
X117779442Y-78557784D01*
X117751995Y-78538439D01*
X117735292Y-78523200D01*
X117728022Y-78509322D01*
X117728876Y-78494058D01*
X117736541Y-78474665D01*
X117749709Y-78448395D01*
X117752020Y-78443807D01*
X117808373Y-78315906D01*
X117852922Y-78181637D01*
X117884950Y-78044215D01*
X117903740Y-77906852D01*
X117908575Y-77772760D01*
X117907766Y-77745674D01*
X117895163Y-77615012D01*
X117868404Y-77492353D01*
X117827127Y-77376880D01*
X117770970Y-77267779D01*
X117699573Y-77164231D01*
X117612574Y-77065421D01*
X117601847Y-77054617D01*
X117570926Y-77025333D01*
X117534547Y-76993241D01*
X117495434Y-76960494D01*
X117456312Y-76929241D01*
X117419903Y-76901636D01*
X117388932Y-76879830D01*
X117366123Y-76865974D01*
X117359081Y-76862849D01*
X117353103Y-76868337D01*
X117347546Y-76885187D01*
X117346304Y-76891638D01*
X117338166Y-76933442D01*
X117326600Y-76983343D01*
X117313041Y-77035900D01*
X117298923Y-77085674D01*
X117285681Y-77127223D01*
X117280252Y-77142144D01*
X117264910Y-77178264D01*
X117247537Y-77213569D01*
X117229981Y-77244887D01*
X117214085Y-77269046D01*
X117201696Y-77282873D01*
X117197181Y-77284928D01*
X117188899Y-77278776D01*
X117172920Y-77261975D01*
X117151459Y-77237009D01*
X117126730Y-77206363D01*
X117123845Y-77202674D01*
X116993436Y-77044439D01*
X116848674Y-76885518D01*
X116691456Y-76727810D01*
X116523682Y-76573213D01*
X116347249Y-76423626D01*
X116334386Y-76413199D01*
X116287914Y-76373774D01*
X116233820Y-76324795D01*
X116174797Y-76268962D01*
X116113538Y-76208977D01*
X116052737Y-76147537D01*
X115995087Y-76087344D01*
X115943281Y-76031097D01*
X115900014Y-75981497D01*
X115882908Y-75960641D01*
X115832694Y-75895317D01*
X115780207Y-75822797D01*
X115728419Y-75747454D01*
X115680301Y-75673659D01*
X115638824Y-75605785D01*
X115623017Y-75578160D01*
X115605099Y-75546167D01*
X115590210Y-75519895D01*
X115580109Y-75502428D01*
X115576642Y-75496848D01*
X115567468Y-75498221D01*
X115549571Y-75511045D01*
X115524322Y-75533777D01*
X115493091Y-75564877D01*
X115457250Y-75602803D01*
X115418170Y-75646013D01*
X115377221Y-75692966D01*
X115335774Y-75742120D01*
X115295201Y-75791933D01*
X115256873Y-75840864D01*
X115222160Y-75887371D01*
X115195276Y-75925683D01*
X115175844Y-75953414D01*
X115159354Y-75975047D01*
X115148188Y-75987546D01*
X115145233Y-75989430D01*
X115137502Y-75982296D01*
X115123847Y-75962191D01*
X115105286Y-75931061D01*
X115082836Y-75890850D01*
X115057515Y-75843504D01*
X115030338Y-75790968D01*
X115002324Y-75735187D01*
X114974488Y-75678107D01*
X114947850Y-75621673D01*
X114923425Y-75567829D01*
X114916268Y-75551523D01*
X114817754Y-75304747D01*
X114733528Y-75050762D01*
X114664077Y-74791320D01*
X114609887Y-74528175D01*
X114582351Y-74350601D01*
X114568279Y-74236760D01*
X114557844Y-74129369D01*
X114550801Y-74023781D01*
X114546905Y-73915348D01*
X114545910Y-73799424D01*
X114547263Y-73686347D01*
X114550216Y-73573891D01*
X114554624Y-73473667D01*
X114560900Y-73381491D01*
X114569458Y-73293176D01*
X114580712Y-73204537D01*
X114595076Y-73111389D01*
X114612963Y-73009546D01*
X114615580Y-72995388D01*
X114625420Y-72945934D01*
X114638022Y-72887896D01*
X114652543Y-72824701D01*
X114668139Y-72759777D01*
X114683966Y-72696552D01*
X114699180Y-72638452D01*
X114712936Y-72588905D01*
X114724391Y-72551338D01*
X114726386Y-72545406D01*
X114734506Y-72520680D01*
X114739450Y-72503378D01*
X114740222Y-72497818D01*
X114731772Y-72495979D01*
X114710529Y-72492053D01*
X114679929Y-72486660D01*
X114651749Y-72481831D01*
X114574558Y-72466307D01*
X114491039Y-72445323D01*
X114407760Y-72420741D01*
X114331292Y-72394423D01*
X114299973Y-72382147D01*
X114263161Y-72366080D01*
X114225492Y-72348070D01*
X114189949Y-72329739D01*
X114159517Y-72312709D01*
X114137182Y-72298600D01*
X114125927Y-72289034D01*
X114125154Y-72287177D01*
X114131244Y-72280363D01*
X114148056Y-72265230D01*
X114173400Y-72243656D01*
X114205086Y-72217521D01*
X114225723Y-72200841D01*
X114403327Y-72054155D01*
X114408714Y-72049468D01*
X115193946Y-72049468D01*
X115376324Y-72049468D01*
X115558703Y-72049468D01*
X115554702Y-72072088D01*
X115551363Y-72087154D01*
X115544549Y-72115098D01*
X115535018Y-72152900D01*
X115523532Y-72197543D01*
X115512183Y-72240953D01*
X115450267Y-72495398D01*
X115398379Y-72749838D01*
X115356663Y-73002692D01*
X115325267Y-73252378D01*
X115304337Y-73497315D01*
X115294019Y-73735922D01*
X115294461Y-73966617D01*
X115305808Y-74187818D01*
X115319083Y-74325608D01*
X115323659Y-74359958D01*
X115328401Y-74386740D01*
X115332666Y-74402743D01*
X115335144Y-74405754D01*
X115341178Y-74397379D01*
X115353163Y-74377265D01*
X115369459Y-74348271D01*
X115388429Y-74313254D01*
X115391892Y-74306737D01*
X115447546Y-74205152D01*
X115507344Y-74102220D01*
X115569550Y-74000626D01*
X115632428Y-73903057D01*
X115694241Y-73812197D01*
X115753252Y-73730734D01*
X115807724Y-73661351D01*
X115814332Y-73653419D01*
X115832464Y-73632699D01*
X115855264Y-73607895D01*
X115880135Y-73581668D01*
X115904480Y-73556679D01*
X115925703Y-73535593D01*
X115941207Y-73521069D01*
X115948396Y-73515770D01*
X115948540Y-73515831D01*
X115950515Y-73524533D01*
X115953791Y-73545884D01*
X115957828Y-73576186D01*
X115960273Y-73596146D01*
X115969761Y-73661742D01*
X115983498Y-73737529D01*
X116000340Y-73818153D01*
X116019144Y-73898265D01*
X116038766Y-73972510D01*
X116046122Y-73997815D01*
X116117124Y-74206563D01*
X116202874Y-74408268D01*
X116303114Y-74602634D01*
X116417582Y-74789366D01*
X116546020Y-74968169D01*
X116688169Y-75138748D01*
X116843768Y-75300807D01*
X117012559Y-75454051D01*
X117194281Y-75598186D01*
X117388676Y-75732915D01*
X117595483Y-75857944D01*
X117757612Y-75944682D01*
X117801214Y-75966593D01*
X117839924Y-75985661D01*
X117871301Y-76000717D01*
X117892905Y-76010589D01*
X117902279Y-76014106D01*
X117908436Y-76006634D01*
X117909702Y-75985460D01*
X117906518Y-75952446D01*
X117899323Y-75909451D01*
X117888558Y-75858339D01*
X117874663Y-75800970D01*
X117858079Y-75739206D01*
X117839245Y-75674907D01*
X117818601Y-75609937D01*
X117796589Y-75546155D01*
X117782835Y-75509043D01*
X117768723Y-75471519D01*
X117757054Y-75439502D01*
X117748952Y-75416147D01*
X117745538Y-75404605D01*
X117745497Y-75404169D01*
X117749318Y-75398115D01*
X117761977Y-75399438D01*
X117785268Y-75408623D01*
X117814367Y-75422772D01*
X117910985Y-75480501D01*
X118004288Y-75553451D01*
X118093347Y-75640563D01*
X118177233Y-75740781D01*
X118255020Y-75853048D01*
X118325780Y-75976307D01*
X118358784Y-76042895D01*
X118416935Y-76177833D01*
X118467568Y-76320130D01*
X118511045Y-76471280D01*
X118547731Y-76632780D01*
X118577989Y-76806124D01*
X118602183Y-76992808D01*
X118610977Y-77079294D01*
X118613570Y-77116787D01*
X118615777Y-77168291D01*
X118617594Y-77231370D01*
X118619017Y-77303589D01*
X118620043Y-77382513D01*
X118620668Y-77465706D01*
X118620889Y-77550732D01*
X118620702Y-77635156D01*
X118620102Y-77716542D01*
X118619088Y-77792456D01*
X118617655Y-77860461D01*
X118615799Y-77918122D01*
X118613517Y-77963004D01*
X118612313Y-77978793D01*
X118609074Y-78016931D01*
X118607727Y-78041864D01*
X118608634Y-78056766D01*
X118612156Y-78064811D01*
X118618655Y-78069173D01*
X118622785Y-78070833D01*
X118657933Y-78079293D01*
X118702318Y-78082994D01*
X118749363Y-78081733D01*
X118789356Y-78076011D01*
X118841735Y-78064622D01*
X118858760Y-78106608D01*
X118881625Y-78158111D01*
X118911400Y-78217975D01*
X118945387Y-78281204D01*
X118980889Y-78342804D01*
X119015212Y-78397776D01*
X119018975Y-78403467D01*
X119130153Y-78556851D01*
X119256795Y-78706191D01*
X119398998Y-78851572D01*
X119556859Y-78993080D01*
X119730473Y-79130800D01*
X119919939Y-79264815D01*
X120125352Y-79395211D01*
X120201571Y-79440323D01*
X120235072Y-79459234D01*
X120276590Y-79481785D01*
X120323925Y-79506869D01*
X120374882Y-79533380D01*
X120427261Y-79560210D01*
X120478866Y-79586253D01*
X120527498Y-79610402D01*
X120570961Y-79631550D01*
X120607057Y-79648590D01*
X120633587Y-79660415D01*
X120648355Y-79665919D01*
X120650000Y-79666178D01*
X120660750Y-79662598D01*
X120683948Y-79652544D01*
X120717395Y-79637048D01*
X120758894Y-79617141D01*
X120806249Y-79593856D01*
X120839581Y-79577170D01*
X121065551Y-79457122D01*
X121275956Y-79332593D01*
X121471135Y-79203326D01*
X121651427Y-79069062D01*
X121817172Y-78929545D01*
X121968708Y-78784517D01*
X122106376Y-78633721D01*
X122145917Y-78586222D01*
X122211012Y-78502239D01*
X122272143Y-78415532D01*
X122327495Y-78329031D01*
X122375252Y-78245668D01*
X122413600Y-78168375D01*
X122432124Y-78124077D01*
X122445743Y-78091913D01*
X122457182Y-78071823D01*
X122465379Y-78065649D01*
X122465724Y-78065754D01*
X122494291Y-78073438D01*
X122532182Y-78079456D01*
X122572290Y-78083043D01*
X122607508Y-78083433D01*
X122619847Y-78082364D01*
X122652626Y-78077745D01*
X122674132Y-78072510D01*
X122686393Y-78063557D01*
X122691439Y-78047786D01*
X122691295Y-78022095D01*
X122687991Y-77983383D01*
X122687575Y-77978793D01*
X122685117Y-77941527D01*
X122683076Y-77890534D01*
X122681449Y-77828173D01*
X122680230Y-77756799D01*
X122679417Y-77678770D01*
X122679006Y-77596443D01*
X122678991Y-77512176D01*
X122679370Y-77428326D01*
X122680138Y-77347250D01*
X122681291Y-77271305D01*
X122682826Y-77202848D01*
X122684737Y-77144238D01*
X122687022Y-77097831D01*
X122689117Y-77071068D01*
X122711407Y-76882434D01*
X122738516Y-76708200D01*
X122770844Y-76546917D01*
X122808794Y-76397137D01*
X122852766Y-76257413D01*
X122903163Y-76126297D01*
X122960386Y-76002340D01*
X123012364Y-75905581D01*
X123076395Y-75804153D01*
X123148656Y-75708204D01*
X123226751Y-75620407D01*
X123308288Y-75543435D01*
X123390874Y-75479961D01*
X123397259Y-75475676D01*
X123442004Y-75447257D01*
X123481833Y-75424433D01*
X123514695Y-75408210D01*
X123538538Y-75399590D01*
X123551313Y-75399578D01*
X123551819Y-75400002D01*
X123550804Y-75409016D01*
X123544701Y-75430468D01*
X123534429Y-75461480D01*
X123520908Y-75499175D01*
X123515308Y-75514131D01*
X123492366Y-75577553D01*
X123470674Y-75642869D01*
X123450665Y-75708237D01*
X123432773Y-75771812D01*
X123417431Y-75831753D01*
X123405073Y-75886216D01*
X123396131Y-75933359D01*
X123391040Y-75971337D01*
X123390234Y-75998309D01*
X123394144Y-76012431D01*
X123397720Y-76014106D01*
X123409395Y-76010277D01*
X123433194Y-75999571D01*
X123466891Y-75983160D01*
X123508257Y-75962217D01*
X123555066Y-75937914D01*
X123605089Y-75911422D01*
X123656101Y-75883914D01*
X123705872Y-75856561D01*
X123752176Y-75830536D01*
X123792785Y-75807012D01*
X123804179Y-75800224D01*
X124002059Y-75672729D01*
X124188187Y-75535244D01*
X124362184Y-75388281D01*
X124523671Y-75232347D01*
X124672270Y-75067954D01*
X124807602Y-74895611D01*
X124929289Y-74715828D01*
X125036952Y-74529115D01*
X125130212Y-74335981D01*
X125208691Y-74136935D01*
X125272010Y-73932489D01*
X125309994Y-73772687D01*
X125319369Y-73724391D01*
X125328445Y-73672389D01*
X125335991Y-73623994D01*
X125339708Y-73596146D01*
X125343945Y-73562382D01*
X125347729Y-73535451D01*
X125350521Y-73519050D01*
X125351463Y-73515827D01*
X125358470Y-73519714D01*
X125374023Y-73534078D01*
X125396151Y-73556741D01*
X125422886Y-73585526D01*
X125452257Y-73618255D01*
X125482295Y-73652751D01*
X125511030Y-73686836D01*
X125536492Y-73718334D01*
X125547298Y-73732322D01*
X125603958Y-73810278D01*
X125664624Y-73899299D01*
X125726777Y-73995348D01*
X125787900Y-74094385D01*
X125845474Y-74192374D01*
X125896984Y-74285276D01*
X125922474Y-74334032D01*
X125938962Y-74365514D01*
X125952989Y-74390649D01*
X125962785Y-74406363D01*
X125966251Y-74410117D01*
X125969401Y-74402266D01*
X125973469Y-74380008D01*
X125978221Y-74345349D01*
X125983420Y-74300294D01*
X125988832Y-74246845D01*
X125994220Y-74187009D01*
X125998138Y-74138717D01*
X126001528Y-74081095D01*
X126003962Y-74010775D01*
X126005442Y-73931480D01*
X126005970Y-73846936D01*
X126005549Y-73760867D01*
X126004181Y-73676997D01*
X126001869Y-73599051D01*
X125998615Y-73530754D01*
X125997741Y-73516921D01*
X125969975Y-73211476D01*
X125927406Y-72903155D01*
X125870541Y-72595105D01*
X125799889Y-72290476D01*
X125799255Y-72288005D01*
X125785157Y-72232829D01*
X125772265Y-72181888D01*
X125761206Y-72137697D01*
X125752607Y-72102771D01*
X125747095Y-72079623D01*
X125745464Y-72072088D01*
X125741297Y-72049468D01*
X125923675Y-72049468D01*
X126106053Y-72049468D01*
X126054201Y-72006362D01*
X125990322Y-71950425D01*
X125917638Y-71881620D01*
X125836718Y-71800597D01*
X125748130Y-71708009D01*
X125652443Y-71604508D01*
X125550227Y-71490746D01*
X125442051Y-71367373D01*
X125328483Y-71235042D01*
X125210093Y-71094405D01*
X125087450Y-70946113D01*
X124961122Y-70790818D01*
X124831679Y-70629172D01*
X124699690Y-70461826D01*
X124649303Y-70397283D01*
X124617986Y-70356739D01*
X124595881Y-70327107D01*
X124581856Y-70306504D01*
X124574776Y-70293049D01*
X124573510Y-70284860D01*
X124576925Y-70280055D01*
X124578247Y-70279235D01*
X124600255Y-70264619D01*
X124631570Y-70240688D01*
X124669694Y-70209590D01*
X124712127Y-70173470D01*
X124756372Y-70134474D01*
X124799928Y-70094750D01*
X124840299Y-70056444D01*
X124858649Y-70038353D01*
X124990930Y-69896670D01*
X125116634Y-69742974D01*
X125236396Y-69576358D01*
X125350852Y-69395916D01*
X125460636Y-69200739D01*
X125504333Y-69116466D01*
X125530154Y-69064275D01*
X125557473Y-69006873D01*
X125585501Y-68946122D01*
X125613453Y-68883889D01*
X125640541Y-68822037D01*
X125665978Y-68762431D01*
X125688977Y-68706936D01*
X125708751Y-68657415D01*
X125724512Y-68615734D01*
X125735475Y-68583757D01*
X125740851Y-68563348D01*
X125740651Y-68556649D01*
X125732051Y-68557792D01*
X125710315Y-68563094D01*
X125678031Y-68571856D01*
X125637786Y-68583380D01*
X125598246Y-68595127D01*
X125433145Y-68642202D01*
X125252318Y-68688573D01*
X125056483Y-68734097D01*
X124846361Y-68778631D01*
X124622670Y-68822032D01*
X124386131Y-68864157D01*
X124137463Y-68904863D01*
X123877386Y-68944008D01*
X123751976Y-68961748D01*
X123694099Y-68969837D01*
X123641802Y-68977268D01*
X123597229Y-68983726D01*
X123562525Y-68988897D01*
X123539835Y-68992466D01*
X123531301Y-68994119D01*
X123534862Y-69001130D01*
X123546504Y-69018629D01*
X123564404Y-69043971D01*
X123586498Y-69074187D01*
X123613957Y-69112179D01*
X123645410Y-69157359D01*
X123679781Y-69208030D01*
X123715997Y-69262493D01*
X123752982Y-69319052D01*
X123789662Y-69376008D01*
X123824962Y-69431663D01*
X123857807Y-69484319D01*
X123887124Y-69532279D01*
X123911836Y-69573843D01*
X123930871Y-69607315D01*
X123943152Y-69630997D01*
X123947606Y-69643190D01*
X123947327Y-69644293D01*
X123939032Y-69642117D01*
X123917114Y-69634016D01*
X123883055Y-69620595D01*
X123838335Y-69602460D01*
X123784433Y-69580219D01*
X123722832Y-69554478D01*
X123655012Y-69525842D01*
X123582452Y-69494919D01*
X123577763Y-69492911D01*
X123459045Y-69442253D01*
X123340466Y-69392020D01*
X123223384Y-69342768D01*
X123109155Y-69295052D01*
X122999136Y-69249429D01*
X122894685Y-69206454D01*
X122797158Y-69166684D01*
X122707913Y-69130674D01*
X122628307Y-69098981D01*
X122559696Y-69072159D01*
X122503438Y-69050766D01*
X122460891Y-69035357D01*
X122460171Y-69035107D01*
X122434955Y-69026243D01*
X122397927Y-69013054D01*
X122352734Y-68996848D01*
X122303027Y-68978934D01*
X122258584Y-68962845D01*
X122161567Y-68928534D01*
X122078936Y-68901252D01*
X122010254Y-68880878D01*
X121955085Y-68867292D01*
X121912995Y-68860374D01*
X121885433Y-68859796D01*
X121852854Y-68866373D01*
X121807076Y-68880855D01*
X121749100Y-68902830D01*
X121679927Y-68931889D01*
X121600557Y-68967620D01*
X121511990Y-69009613D01*
X121468691Y-69030794D01*
X121361595Y-69085309D01*
X121269914Y-69135568D01*
X121193243Y-69181847D01*
X121131179Y-69224422D01*
X121083317Y-69263569D01*
X121049252Y-69299565D01*
X121029608Y-69330437D01*
X121019775Y-69354900D01*
X121007948Y-69389568D01*
X120996040Y-69428663D01*
X120990704Y-69447879D01*
X120980966Y-69483242D01*
X120972145Y-69513423D01*
X120965461Y-69534337D01*
X120962897Y-69540916D01*
X120958419Y-69554124D01*
X120951452Y-69579830D01*
X120942593Y-69615344D01*
X120932441Y-69657978D01*
X120921594Y-69705043D01*
X120910649Y-69753849D01*
X120900206Y-69801709D01*
X120890863Y-69845933D01*
X120883216Y-69883833D01*
X120877866Y-69912718D01*
X120875410Y-69929901D01*
X120875568Y-69933470D01*
X120887203Y-69935592D01*
X120911830Y-69933962D01*
X120946548Y-69929097D01*
X120988456Y-69921513D01*
X121034656Y-69911729D01*
X121082245Y-69900260D01*
X121121379Y-69889645D01*
X121170957Y-69873917D01*
X121225241Y-69854328D01*
X121276597Y-69833740D01*
X121307107Y-69820077D01*
X121395842Y-69772951D01*
X121468873Y-69723493D01*
X121526872Y-69670992D01*
X121570512Y-69614735D01*
X121600464Y-69554010D01*
X121616746Y-69492187D01*
X121622776Y-69455987D01*
X121767891Y-69461198D01*
X121951183Y-69474203D01*
X122126916Y-69499636D01*
X122294322Y-69537246D01*
X122452633Y-69586787D01*
X122601079Y-69648008D01*
X122738892Y-69720662D01*
X122865302Y-69804499D01*
X122892144Y-69824916D01*
X122924420Y-69850944D01*
X122954384Y-69876633D01*
X122979902Y-69899959D01*
X122998835Y-69918897D01*
X123009048Y-69931423D01*
X123008890Y-69935544D01*
X122999138Y-69933855D01*
X122976455Y-69929229D01*
X122943971Y-69922323D01*
X122904813Y-69913792D01*
X122894141Y-69911437D01*
X122759307Y-69882716D01*
X122637288Y-69859194D01*
X122525418Y-69840498D01*
X122421028Y-69826255D01*
X122321451Y-69816091D01*
X122224019Y-69809632D01*
X122147505Y-69806920D01*
X122092733Y-69806027D01*
X122041336Y-69805840D01*
X121996379Y-69806320D01*
X121960926Y-69807427D01*
X121938042Y-69809121D01*
X121934470Y-69809664D01*
X121915573Y-69814192D01*
X121901521Y-69821555D01*
X121888582Y-69835090D01*
X121873025Y-69858135D01*
X121864131Y-69872571D01*
X121803861Y-69956761D01*
X121728523Y-70036960D01*
X121639147Y-70112582D01*
X121536765Y-70183041D01*
X121422407Y-70247751D01*
X121297105Y-70306127D01*
X121161890Y-70357583D01*
X121017792Y-70401533D01*
X120872157Y-70436100D01*
X120761078Y-70458974D01*
X120707596Y-70736002D01*
X120694915Y-70801091D01*
X120683071Y-70860740D01*
X120672449Y-70913101D01*
X120663433Y-70956327D01*
X120656407Y-70988570D01*
X120651756Y-71007982D01*
X120650000Y-71013031D01*
X120647532Y-71005258D01*
X120642382Y-70983170D01*
X120634934Y-70948615D01*
X120625571Y-70903441D01*
X120614677Y-70849497D01*
X120602638Y-70788629D01*
X120592403Y-70736002D01*
X120538921Y-70458974D01*
X120427842Y-70436100D01*
X120276157Y-70399893D01*
X120132373Y-70355616D01*
X119997520Y-70303855D01*
X119872630Y-70245195D01*
X119758730Y-70180222D01*
X119656853Y-70109520D01*
X119568026Y-70033675D01*
X119493281Y-69953272D01*
X119435825Y-69872496D01*
X119422571Y-69851160D01*
X119410579Y-69834873D01*
X119397475Y-69822945D01*
X119380888Y-69814686D01*
X119358445Y-69809404D01*
X119327772Y-69806410D01*
X119286496Y-69805014D01*
X119232245Y-69804524D01*
X119201812Y-69804411D01*
X119084277Y-69807506D01*
X118956154Y-69817658D01*
X118816509Y-69834987D01*
X118664410Y-69859616D01*
X118498923Y-69891666D01*
X118445685Y-69902928D01*
X118397960Y-69913159D01*
X118355932Y-69922076D01*
X118322183Y-69929139D01*
X118299292Y-69933808D01*
X118289838Y-69935542D01*
X118289795Y-69935544D01*
X118290695Y-69930710D01*
X118302085Y-69917635D01*
X118321686Y-69898450D01*
X118347222Y-69875293D01*
X118376413Y-69850297D01*
X118406982Y-69825598D01*
X118407855Y-69824916D01*
X118531589Y-69738593D01*
X118666899Y-69663396D01*
X118813015Y-69599576D01*
X118969169Y-69547381D01*
X119134592Y-69507059D01*
X119308516Y-69478860D01*
X119490170Y-69463032D01*
X119532108Y-69461198D01*
X119677223Y-69455987D01*
X119683253Y-69492187D01*
X119700635Y-69557279D01*
X119730633Y-69617095D01*
X119774003Y-69672434D01*
X119831503Y-69724099D01*
X119903889Y-69772891D01*
X119991918Y-69819611D01*
X119992892Y-69820077D01*
X120037528Y-69839638D01*
X120090518Y-69860231D01*
X120144225Y-69878996D01*
X120178621Y-69889645D01*
X120225108Y-69902128D01*
X120272660Y-69913366D01*
X120318378Y-69922843D01*
X120359360Y-69930040D01*
X120392704Y-69934440D01*
X120415510Y-69935527D01*
X120424424Y-69933477D01*
X120424176Y-69924304D01*
X120420581Y-69901734D01*
X120414213Y-69868351D01*
X120405643Y-69826734D01*
X120395441Y-69779467D01*
X120384181Y-69729131D01*
X120372434Y-69678307D01*
X120360770Y-69629578D01*
X120349763Y-69585524D01*
X120339984Y-69548729D01*
X120336542Y-69536612D01*
X120317440Y-69471554D01*
X120301887Y-69420204D01*
X120289006Y-69380425D01*
X120277916Y-69350081D01*
X120267740Y-69327036D01*
X120257599Y-69309152D01*
X120246615Y-69294294D01*
X120233907Y-69280326D01*
X120229163Y-69275524D01*
X120187037Y-69238820D01*
X120129953Y-69197783D01*
X120058690Y-69152892D01*
X119974026Y-69104625D01*
X119876741Y-69053462D01*
X119831308Y-69030734D01*
X119738793Y-68986005D01*
X119655050Y-68947360D01*
X119581075Y-68915207D01*
X119517862Y-68889955D01*
X119466407Y-68872012D01*
X119427705Y-68861786D01*
X119414567Y-68859796D01*
X119384131Y-68860682D01*
X119341018Y-68868125D01*
X119284793Y-68882245D01*
X119215020Y-68903163D01*
X119131262Y-68930999D01*
X119041415Y-68962845D01*
X118990751Y-68981180D01*
X118941402Y-68998955D01*
X118897015Y-69014861D01*
X118861240Y-69027590D01*
X118839828Y-69035107D01*
X118797576Y-69050388D01*
X118741585Y-69071664D01*
X118673214Y-69098380D01*
X118593820Y-69129979D01*
X118504759Y-69165906D01*
X118407388Y-69205605D01*
X118303065Y-69248519D01*
X118193147Y-69294094D01*
X118078990Y-69341772D01*
X117961953Y-69390999D01*
X117843391Y-69441217D01*
X117724663Y-69491872D01*
X117722237Y-69492911D01*
X117649428Y-69523958D01*
X117581266Y-69552755D01*
X117519230Y-69578697D01*
X117464801Y-69601176D01*
X117419459Y-69619587D01*
X117384685Y-69633322D01*
X117361960Y-69641776D01*
X117352765Y-69644342D01*
X117352672Y-69644293D01*
X117354828Y-69635493D01*
X117365102Y-69614746D01*
X117382419Y-69583750D01*
X117405704Y-69544203D01*
X117433883Y-69497803D01*
X117465882Y-69446248D01*
X117500625Y-69391235D01*
X117537038Y-69334463D01*
X117574047Y-69277630D01*
X117610576Y-69222433D01*
X117645551Y-69170571D01*
X117677898Y-69123741D01*
X117706541Y-69083641D01*
X117713501Y-69074187D01*
X117735798Y-69043689D01*
X117753644Y-69018412D01*
X117765216Y-69001004D01*
X117768698Y-68994119D01*
X117760180Y-68992469D01*
X117737503Y-68988901D01*
X117702809Y-68983732D01*
X117658246Y-68977275D01*
X117605955Y-68969845D01*
X117548083Y-68961756D01*
X117548024Y-68961748D01*
X117282855Y-68923383D01*
X117028759Y-68883390D01*
X116786455Y-68841910D01*
X116556662Y-68799089D01*
X116340102Y-68755067D01*
X116137492Y-68709989D01*
X115949553Y-68663996D01*
X115777004Y-68617233D01*
X115701754Y-68595127D01*
X115656697Y-68581757D01*
X115617366Y-68570518D01*
X115586344Y-68562112D01*
X115566212Y-68557244D01*
X115559564Y-68556434D01*
X115559986Y-68566492D01*
X115566557Y-68589586D01*
X115578497Y-68623834D01*
X115595026Y-68667349D01*
X115615365Y-68718247D01*
X115638734Y-68774644D01*
X115664354Y-68834654D01*
X115691444Y-68896394D01*
X115719225Y-68957979D01*
X115746917Y-69017524D01*
X115771097Y-69067765D01*
X115878230Y-69273146D01*
X115991812Y-69465784D01*
X116111441Y-69645146D01*
X116236712Y-69810698D01*
X116367221Y-69961908D01*
X116502565Y-70098241D01*
X116642339Y-70219166D01*
X116645078Y-70221345D01*
X116673876Y-70243902D01*
X116699034Y-70263034D01*
X116716996Y-70276066D01*
X116722713Y-70279772D01*
X116726199Y-70284029D01*
X116725162Y-70291869D01*
X116718543Y-70304949D01*
X116705286Y-70324928D01*
X116684334Y-70353464D01*
X116654629Y-70392214D01*
X116634624Y-70417910D01*
X116498193Y-70591319D01*
X116364826Y-70758341D01*
X116235041Y-70918382D01*
X116109359Y-71070846D01*
X115988300Y-71215139D01*
X115872383Y-71350666D01*
X115762130Y-71476832D01*
X115658060Y-71593043D01*
X115560693Y-71698704D01*
X115470549Y-71793219D01*
X115388148Y-71875994D01*
X115314011Y-71946435D01*
X115248656Y-72003946D01*
X115245776Y-72006349D01*
X115193946Y-72049468D01*
X114408714Y-72049468D01*
X114584205Y-71896782D01*
X114764020Y-71732621D01*
X114938433Y-71565572D01*
X114997603Y-71506941D01*
X115155277Y-71344758D01*
X115299345Y-71187243D01*
X115429572Y-71034696D01*
X115545725Y-70887420D01*
X115647569Y-70745714D01*
X115734870Y-70609881D01*
X115807394Y-70480221D01*
X115827460Y-70440046D01*
X115863586Y-70365449D01*
X115809350Y-70279077D01*
X115699047Y-70096603D01*
X115592254Y-69906533D01*
X115490053Y-69711248D01*
X115393525Y-69513129D01*
X115303751Y-69314560D01*
X115221812Y-69117920D01*
X115148789Y-68925593D01*
X115085764Y-68739959D01*
X115038717Y-68581436D01*
X115022341Y-68518855D01*
X115006242Y-68451924D01*
X114990733Y-68382471D01*
X114976124Y-68312321D01*
X114962729Y-68243301D01*
X114950858Y-68177236D01*
X114940825Y-68115953D01*
X114932940Y-68061279D01*
X114927515Y-68015038D01*
X114924863Y-67979058D01*
X114925295Y-67955165D01*
X114929124Y-67945184D01*
X114930023Y-67945000D01*
X114940550Y-67947083D01*
X114963909Y-67952816D01*
X114997085Y-67961425D01*
X115037060Y-67972137D01*
X115056309Y-67977395D01*
X115238673Y-68024550D01*
X115435240Y-68069873D01*
X115643821Y-68112993D01*
X115862229Y-68153540D01*
X116088275Y-68191144D01*
X116319772Y-68225433D01*
X116554530Y-68256038D01*
X116790362Y-68282587D01*
X116951490Y-68298251D01*
X117050250Y-68306767D01*
X117153147Y-68314809D01*
X117258591Y-68322307D01*
X117364994Y-68329192D01*
X117470767Y-68335395D01*
X117574321Y-68340848D01*
X117674066Y-68345481D01*
X117768415Y-68349225D01*
X117855777Y-68352011D01*
X117934565Y-68353771D01*
X118003188Y-68354435D01*
X118060059Y-68353935D01*
X118103589Y-68352201D01*
X118130579Y-68349441D01*
X118152587Y-68344463D01*
X118187759Y-68334846D01*
X118233705Y-68321317D01*
X118288036Y-68304605D01*
X118348360Y-68285440D01*
X118412287Y-68264549D01*
X118446229Y-68253223D01*
X118575901Y-68209931D01*
X118691101Y-68172139D01*
X118792771Y-68139579D01*
X118881850Y-68111989D01*
X118959282Y-68089104D01*
X119026005Y-68070659D01*
X119082963Y-68056390D01*
X119131096Y-68046032D01*
X119171346Y-68039320D01*
X119204653Y-68035991D01*
X119220931Y-68035505D01*
X119278618Y-68038978D01*
X119350364Y-68049190D01*
X119435329Y-68065901D01*
X119532673Y-68088870D01*
X119641552Y-68117856D01*
X119761128Y-68152619D01*
X119890558Y-68192917D01*
X120029001Y-68238511D01*
X120175617Y-68289159D01*
X120329563Y-68344619D01*
X120426473Y-68380622D01*
X120651375Y-68465104D01*
X120759709Y-68423281D01*
X120916783Y-68363716D01*
X121068789Y-68308198D01*
X121214787Y-68257005D01*
X121353836Y-68210413D01*
X121484997Y-68168697D01*
X121607328Y-68132134D01*
X121719890Y-68101001D01*
X121821742Y-68075574D01*
X121911943Y-68056130D01*
X121989553Y-68042945D01*
X122053632Y-68036295D01*
X122079068Y-68035505D01*
X122108778Y-68037014D01*
X122144862Y-68041741D01*
X122188263Y-68049952D01*
X122239922Y-68061911D01*
X122300783Y-68077883D01*
X122371788Y-68098134D01*
X122453879Y-68122927D01*
X122547999Y-68152528D01*
X122655090Y-68187203D01*
X122776095Y-68227214D01*
X122854769Y-68253558D01*
X122919820Y-68275100D01*
X122982583Y-68295275D01*
X123040660Y-68313359D01*
X123091653Y-68328625D01*
X123133163Y-68340349D01*
X123162793Y-68347804D01*
X123172872Y-68349779D01*
X123202895Y-68352551D01*
X123247700Y-68354047D01*
X123305667Y-68354337D01*
X123375178Y-68353493D01*
X123454612Y-68351586D01*
X123542350Y-68348687D01*
X123636774Y-68344865D01*
X123736264Y-68340194D01*
X123839200Y-68334742D01*
X123943964Y-68328581D01*
X124048936Y-68321782D01*
X124152496Y-68314417D01*
X124253026Y-68306555D01*
X124348510Y-68298304D01*
X124585227Y-68274546D01*
X124822122Y-68246491D01*
X125057030Y-68214506D01*
X125287786Y-68178958D01*
X125512226Y-68140213D01*
X125728184Y-68098638D01*
X125933496Y-68054598D01*
X126125997Y-68008462D01*
X126243690Y-67977395D01*
X126285728Y-67965994D01*
X126322312Y-67956350D01*
X126350427Y-67949237D01*
X126367055Y-67945429D01*
X126369976Y-67945000D01*
X126374348Y-67952703D01*
G37*
D15*
%TO.C,R2*%
X84317064Y-103405000D02*
X83862936Y-103405000D01*
X84317064Y-104875000D02*
X83862936Y-104875000D01*
%TO.C,C5*%
X89273748Y-74830000D02*
X89796252Y-74830000D01*
X89273748Y-76300000D02*
X89796252Y-76300000D01*
%TO.C,Q2*%
X91480000Y-134714000D02*
X91480000Y-139955000D01*
X91480000Y-134714000D02*
X92580000Y-134714000D01*
X91480000Y-136955000D02*
X92580000Y-136955000D01*
X91480000Y-139955000D02*
X111720000Y-139955000D01*
X95380000Y-134714000D02*
X96390000Y-134714000D01*
X95380000Y-136955000D02*
X96390000Y-136955000D01*
X99190000Y-134714000D02*
X100201000Y-134714000D01*
X99190000Y-136955000D02*
X100201000Y-136955000D01*
X99951000Y-134714000D02*
X99951000Y-136955000D01*
X103000000Y-134714000D02*
X104010000Y-134714000D01*
X103000000Y-136955000D02*
X104010000Y-136955000D01*
X103250000Y-134714000D02*
X103250000Y-136955000D01*
X106810000Y-134714000D02*
X107820000Y-134714000D01*
X106810000Y-136955000D02*
X107820000Y-136955000D01*
X110620000Y-134714000D02*
X111720000Y-134714000D01*
X110620000Y-136955000D02*
X111720000Y-136955000D01*
X111720000Y-134714000D02*
X111720000Y-139955000D01*
%TO.C,C3*%
X84313752Y-97055000D02*
X83791248Y-97055000D01*
X84313752Y-98525000D02*
X83791248Y-98525000D01*
D16*
%TO.C,G\u002A\u002A\u002A*%
G36*
X131919854Y-90559194D02*
G01*
X131882610Y-90596437D01*
X131845367Y-90559194D01*
X131882610Y-90521950D01*
X131919854Y-90559194D01*
G37*
G36*
X131422238Y-90131940D02*
G01*
X131568322Y-90259304D01*
X131686892Y-90391599D01*
X131742230Y-90482288D01*
X131692218Y-90516988D01*
X131564994Y-90521950D01*
X131401276Y-90499242D01*
X131328467Y-90399854D01*
X131308071Y-90298490D01*
X131297444Y-90143307D01*
X131317116Y-90077413D01*
X131318238Y-90077399D01*
X131422238Y-90131940D01*
G37*
G36*
X132389005Y-89978302D02*
G01*
X132441261Y-90108409D01*
X132391973Y-90210871D01*
X132277458Y-90349557D01*
X132147744Y-90471050D01*
X132053972Y-90521950D01*
X131987793Y-90466433D01*
X131887416Y-90332607D01*
X131885517Y-90329716D01*
X131796972Y-90127065D01*
X131842869Y-89985700D01*
X132026181Y-89896850D01*
X132032693Y-89895190D01*
X132237038Y-89893230D01*
X132389005Y-89978302D01*
G37*
G36*
X130775360Y-91235183D02*
G01*
X130879764Y-91373605D01*
X130916362Y-91624939D01*
X130909877Y-91826267D01*
X130835640Y-92207479D01*
X130682188Y-92566619D01*
X130473491Y-92857814D01*
X130294271Y-93004528D01*
X130142607Y-93077401D01*
X130061783Y-93085634D01*
X130057684Y-93075595D01*
X130098604Y-92969249D01*
X130167045Y-92863900D01*
X130260671Y-92681016D01*
X130267455Y-92523676D01*
X130193386Y-92441769D01*
X130135502Y-92353675D01*
X130097404Y-92166842D01*
X130081586Y-91930495D01*
X130090543Y-91693863D01*
X130126772Y-91506171D01*
X130143906Y-91465669D01*
X130279461Y-91279447D01*
X130460521Y-91202561D01*
X130595092Y-91193472D01*
X130775360Y-91235183D01*
G37*
G36*
X123620029Y-92312907D02*
G01*
X123645503Y-92487236D01*
X123651819Y-92705447D01*
X123606362Y-93174130D01*
X123477492Y-93576557D01*
X123276459Y-93885472D01*
X123106358Y-94026949D01*
X122897875Y-94133476D01*
X122746313Y-94171943D01*
X122683717Y-94134564D01*
X122683490Y-94129664D01*
X122714748Y-94037203D01*
X122759226Y-93946009D01*
X122812519Y-93787696D01*
X122858500Y-93553646D01*
X122871889Y-93448120D01*
X122913245Y-93084450D01*
X122955699Y-92844015D01*
X123011652Y-92701508D01*
X123093506Y-92631622D01*
X123213664Y-92609047D01*
X123283781Y-92607581D01*
X123446199Y-92582453D01*
X123501498Y-92491363D01*
X123502845Y-92463003D01*
X123537049Y-92320410D01*
X123577332Y-92272390D01*
X123620029Y-92312907D01*
G37*
G36*
X124228752Y-92593996D02*
G01*
X124378084Y-92771012D01*
X124434216Y-93055606D01*
X124430852Y-93177928D01*
X124394468Y-93516759D01*
X124342790Y-93793990D01*
X124283157Y-93975542D01*
X124248868Y-94022830D01*
X124174583Y-94112878D01*
X124120438Y-94201536D01*
X124066653Y-94274913D01*
X124020688Y-94245085D01*
X123960914Y-94093445D01*
X123947278Y-94052562D01*
X123877595Y-93802496D01*
X123831606Y-93567586D01*
X123828117Y-93538666D01*
X123797060Y-93295464D01*
X123776733Y-93166232D01*
X124173226Y-93166232D01*
X124210470Y-93203475D01*
X124247713Y-93166232D01*
X124210470Y-93128989D01*
X124173226Y-93166232D01*
X123776733Y-93166232D01*
X123761575Y-93069867D01*
X123745599Y-92775470D01*
X123820747Y-92595798D01*
X123986035Y-92533142D01*
X123992029Y-92533094D01*
X124228752Y-92593996D01*
G37*
G36*
X125081039Y-91519566D02*
G01*
X125144215Y-91832408D01*
X125237825Y-92018072D01*
X125283942Y-92060150D01*
X125359999Y-92145880D01*
X125397953Y-92285844D01*
X125398573Y-92504587D01*
X125362626Y-92826654D01*
X125317121Y-93120643D01*
X125283890Y-93352233D01*
X125263603Y-93548075D01*
X125263028Y-93557288D01*
X125235621Y-93696436D01*
X125165446Y-93703563D01*
X125041369Y-93588666D01*
X124944304Y-93433441D01*
X124918094Y-93327962D01*
X124881506Y-93220910D01*
X124843607Y-93203475D01*
X124789916Y-93139108D01*
X124769121Y-92994912D01*
X124745626Y-92816603D01*
X124698293Y-92715522D01*
X124667510Y-92599152D01*
X124683510Y-92408172D01*
X124733590Y-92204555D01*
X124805048Y-92050273D01*
X124842401Y-92012432D01*
X124895131Y-91915328D01*
X124945357Y-91717182D01*
X124974836Y-91520543D01*
X125023217Y-91080602D01*
X125081039Y-91519566D01*
G37*
G36*
X126356712Y-90256827D02*
G01*
X126405425Y-90307319D01*
X126429854Y-90418604D01*
X126436720Y-90620428D01*
X126433013Y-90927830D01*
X126420583Y-91270611D01*
X126394818Y-91493409D01*
X126350622Y-91624986D01*
X126299151Y-91683476D01*
X126196011Y-91820254D01*
X126139160Y-91985222D01*
X126077084Y-92197963D01*
X125995205Y-92274201D01*
X125908921Y-92219682D01*
X125819657Y-92053509D01*
X125818488Y-92048930D01*
X125886423Y-92048930D01*
X125923666Y-92086173D01*
X125960909Y-92048930D01*
X125923666Y-92011687D01*
X125886423Y-92048930D01*
X125818488Y-92048930D01*
X125755550Y-91802467D01*
X125711243Y-91441215D01*
X125694500Y-91205629D01*
X125681206Y-90920670D01*
X125690593Y-90738654D01*
X125733993Y-90613988D01*
X125822735Y-90501075D01*
X125885531Y-90436895D01*
X126104558Y-90272091D01*
X126276993Y-90237381D01*
X126356712Y-90256827D01*
G37*
G36*
X131796165Y-102252697D02*
G01*
X131835962Y-102692972D01*
X131872911Y-103005804D01*
X131912964Y-103212462D01*
X131962070Y-103334218D01*
X132026179Y-103392340D01*
X132111241Y-103408100D01*
X132119381Y-103408168D01*
X132299869Y-103408168D01*
X132101021Y-103668871D01*
X131902172Y-103929575D01*
X127809843Y-103929575D01*
X126895079Y-103928951D01*
X126119625Y-103926928D01*
X125473824Y-103923286D01*
X124948016Y-103917801D01*
X124532543Y-103910250D01*
X124217747Y-103900412D01*
X123993970Y-103888063D01*
X123851552Y-103872980D01*
X123780835Y-103854942D01*
X123770234Y-103836467D01*
X123980324Y-103569219D01*
X124228491Y-103427282D01*
X124363116Y-103408168D01*
X124481518Y-103397299D01*
X124567625Y-103349982D01*
X124629133Y-103244155D01*
X124673738Y-103057753D01*
X124709138Y-102768711D01*
X124743029Y-102354967D01*
X124746368Y-102309487D01*
X124791248Y-101694971D01*
X128270134Y-101694971D01*
X131749020Y-101694971D01*
X131796165Y-102252697D01*
G37*
G36*
X132400603Y-90597545D02*
G01*
X132424338Y-90618365D01*
X132581175Y-90717302D01*
X132691601Y-90745411D01*
X132970652Y-90806082D01*
X133240579Y-90961839D01*
X133435791Y-91173302D01*
X133451731Y-91201804D01*
X133525947Y-91390835D01*
X133497667Y-91473299D01*
X133495851Y-91473940D01*
X133459465Y-91542752D01*
X133516113Y-91663439D01*
X133552135Y-91778550D01*
X133585942Y-91983544D01*
X133614530Y-92238963D01*
X133634894Y-92505348D01*
X133644031Y-92743244D01*
X133638937Y-92913193D01*
X133616607Y-92975736D01*
X133616019Y-92975633D01*
X133547445Y-92936046D01*
X133397734Y-92841164D01*
X133316481Y-92788331D01*
X133147069Y-92656946D01*
X133047882Y-92540487D01*
X133037156Y-92506311D01*
X132986137Y-92385629D01*
X132888182Y-92272390D01*
X132775837Y-92132557D01*
X132739209Y-92026975D01*
X132684251Y-91892572D01*
X132624219Y-91832297D01*
X132545623Y-91705120D01*
X132502435Y-91502568D01*
X132497848Y-91284201D01*
X132535056Y-91109575D01*
X132582187Y-91048332D01*
X132639024Y-90979778D01*
X132593232Y-90933480D01*
X132488604Y-90908669D01*
X132464682Y-90920622D01*
X132387188Y-90909463D01*
X132315343Y-90853594D01*
X132179233Y-90750906D01*
X132120337Y-90761821D01*
X132162645Y-90864648D01*
X132222970Y-90937130D01*
X132336512Y-91068705D01*
X132351517Y-91141270D01*
X132275948Y-91199979D01*
X132269932Y-91203362D01*
X132174568Y-91320165D01*
X132175665Y-91402699D01*
X132175348Y-91584083D01*
X132106350Y-91829495D01*
X131988890Y-92083422D01*
X131858625Y-92273158D01*
X131747166Y-92418543D01*
X131696657Y-92518386D01*
X131696393Y-92522264D01*
X131652020Y-92618686D01*
X131554100Y-92748853D01*
X131437831Y-92852822D01*
X131363989Y-92833812D01*
X131354326Y-92819915D01*
X131308283Y-92670619D01*
X131283322Y-92443475D01*
X131280466Y-92196586D01*
X131300738Y-91988058D01*
X131337837Y-91883234D01*
X131376642Y-91802516D01*
X131333080Y-91788226D01*
X131267934Y-91728591D01*
X131252721Y-91591255D01*
X131286608Y-91438576D01*
X131338857Y-91356203D01*
X131390679Y-91282395D01*
X131338857Y-91266819D01*
X131259256Y-91214885D01*
X131261655Y-91088227D01*
X131337690Y-90930562D01*
X131421869Y-90832882D01*
X131609677Y-90715508D01*
X131795313Y-90670924D01*
X132005249Y-90637436D01*
X132140158Y-90581122D01*
X132274238Y-90532513D01*
X132400603Y-90597545D01*
G37*
G36*
X126333343Y-97261830D02*
G01*
X126333343Y-97896144D01*
X128270000Y-97896144D01*
X130206657Y-97896144D01*
X130206657Y-97337493D01*
X130206657Y-96778842D01*
X130877038Y-96778842D01*
X131547420Y-96778842D01*
X131547420Y-97374736D01*
X131547420Y-97970631D01*
X131880767Y-97970631D01*
X132084356Y-97974839D01*
X132170047Y-98004112D01*
X132168916Y-98083427D01*
X132135643Y-98175470D01*
X132042726Y-98480697D01*
X131950244Y-98895456D01*
X131864815Y-99380431D01*
X131793056Y-99896311D01*
X131741586Y-100403780D01*
X131728121Y-100596291D01*
X131676142Y-101471511D01*
X128222632Y-101471511D01*
X124769121Y-101471511D01*
X124767645Y-100894238D01*
X124743295Y-100365467D01*
X124736602Y-100304888D01*
X125662962Y-100304888D01*
X125711592Y-100633964D01*
X125844275Y-100849148D01*
X126041202Y-100943342D01*
X126282564Y-100909453D01*
X126494863Y-100774510D01*
X129035775Y-100774510D01*
X129134107Y-100859540D01*
X129305673Y-100908850D01*
X129513593Y-100916676D01*
X129720985Y-100877253D01*
X129884480Y-100790330D01*
X129983297Y-100663366D01*
X130087852Y-100465237D01*
X130109381Y-100414291D01*
X130214172Y-100224418D01*
X130320405Y-100138940D01*
X130402867Y-100166807D01*
X130435998Y-100298343D01*
X130455058Y-100358250D01*
X130504579Y-100277647D01*
X130555487Y-100144714D01*
X130619004Y-99918323D01*
X130621168Y-99791216D01*
X130567271Y-99777548D01*
X130462607Y-99891474D01*
X130461424Y-99893160D01*
X130339405Y-100031797D01*
X130271104Y-100034228D01*
X130264770Y-99906114D01*
X130292026Y-99776936D01*
X130395754Y-99540311D01*
X130550002Y-99338637D01*
X130565347Y-99324755D01*
X130765308Y-99151899D01*
X130179952Y-99177637D01*
X129874431Y-99196501D01*
X129678677Y-99227568D01*
X129553487Y-99281808D01*
X129459660Y-99370195D01*
X129449996Y-99381947D01*
X129345260Y-99581360D01*
X129331564Y-99775249D01*
X129404480Y-99919233D01*
X129508370Y-99967117D01*
X129679932Y-99934280D01*
X129833047Y-99821472D01*
X129906472Y-99675889D01*
X129907054Y-99659885D01*
X129868709Y-99648439D01*
X129777592Y-99738572D01*
X129767611Y-99751319D01*
X129625381Y-99866703D01*
X129487362Y-99879168D01*
X129398884Y-99792444D01*
X129387302Y-99720023D01*
X129453662Y-99532004D01*
X129620359Y-99374161D01*
X129838822Y-99272311D01*
X130060479Y-99252268D01*
X130184668Y-99296227D01*
X130214323Y-99392660D01*
X130189997Y-99568119D01*
X130128626Y-99770618D01*
X130047149Y-99948172D01*
X129962503Y-100048797D01*
X129937039Y-100056261D01*
X129824916Y-100108187D01*
X129750819Y-100178736D01*
X129692725Y-100263029D01*
X129744975Y-100268883D01*
X129826308Y-100244991D01*
X130003441Y-100188771D01*
X129824270Y-100513572D01*
X129686886Y-100724505D01*
X129558920Y-100821953D01*
X129460336Y-100838373D01*
X129314726Y-100801410D01*
X129275572Y-100732850D01*
X129224673Y-100620606D01*
X129119170Y-100600995D01*
X129047558Y-100659524D01*
X129035775Y-100774510D01*
X126494863Y-100774510D01*
X126548552Y-100740384D01*
X126637964Y-100654128D01*
X126843916Y-100391863D01*
X126950838Y-100120713D01*
X126971849Y-100009186D01*
X126985674Y-99657757D01*
X126919970Y-99410341D01*
X126794203Y-99275355D01*
X126627841Y-99261216D01*
X126440350Y-99376339D01*
X126251197Y-99629142D01*
X126221197Y-99684633D01*
X126146471Y-99876577D01*
X126090610Y-100105387D01*
X126059462Y-100327434D01*
X126058880Y-100499094D01*
X126094714Y-100576739D01*
X126101426Y-100577669D01*
X126156039Y-100512175D01*
X126183574Y-100350940D01*
X126184370Y-100314573D01*
X126237176Y-99962542D01*
X126378232Y-99636984D01*
X126541830Y-99434448D01*
X126696841Y-99349999D01*
X126813236Y-99387916D01*
X126884559Y-99525106D01*
X126904356Y-99738473D01*
X126866172Y-100004925D01*
X126776138Y-100272805D01*
X126600322Y-100594624D01*
X126408502Y-100796996D01*
X126214620Y-100873159D01*
X126032619Y-100816350D01*
X125916905Y-100689535D01*
X125830720Y-100429986D01*
X125854343Y-100111206D01*
X125981149Y-99766897D01*
X126151250Y-99497270D01*
X126282206Y-99317075D01*
X126357936Y-99195515D01*
X126365198Y-99162420D01*
X126183706Y-99230020D01*
X126000867Y-99408960D01*
X125838682Y-99663444D01*
X125719152Y-99957679D01*
X125664278Y-100255871D01*
X125662962Y-100304888D01*
X124736602Y-100304888D01*
X124678227Y-99776543D01*
X124580718Y-99176229D01*
X124459044Y-98613289D01*
X124321480Y-98136486D01*
X124280277Y-98022540D01*
X124271498Y-97947826D01*
X124339724Y-97909781D01*
X124515253Y-97896864D01*
X124612178Y-97896144D01*
X124992581Y-97896144D01*
X124992581Y-97270847D01*
X124992581Y-96645549D01*
X125662962Y-96636533D01*
X126333343Y-96627517D01*
X126333343Y-97261830D01*
G37*
G36*
X126719115Y-88055900D02*
G01*
X126856803Y-88239824D01*
X126919447Y-88517805D01*
X126917695Y-88695572D01*
X126890921Y-89032214D01*
X127152162Y-89033232D01*
X127377624Y-89045545D01*
X127560801Y-89073875D01*
X127564768Y-89074918D01*
X127658953Y-89085702D01*
X127695962Y-89026101D01*
X127691673Y-88861411D01*
X127686870Y-88808754D01*
X128344487Y-88808754D01*
X128371741Y-88870065D01*
X128394145Y-88858412D01*
X128403060Y-88770013D01*
X128394145Y-88759096D01*
X128349863Y-88769321D01*
X128344487Y-88808754D01*
X127686870Y-88808754D01*
X127686820Y-88808211D01*
X127716019Y-88512868D01*
X127850045Y-88286568D01*
X128066873Y-88157596D01*
X128208498Y-88138373D01*
X128362352Y-88161686D01*
X128415741Y-88257482D01*
X128418974Y-88321204D01*
X128418974Y-88504035D01*
X128601805Y-88321204D01*
X128810801Y-88173234D01*
X128999154Y-88152010D01*
X129142374Y-88258096D01*
X129169873Y-88308079D01*
X129205666Y-88548742D01*
X129110913Y-88780803D01*
X128901918Y-88970625D01*
X128829920Y-89009367D01*
X128567099Y-89134697D01*
X128799536Y-89232430D01*
X129001191Y-89285391D01*
X129281289Y-89320883D01*
X129503167Y-89330162D01*
X129974362Y-89330162D01*
X129871641Y-89132167D01*
X129820085Y-88886412D01*
X129888530Y-88637109D01*
X130058287Y-88435091D01*
X130148230Y-88379946D01*
X130369184Y-88320743D01*
X130531711Y-88394500D01*
X130648431Y-88607270D01*
X130653478Y-88622235D01*
X130735071Y-88869463D01*
X130914399Y-88690135D01*
X131084020Y-88547527D01*
X131205600Y-88532730D01*
X131313830Y-88649664D01*
X131364705Y-88741040D01*
X131438334Y-88905163D01*
X131434240Y-89008384D01*
X131358894Y-89109252D01*
X131192143Y-89228694D01*
X131018288Y-89294615D01*
X130859471Y-89341115D01*
X130817262Y-89405767D01*
X130889140Y-89519911D01*
X130991247Y-89630696D01*
X131127785Y-89826985D01*
X131182529Y-90074099D01*
X131186752Y-90166886D01*
X131176267Y-90433683D01*
X131136683Y-90597168D01*
X131074651Y-90640848D01*
X131017842Y-90585768D01*
X130964582Y-90526187D01*
X130950111Y-90596437D01*
X130882936Y-90681820D01*
X130703750Y-90801926D01*
X130439903Y-90938839D01*
X130397430Y-90958481D01*
X130109777Y-91098124D01*
X129934236Y-91209382D01*
X129842552Y-91313774D01*
X129810896Y-91405212D01*
X129809065Y-91567061D01*
X129851883Y-91650167D01*
X129893170Y-91750070D01*
X129875535Y-91836574D01*
X129830523Y-92000508D01*
X129790611Y-92225929D01*
X129785303Y-92266926D01*
X129719769Y-92564016D01*
X129610499Y-92820453D01*
X129478725Y-92992225D01*
X129416961Y-93030476D01*
X129391026Y-93083156D01*
X129484111Y-93183804D01*
X129666711Y-93316571D01*
X130024337Y-93598665D01*
X130407499Y-93969263D01*
X130779306Y-94386719D01*
X131102867Y-94809385D01*
X131341290Y-95195613D01*
X131354972Y-95222472D01*
X131529774Y-95535440D01*
X131734071Y-95848453D01*
X131916590Y-96085188D01*
X132075535Y-96274243D01*
X132184687Y-96420293D01*
X132217801Y-96483347D01*
X132149071Y-96511588D01*
X131965776Y-96541530D01*
X131702261Y-96570478D01*
X131392869Y-96595737D01*
X131071946Y-96614611D01*
X130773835Y-96624406D01*
X130532880Y-96622427D01*
X130482260Y-96619538D01*
X130273445Y-96579039D01*
X130124705Y-96505966D01*
X130109826Y-96491017D01*
X130068943Y-96463020D01*
X129988631Y-96441102D01*
X129855027Y-96424984D01*
X129654267Y-96414384D01*
X129372488Y-96409021D01*
X128995829Y-96408615D01*
X128510424Y-96412883D01*
X127902412Y-96421545D01*
X127240293Y-96432841D01*
X124460146Y-96482565D01*
X124710950Y-96006887D01*
X126529585Y-96006887D01*
X126535953Y-96062781D01*
X126620437Y-96075837D01*
X126832302Y-96087439D01*
X127149961Y-96097022D01*
X127551824Y-96104024D01*
X128016304Y-96107883D01*
X128287434Y-96108461D01*
X129993236Y-96108461D01*
X129941345Y-95940865D01*
X129874533Y-95759456D01*
X129780003Y-95538173D01*
X129768212Y-95512566D01*
X129646970Y-95251863D01*
X128261313Y-95231636D01*
X127739458Y-95226636D01*
X127350196Y-95229516D01*
X127077313Y-95241104D01*
X126904597Y-95262228D01*
X126815834Y-95293715D01*
X126802507Y-95306122D01*
X126718833Y-95449905D01*
X126633598Y-95648285D01*
X126564587Y-95850775D01*
X126529585Y-96006887D01*
X124710950Y-96006887D01*
X124816334Y-95807015D01*
X125341518Y-94929880D01*
X125413076Y-94837285D01*
X127078279Y-94837285D01*
X127148566Y-94851801D01*
X127342492Y-94864313D01*
X127634725Y-94873870D01*
X127999932Y-94879520D01*
X128232825Y-94880629D01*
X128628473Y-94877374D01*
X128965690Y-94867604D01*
X129219151Y-94852617D01*
X129363526Y-94833707D01*
X129387302Y-94821573D01*
X129334377Y-94718528D01*
X129197650Y-94555190D01*
X129010194Y-94363640D01*
X128805085Y-94175962D01*
X128615395Y-94024237D01*
X128482326Y-93943731D01*
X128303875Y-93890147D01*
X128148348Y-93914144D01*
X128005319Y-93982520D01*
X127853907Y-94084373D01*
X127657909Y-94242550D01*
X127449840Y-94427070D01*
X127262215Y-94607953D01*
X127127551Y-94755219D01*
X127078279Y-94837285D01*
X125413076Y-94837285D01*
X125927276Y-94171920D01*
X126566851Y-93540248D01*
X127253484Y-93041974D01*
X127647512Y-92827953D01*
X127993700Y-92680564D01*
X128266330Y-92619901D01*
X128510813Y-92643024D01*
X128772557Y-92746993D01*
X128786785Y-92754196D01*
X128964780Y-92842138D01*
X129042022Y-92862129D01*
X129050329Y-92814168D01*
X129035834Y-92754196D01*
X129037620Y-92636947D01*
X129078330Y-92607581D01*
X129126556Y-92553258D01*
X129115928Y-92494902D01*
X129122313Y-92347977D01*
X129164629Y-92271442D01*
X129214104Y-92179662D01*
X129172963Y-92160660D01*
X129107102Y-92097780D01*
X129089355Y-91997668D01*
X129147332Y-91851555D01*
X129311711Y-91637201D01*
X129534962Y-91405358D01*
X129729642Y-91205041D01*
X129862623Y-91042925D01*
X129913329Y-90945224D01*
X129907396Y-90930816D01*
X129793704Y-90914047D01*
X129774802Y-90922317D01*
X129667531Y-90920981D01*
X129613061Y-90895805D01*
X129585720Y-90846285D01*
X129995216Y-90846285D01*
X130091386Y-90818448D01*
X130231041Y-90743129D01*
X130449920Y-90640298D01*
X130656392Y-90582775D01*
X130676290Y-90580559D01*
X130850855Y-90514768D01*
X130946966Y-90354037D01*
X130972880Y-90082444D01*
X130856751Y-89843350D01*
X130654360Y-89677663D01*
X130482269Y-89581831D01*
X130407553Y-89575480D01*
X130399978Y-89671219D01*
X130414329Y-89777765D01*
X130410345Y-89973445D01*
X130358031Y-90109381D01*
X130304337Y-90264622D01*
X130314877Y-90361917D01*
X130301871Y-90514303D01*
X130172057Y-90655537D01*
X130020468Y-90789549D01*
X129995216Y-90846285D01*
X129585720Y-90846285D01*
X129556648Y-90793628D01*
X129515466Y-90599736D01*
X129493263Y-90366687D01*
X129493788Y-90147042D01*
X129520791Y-89993359D01*
X129546114Y-89957219D01*
X129607405Y-89859377D01*
X129524745Y-89733908D01*
X129424173Y-89658258D01*
X129271246Y-89581197D01*
X129161699Y-89602432D01*
X129124244Y-89630063D01*
X129058177Y-89708142D01*
X129110807Y-89772172D01*
X129180482Y-89810237D01*
X129287129Y-89888660D01*
X129330401Y-90011442D01*
X129328613Y-90227772D01*
X129301172Y-90468349D01*
X129258702Y-90666321D01*
X129243994Y-90708168D01*
X129181805Y-90875846D01*
X129107697Y-91102631D01*
X129091746Y-91155088D01*
X128993575Y-91404274D01*
X128871001Y-91608427D01*
X128747770Y-91735679D01*
X128647629Y-91754160D01*
X128646055Y-91753220D01*
X128529523Y-91748957D01*
X128401892Y-91794891D01*
X128232757Y-91882931D01*
X128405799Y-91694628D01*
X128511644Y-91555850D01*
X128504747Y-91483153D01*
X128480286Y-91470369D01*
X128421120Y-91416051D01*
X128469501Y-91341057D01*
X128518733Y-91222788D01*
X128473982Y-91114334D01*
X128430145Y-90969021D01*
X128478674Y-90874958D01*
X128527703Y-90761737D01*
X128512511Y-90714803D01*
X128439791Y-90546039D01*
X128471412Y-90324909D01*
X128597101Y-90094216D01*
X128685266Y-89995126D01*
X128847405Y-89791168D01*
X128867043Y-89627255D01*
X128742666Y-89498168D01*
X128597723Y-89441892D01*
X129014868Y-89441892D01*
X129052112Y-89479135D01*
X129089355Y-89441892D01*
X129052112Y-89404648D01*
X129014868Y-89441892D01*
X128597723Y-89441892D01*
X128515394Y-89409927D01*
X128337041Y-89365332D01*
X128236180Y-89349032D01*
X128228999Y-89350802D01*
X128213490Y-89427151D01*
X128184704Y-89610787D01*
X128150324Y-89851569D01*
X128103291Y-90128216D01*
X128046603Y-90293126D01*
X127964674Y-90383419D01*
X127916188Y-90409262D01*
X127776961Y-90537421D01*
X127748593Y-90684191D01*
X127723603Y-90849598D01*
X127673833Y-90931797D01*
X127633441Y-91030332D01*
X127645401Y-91162591D01*
X127657503Y-91300266D01*
X127594233Y-91325621D01*
X127501819Y-91368691D01*
X127465554Y-91448307D01*
X127406252Y-91597479D01*
X127294307Y-91800927D01*
X127244402Y-91879615D01*
X127097591Y-92058161D01*
X126991229Y-92093923D01*
X126929148Y-91988520D01*
X126915181Y-91743570D01*
X126915292Y-91740581D01*
X126903319Y-91534145D01*
X126860384Y-91387501D01*
X126851375Y-91374481D01*
X126817925Y-91217752D01*
X126855047Y-91079823D01*
X126897534Y-90879328D01*
X126886653Y-90728582D01*
X126903604Y-90558458D01*
X127033858Y-90380398D01*
X127155478Y-90236164D01*
X127178085Y-90135742D01*
X127127507Y-90041672D01*
X127034713Y-89956143D01*
X126900216Y-89940270D01*
X126736323Y-89968210D01*
X126515021Y-90005883D01*
X126339285Y-90018448D01*
X126315306Y-90016962D01*
X126207201Y-90061050D01*
X126024276Y-90193258D01*
X125793441Y-90392877D01*
X125652857Y-90526800D01*
X125381202Y-90779600D01*
X125171117Y-90944923D01*
X125037527Y-91011498D01*
X125013043Y-91009982D01*
X124874136Y-90972365D01*
X124837515Y-90968871D01*
X124781532Y-90907918D01*
X124774454Y-90761927D01*
X124815215Y-90586204D01*
X124846228Y-90517054D01*
X124890478Y-90404516D01*
X124880995Y-90372977D01*
X124788100Y-90404579D01*
X124620317Y-90483366D01*
X124423099Y-90585308D01*
X124241899Y-90686376D01*
X124122170Y-90762539D01*
X124098739Y-90786530D01*
X124153781Y-90786302D01*
X124256702Y-90740600D01*
X124365508Y-90693388D01*
X124368113Y-90730956D01*
X124362019Y-90741242D01*
X124358793Y-90862882D01*
X124397809Y-90932981D01*
X124447572Y-91076833D01*
X124448263Y-91339034D01*
X124432788Y-91500116D01*
X124390079Y-91775794D01*
X124322932Y-91961623D01*
X124204331Y-92116703D01*
X124108684Y-92209107D01*
X123838036Y-92457520D01*
X123752240Y-92141495D01*
X123699094Y-91978135D01*
X123666502Y-91948086D01*
X123659131Y-91993065D01*
X123619360Y-92134563D01*
X123520004Y-92140172D01*
X123396435Y-92043609D01*
X123289255Y-91870636D01*
X123324514Y-91686944D01*
X123349815Y-91643266D01*
X123372542Y-91478850D01*
X123337993Y-91386123D01*
X123300625Y-91262221D01*
X123324568Y-91214109D01*
X123423931Y-91164449D01*
X123598301Y-91064979D01*
X123689062Y-91010687D01*
X123987009Y-90829852D01*
X123668769Y-90872150D01*
X123425403Y-90882800D01*
X123261564Y-90826616D01*
X123203226Y-90781142D01*
X123078445Y-90612627D01*
X123086252Y-90438640D01*
X123230059Y-90240834D01*
X123319220Y-90157233D01*
X123589533Y-89978720D01*
X123860122Y-89935122D01*
X124164395Y-90023367D01*
X124259239Y-90070780D01*
X124495510Y-90165883D01*
X124698393Y-90163306D01*
X124742301Y-90151670D01*
X124885266Y-90106444D01*
X124890264Y-90088254D01*
X124763483Y-90081432D01*
X124565843Y-90021634D01*
X124492820Y-89963299D01*
X126035396Y-89963299D01*
X126072640Y-90000543D01*
X126109883Y-89963299D01*
X126072640Y-89926056D01*
X126035396Y-89963299D01*
X124492820Y-89963299D01*
X124393694Y-89884111D01*
X124287583Y-89711957D01*
X124285828Y-89676758D01*
X125625719Y-89676758D01*
X125811936Y-89758748D01*
X125991704Y-89811887D01*
X126109883Y-89815171D01*
X126247424Y-89790288D01*
X126467236Y-89756668D01*
X126580795Y-89740731D01*
X126792108Y-89687857D01*
X126994156Y-89599444D01*
X127149854Y-89497705D01*
X127222115Y-89404852D01*
X127210782Y-89363416D01*
X127127406Y-89343089D01*
X126937271Y-89317918D01*
X126692280Y-89294304D01*
X126425752Y-89276742D01*
X126265165Y-89285467D01*
X126168401Y-89330259D01*
X126093345Y-89420896D01*
X126083587Y-89435638D01*
X125938845Y-89580468D01*
X125795149Y-89647012D01*
X125625719Y-89676758D01*
X124285828Y-89676758D01*
X124280403Y-89567970D01*
X124399094Y-89416661D01*
X124618228Y-89309117D01*
X124891434Y-89263822D01*
X125028735Y-89269685D01*
X125202440Y-89282727D01*
X125265448Y-89240462D01*
X125254967Y-89105369D01*
X125248324Y-89069458D01*
X126705777Y-89069458D01*
X126743021Y-89106701D01*
X126780264Y-89069458D01*
X126743021Y-89032214D01*
X126705777Y-89069458D01*
X125248324Y-89069458D01*
X125245018Y-89051590D01*
X125239458Y-88822257D01*
X125330468Y-88656801D01*
X125488363Y-88550104D01*
X125671116Y-88511948D01*
X125817338Y-88550846D01*
X125848932Y-88584893D01*
X125947862Y-88678465D01*
X126038046Y-88735685D01*
X126134111Y-88773581D01*
X126157613Y-88719571D01*
X126136491Y-88587983D01*
X126142834Y-88341622D01*
X126244267Y-88134178D01*
X126413450Y-88008373D01*
X126519560Y-87989399D01*
X126719115Y-88055900D01*
G37*
D15*
%TO.C,RV1*%
X89670000Y-63865000D02*
X105910000Y-63865000D01*
X89670000Y-72105000D02*
X89670000Y-63865000D01*
X89670000Y-72105000D02*
X105910000Y-72105000D01*
X92670000Y-54865000D02*
X102910000Y-54865000D01*
X92670000Y-63865000D02*
X92670000Y-54865000D01*
X92670000Y-63865000D02*
X102910000Y-63865000D01*
X94670000Y-38865000D02*
X100911000Y-38865000D01*
X94670000Y-54865000D02*
X94670000Y-38865000D01*
X94670000Y-54865000D02*
X100911000Y-54865000D01*
X100911000Y-54865000D02*
X100911000Y-38865000D01*
X102910000Y-63865000D02*
X102910000Y-54865000D01*
X105910000Y-72105000D02*
X105910000Y-63865000D01*
%TO.C,R4*%
X96420000Y-75607936D02*
X96420000Y-76062064D01*
X97890000Y-75607936D02*
X97890000Y-76062064D01*
%TO.C,C2*%
X85285354Y-83485000D02*
X86285354Y-83485000D01*
X85785354Y-82985000D02*
X85785354Y-83985000D01*
X90765000Y-81280000D02*
X90765000Y-91440000D01*
X90805000Y-81280000D02*
X90805000Y-91440000D01*
X90845000Y-81280000D02*
X90845000Y-91440000D01*
X90885000Y-81281000D02*
X90885000Y-91439000D01*
X90925000Y-81282000D02*
X90925000Y-91438000D01*
X90965000Y-81283000D02*
X90965000Y-91437000D01*
X91005000Y-81285000D02*
X91005000Y-91435000D01*
X91045000Y-81287000D02*
X91045000Y-91433000D01*
X91085000Y-81290000D02*
X91085000Y-91430000D01*
X91125000Y-81292000D02*
X91125000Y-91428000D01*
X91165000Y-81295000D02*
X91165000Y-91425000D01*
X91205000Y-81298000D02*
X91205000Y-91422000D01*
X91245000Y-81302000D02*
X91245000Y-91418000D01*
X91285000Y-81306000D02*
X91285000Y-91414000D01*
X91325000Y-81310000D02*
X91325000Y-91410000D01*
X91365000Y-81315000D02*
X91365000Y-91405000D01*
X91405000Y-81320000D02*
X91405000Y-91400000D01*
X91445000Y-81325000D02*
X91445000Y-91395000D01*
X91486000Y-81330000D02*
X91486000Y-91390000D01*
X91526000Y-81336000D02*
X91526000Y-91384000D01*
X91566000Y-81342000D02*
X91566000Y-91378000D01*
X91606000Y-81349000D02*
X91606000Y-91371000D01*
X91646000Y-81356000D02*
X91646000Y-91364000D01*
X91686000Y-81363000D02*
X91686000Y-91357000D01*
X91726000Y-81370000D02*
X91726000Y-91350000D01*
X91766000Y-81378000D02*
X91766000Y-91342000D01*
X91806000Y-81386000D02*
X91806000Y-91334000D01*
X91846000Y-81395000D02*
X91846000Y-91325000D01*
X91886000Y-81404000D02*
X91886000Y-91316000D01*
X91926000Y-81413000D02*
X91926000Y-91307000D01*
X91966000Y-81422000D02*
X91966000Y-91298000D01*
X92006000Y-81432000D02*
X92006000Y-91288000D01*
X92046000Y-81442000D02*
X92046000Y-85119000D01*
X92046000Y-87601000D02*
X92046000Y-91278000D01*
X92086000Y-81453000D02*
X92086000Y-85119000D01*
X92086000Y-87601000D02*
X92086000Y-91267000D01*
X92126000Y-81463000D02*
X92126000Y-85119000D01*
X92126000Y-87601000D02*
X92126000Y-91257000D01*
X92166000Y-81475000D02*
X92166000Y-85119000D01*
X92166000Y-87601000D02*
X92166000Y-91245000D01*
X92206000Y-81486000D02*
X92206000Y-85119000D01*
X92206000Y-87601000D02*
X92206000Y-91234000D01*
X92246000Y-81498000D02*
X92246000Y-85119000D01*
X92246000Y-87601000D02*
X92246000Y-91222000D01*
X92286000Y-81510000D02*
X92286000Y-85119000D01*
X92286000Y-87601000D02*
X92286000Y-91210000D01*
X92326000Y-81523000D02*
X92326000Y-85119000D01*
X92326000Y-87601000D02*
X92326000Y-91197000D01*
X92366000Y-81536000D02*
X92366000Y-85119000D01*
X92366000Y-87601000D02*
X92366000Y-91184000D01*
X92406000Y-81549000D02*
X92406000Y-85119000D01*
X92406000Y-87601000D02*
X92406000Y-91171000D01*
X92446000Y-81563000D02*
X92446000Y-85119000D01*
X92446000Y-87601000D02*
X92446000Y-91157000D01*
X92486000Y-81577000D02*
X92486000Y-85119000D01*
X92486000Y-87601000D02*
X92486000Y-91143000D01*
X92526000Y-81592000D02*
X92526000Y-85119000D01*
X92526000Y-87601000D02*
X92526000Y-91128000D01*
X92566000Y-81606000D02*
X92566000Y-85119000D01*
X92566000Y-87601000D02*
X92566000Y-91114000D01*
X92606000Y-81622000D02*
X92606000Y-85119000D01*
X92606000Y-87601000D02*
X92606000Y-91098000D01*
X92646000Y-81637000D02*
X92646000Y-85119000D01*
X92646000Y-87601000D02*
X92646000Y-91083000D01*
X92686000Y-81653000D02*
X92686000Y-85119000D01*
X92686000Y-87601000D02*
X92686000Y-91067000D01*
X92726000Y-81670000D02*
X92726000Y-85119000D01*
X92726000Y-87601000D02*
X92726000Y-91050000D01*
X92766000Y-81686000D02*
X92766000Y-85119000D01*
X92766000Y-87601000D02*
X92766000Y-91034000D01*
X92806000Y-81703000D02*
X92806000Y-85119000D01*
X92806000Y-87601000D02*
X92806000Y-91017000D01*
X92846000Y-81721000D02*
X92846000Y-85119000D01*
X92846000Y-87601000D02*
X92846000Y-90999000D01*
X92886000Y-81739000D02*
X92886000Y-85119000D01*
X92886000Y-87601000D02*
X92886000Y-90981000D01*
X92926000Y-81757000D02*
X92926000Y-85119000D01*
X92926000Y-87601000D02*
X92926000Y-90963000D01*
X92966000Y-81776000D02*
X92966000Y-85119000D01*
X92966000Y-87601000D02*
X92966000Y-90944000D01*
X93006000Y-81796000D02*
X93006000Y-85119000D01*
X93006000Y-87601000D02*
X93006000Y-90924000D01*
X93046000Y-81815000D02*
X93046000Y-85119000D01*
X93046000Y-87601000D02*
X93046000Y-90905000D01*
X93086000Y-81835000D02*
X93086000Y-85119000D01*
X93086000Y-87601000D02*
X93086000Y-90885000D01*
X93126000Y-81856000D02*
X93126000Y-85119000D01*
X93126000Y-87601000D02*
X93126000Y-90864000D01*
X93166000Y-81877000D02*
X93166000Y-85119000D01*
X93166000Y-87601000D02*
X93166000Y-90843000D01*
X93206000Y-81898000D02*
X93206000Y-85119000D01*
X93206000Y-87601000D02*
X93206000Y-90822000D01*
X93246000Y-81920000D02*
X93246000Y-85119000D01*
X93246000Y-87601000D02*
X93246000Y-90800000D01*
X93286000Y-81943000D02*
X93286000Y-85119000D01*
X93286000Y-87601000D02*
X93286000Y-90777000D01*
X93326000Y-81965000D02*
X93326000Y-85119000D01*
X93326000Y-87601000D02*
X93326000Y-90755000D01*
X93366000Y-81989000D02*
X93366000Y-85119000D01*
X93366000Y-87601000D02*
X93366000Y-90731000D01*
X93406000Y-82013000D02*
X93406000Y-85119000D01*
X93406000Y-87601000D02*
X93406000Y-90707000D01*
X93446000Y-82037000D02*
X93446000Y-85119000D01*
X93446000Y-87601000D02*
X93446000Y-90683000D01*
X93486000Y-82062000D02*
X93486000Y-85119000D01*
X93486000Y-87601000D02*
X93486000Y-90658000D01*
X93526000Y-82087000D02*
X93526000Y-85119000D01*
X93526000Y-87601000D02*
X93526000Y-90633000D01*
X93566000Y-82113000D02*
X93566000Y-85119000D01*
X93566000Y-87601000D02*
X93566000Y-90607000D01*
X93606000Y-82139000D02*
X93606000Y-85119000D01*
X93606000Y-87601000D02*
X93606000Y-90581000D01*
X93646000Y-82166000D02*
X93646000Y-85119000D01*
X93646000Y-87601000D02*
X93646000Y-90554000D01*
X93686000Y-82194000D02*
X93686000Y-85119000D01*
X93686000Y-87601000D02*
X93686000Y-90526000D01*
X93726000Y-82222000D02*
X93726000Y-85119000D01*
X93726000Y-87601000D02*
X93726000Y-90498000D01*
X93766000Y-82250000D02*
X93766000Y-85119000D01*
X93766000Y-87601000D02*
X93766000Y-90470000D01*
X93806000Y-82280000D02*
X93806000Y-85119000D01*
X93806000Y-87601000D02*
X93806000Y-90440000D01*
X93846000Y-82310000D02*
X93846000Y-85119000D01*
X93846000Y-87601000D02*
X93846000Y-90410000D01*
X93886000Y-82340000D02*
X93886000Y-85119000D01*
X93886000Y-87601000D02*
X93886000Y-90380000D01*
X93926000Y-82371000D02*
X93926000Y-85119000D01*
X93926000Y-87601000D02*
X93926000Y-90349000D01*
X93966000Y-82403000D02*
X93966000Y-85119000D01*
X93966000Y-87601000D02*
X93966000Y-90317000D01*
X94006000Y-82435000D02*
X94006000Y-85119000D01*
X94006000Y-87601000D02*
X94006000Y-90285000D01*
X94046000Y-82468000D02*
X94046000Y-85119000D01*
X94046000Y-87601000D02*
X94046000Y-90252000D01*
X94086000Y-82502000D02*
X94086000Y-85119000D01*
X94086000Y-87601000D02*
X94086000Y-90218000D01*
X94126000Y-82536000D02*
X94126000Y-85119000D01*
X94126000Y-87601000D02*
X94126000Y-90184000D01*
X94166000Y-82571000D02*
X94166000Y-85119000D01*
X94166000Y-87601000D02*
X94166000Y-90149000D01*
X94206000Y-82607000D02*
X94206000Y-85119000D01*
X94206000Y-87601000D02*
X94206000Y-90113000D01*
X94246000Y-82644000D02*
X94246000Y-85119000D01*
X94246000Y-87601000D02*
X94246000Y-90076000D01*
X94286000Y-82681000D02*
X94286000Y-85119000D01*
X94286000Y-87601000D02*
X94286000Y-90039000D01*
X94326000Y-82720000D02*
X94326000Y-85119000D01*
X94326000Y-87601000D02*
X94326000Y-90000000D01*
X94366000Y-82759000D02*
X94366000Y-85119000D01*
X94366000Y-87601000D02*
X94366000Y-89961000D01*
X94406000Y-82799000D02*
X94406000Y-85119000D01*
X94406000Y-87601000D02*
X94406000Y-89921000D01*
X94446000Y-82840000D02*
X94446000Y-85119000D01*
X94446000Y-87601000D02*
X94446000Y-89880000D01*
X94486000Y-82882000D02*
X94486000Y-85119000D01*
X94486000Y-87601000D02*
X94486000Y-89838000D01*
X94526000Y-82924000D02*
X94526000Y-89796000D01*
X94566000Y-82968000D02*
X94566000Y-89752000D01*
X94606000Y-83013000D02*
X94606000Y-89707000D01*
X94646000Y-83059000D02*
X94646000Y-89661000D01*
X94686000Y-83106000D02*
X94686000Y-89614000D01*
X94726000Y-83154000D02*
X94726000Y-89566000D01*
X94766000Y-83204000D02*
X94766000Y-89516000D01*
X94806000Y-83254000D02*
X94806000Y-89466000D01*
X94846000Y-83306000D02*
X94846000Y-89414000D01*
X94886000Y-83360000D02*
X94886000Y-89360000D01*
X94926000Y-83415000D02*
X94926000Y-89305000D01*
X94966000Y-83471000D02*
X94966000Y-89249000D01*
X95006000Y-83530000D02*
X95006000Y-89190000D01*
X95046000Y-83590000D02*
X95046000Y-89130000D01*
X95086000Y-83651000D02*
X95086000Y-89069000D01*
X95126000Y-83715000D02*
X95126000Y-89005000D01*
X95166000Y-83781000D02*
X95166000Y-88939000D01*
X95206000Y-83850000D02*
X95206000Y-88870000D01*
X95246000Y-83921000D02*
X95246000Y-88799000D01*
X95286000Y-83995000D02*
X95286000Y-88725000D01*
X95326000Y-84071000D02*
X95326000Y-88649000D01*
X95366000Y-84151000D02*
X95366000Y-88569000D01*
X95406000Y-84235000D02*
X95406000Y-88485000D01*
X95446000Y-84323000D02*
X95446000Y-88397000D01*
X95486000Y-84416000D02*
X95486000Y-88304000D01*
X95526000Y-84514000D02*
X95526000Y-88206000D01*
X95566000Y-84618000D02*
X95566000Y-88102000D01*
X95606000Y-84730000D02*
X95606000Y-87990000D01*
X95646000Y-84850000D02*
X95646000Y-87870000D01*
X95686000Y-84982000D02*
X95686000Y-87738000D01*
X95726000Y-85130000D02*
X95726000Y-87590000D01*
X95766000Y-85298000D02*
X95766000Y-87422000D01*
X95806000Y-85498000D02*
X95806000Y-87222000D01*
X95846000Y-85761000D02*
X95846000Y-86959000D01*
X95885000Y-86360000D02*
G75*
G02*
X85645000Y-86360000I-5120000J0D01*
G01*
X85645000Y-86360000D02*
G75*
G02*
X95885000Y-86360000I5120000J0D01*
G01*
%TO.C,R9*%
X152327936Y-97400000D02*
X152782064Y-97400000D01*
X152327936Y-98870000D02*
X152782064Y-98870000D01*
%TO.C,R8*%
X140415000Y-117330000D02*
X140415000Y-119210000D01*
X140415000Y-123970000D02*
X140415000Y-122090000D01*
X165655000Y-117330000D02*
X140415000Y-117330000D01*
X165655000Y-119210000D02*
X165655000Y-117330000D01*
X165655000Y-122090000D02*
X165655000Y-123970000D01*
X165655000Y-123970000D02*
X140415000Y-123970000D01*
%TO.C,R3*%
X94207064Y-110390000D02*
X93752936Y-110390000D01*
X94207064Y-111860000D02*
X93752936Y-111860000D01*
%TO.C,D1*%
X106215000Y-112395000D02*
X107205000Y-112395000D01*
X107205000Y-110475000D02*
X107205000Y-114315000D01*
X107205000Y-114315000D02*
X115045000Y-114315000D01*
X113665000Y-114315000D02*
X113665000Y-110475000D01*
X113785000Y-114315000D02*
X113785000Y-110475000D01*
X113905000Y-114315000D02*
X113905000Y-110475000D01*
X115045000Y-110475000D02*
X107205000Y-110475000D01*
X115045000Y-114315000D02*
X115045000Y-110475000D01*
X116035000Y-112395000D02*
X115045000Y-112395000D01*
%TO.C,R5*%
X126265000Y-117517936D02*
X126265000Y-117972064D01*
X127735000Y-117517936D02*
X127735000Y-117972064D01*
%TD*%
M02*
